# OBJ generated by ONSHAPE BY PTC INC, 1.203 Units = meters
mtllib claw robot - claw.mtl
g claw
v 0.0164728 0.01524 0.0120134 
v 0.0161776 0.01524 0.0106724 
v 0.015601 0.01524 0.00942623 
v 0.0147701 0.01524 0.00833311 
v 0.0137235 0.01524 0.00744417 
v 0.0125104 0.01524 0.006801 
v 0.0111873 0.01524 0.00643365 
v 0.00981622 0.01524 0.00635931 
v 0.0084612 0.01524 0.00658146 
v 0.00718561 0.01524 0.0070897 
v 0.0060491 0.01524 0.00786027 
v 0.00510481 0.01524 0.00885714 
v 0.0043969 0.01524 0.0100337 
v 0.00395846 0.01524 0.0113349 
v 0.00381 0.01524 0.0127 
v 0.00395846 0.01524 0.0140651 
v 0.0043969 0.01524 0.0153663 
v 0.00510481 0.01524 0.0165429 
v 0.0060491 0.01524 0.0175397 
v 0.00718561 0.01524 0.0183103 
v 0.0084612 0.01524 0.0188185 
v 0.00981622 0.01524 0.0190407 
v 0.0111873 0.01524 0.0189663 
v 0.0125104 0.01524 0.018599 
v 0.0137235 0.01524 0.0179558 
v 0.0147701 0.01524 0.0170669 
v 0.015601 0.01524 0.0159738 
v 0.0161776 0.01524 0.0147276 
v 0.0164728 0.01524 0.0133866 
v 0.01651 0.01524 0.0127 
v 0.01016 0.01524 0.0127 
v 0.00381 -0.01524 0.0127 
v 0.00395846 -0.01524 0.0113349 
v 0.0043969 -0.01524 0.0100337 
v 0.00510481 -0.01524 0.00885714 
v 0.0060491 -0.01524 0.00786027 
v 0.00718561 -0.01524 0.0070897 
v 0.0084612 -0.01524 0.00658146 
v 0.0060491 -0.01524 0.0175397 
v 0.00510481 -0.01524 0.0165429 
v 0.0043969 -0.01524 0.0153663 
v 0.00395846 -0.01524 0.0140651 
v 0.0084612 0.00635 0.0188185 
v 0.00981622 0.00635 0.0190407 
v 0.0111873 0.00635 0.0189663 
v 0.0125104 0.00635 0.018599 
v 0.0137235 0.00635 0.0179558 
v 0.0147701 0.00635 0.0170669 
v 0.015601 0.00635 0.0159738 
v 0.0161776 0.00635 0.0147276 
v 0.0164728 0.00635 0.0133866 
v 0.0164728 0.00635 0.0120134 
v 0.0161776 0.00635 0.0106724 
v 0.015601 0.00635 0.00942623 
v 0.0147701 0.00635 0.00833311 
v 0.0137235 0.00635 0.00744417 
v 0.0125104 0.00635 0.006801 
v 0.0111873 0.00635 0.00643365 
v 0.0111873 -0.01524 0.00643365 
v 0.00981622 -0.01524 0.00635931 
v 0.01016 -0.00635 0.00635 
v 0.01016 0.00635 0.00635 
v 0.0111873 -0.00635 0.00643365 
v 0.0125104 -0.00635 0.006801 
v 0.0125104 -0.01524 0.006801 
v 0.0137235 -0.00635 0.00744417 
v 0.0137235 -0.01524 0.00744417 
v 0.0147701 -0.00635 0.00833311 
v 0.0147701 -0.01524 0.00833311 
v 0.015601 -0.00635 0.00942623 
v 0.015601 -0.01524 0.00942623 
v 0.0161776 -0.00635 0.0106724 
v 0.0161776 -0.01524 0.0106724 
v 0.0164728 -0.00635 0.0120134 
v 0.0164728 -0.00635 0.0133866 
v 0.01651 -0.01524 0.0127 
v 0.0164728 -0.01524 0.0133866 
v 0.0161776 -0.00635 0.0147276 
v 0.0161776 -0.01524 0.0147276 
v 0.015601 -0.00635 0.0159738 
v 0.015601 -0.01524 0.0159738 
v 0.0147701 -0.00635 0.0170669 
v 0.0147701 -0.01524 0.0170669 
v 0.0137235 -0.00635 0.0179558 
v 0.0137235 -0.01524 0.0179558 
v 0.0125104 -0.00635 0.018599 
v 0.0125104 -0.01524 0.018599 
v 0.0111873 -0.00635 0.0189663 
v 0.0111873 -0.01524 0.0189663 
v 0.00981622 -0.00635 0.0190407 
v 0.00981622 -0.01524 0.0190407 
v 0.0084612 -0.00635 0.0188185 
v 0.0084612 -0.01524 0.0188185 
v 0.00718561 -0.00635 0.0183103 
v 0.00619319 0.00635 0.0176585 
v 0.00619319 -0.00635 0.0176585 
v 0.00718561 -0.01524 0.0183103 
v 0.00718561 0.00635 0.0183103 
v 0.0164728 -0.01524 0.0120134 
v 0.01016 -0.01524 0.0127 
v 0.01016 0.00635 0.00381 
v 0.01016 -0.00635 0.00381 
v 0 0.00635 0.0254 
v 0 -0.00635 0.0254 
v -4.68114e-18 -0.00635 0.03175 
v -4.68114e-18 0.00635 0.03175 
v 0.00438319 -0.00635 0.0734533 
v 1.73472e-18 -0.00635 0.073914 
v 1.73472e-18 0.00635 0.073914 
v 0.00857482 -0.00635 0.0720914 
v 0.00438319 0.00635 0.0734533 
v 0.0123917 -0.00635 0.0698877 
v 0.00857482 0.00635 0.0720914 
v 0.015667 -0.00635 0.0669386 
v 0.0123917 0.00635 0.0698877 
v 0.0182575 -0.00635 0.063373 
v 0.015667 0.00635 0.0669386 
v 0.0200502 -0.00635 0.0593467 
v 0.0182575 0.00635 0.063373 
v 0.0209665 -0.00635 0.0550357 
v 0.0200502 0.00635 0.0593467 
v 0.0209665 -0.00635 0.0506283 
v 0.0209665 0.00635 0.0550357 
v 0.0200502 -0.00635 0.0463173 
v 0.0209665 0.00635 0.0506283 
v 0.0182575 -0.00635 0.042291 
v 0.0200502 0.00635 0.0463173 
v 0.015667 -0.00635 0.0387254 
v 0.0182575 0.00635 0.042291 
v 0.0123917 -0.00635 0.0357763 
v 0.015667 0.00635 0.0387254 
v 0.00857482 -0.00635 0.0335726 
v 0.0123917 0.00635 0.0357763 
v 0.00438319 -0.00635 0.0322107 
v 0.00857482 0.00635 0.0335726 
v 0.00438319 0.00635 0.0322107 
v -5.03918e-18 -0.00635 0.080264 
v -5.03918e-18 0.00635 0.080264 
v 0.0210141 -0.00635 0.0351991 
v 0.0210141 0.00635 0.0351991 
v 0.02418 0.00635 0.0398767 
v 0.02418 -0.00635 0.0398767 
v 0.0263208 0.00635 0.0451035 
v 0.0263208 -0.00635 0.0451035 
v 0.0273457 0.00635 0.050658 
v 0.0273457 -0.00635 0.050658 
v 0.0272113 0.00635 0.0563047 
v 0.0272113 -0.00635 0.0563047 
v 0.0259233 0.00635 0.0618041 
v 0.0259233 -0.00635 0.0618041 
v 0.0235362 0.00635 0.0669232 
v 0.0235362 -0.00635 0.0669232 
v 0.0201513 0.00635 0.0714449 
v 0.0201513 -0.00635 0.0714449 
v 0.0159121 0.00635 0.0751774 
v 0.0159121 -0.00635 0.0751774 
v 0.0109983 0.00635 0.0779627 
v 0.0109983 -0.00635 0.0779627 
v 0.00561826 0.00635 0.0796825 
v 0.00561826 -0.00635 0.0796825 
v 0.02032 0.00635 0.00669554 
v 0.0174345 0.00635 0.00381 
v 0.0174345 -0.00635 0.00381 
v 0.02032 -0.00635 0.00669554 
vn 0 1 0 
vn -1 0 0 
vn -0.976621 0 -0.21497 
vn -0.907575 0 -0.419889 
vn -0.796093 0 -0.605174 
vn -0.647386 0 -0.762162 
vn -0.468408 0 -0.883512 
vn -0.267528 0 -0.96355 
vn -0.0541389 0 -0.998533 
vn -0.647386 0 0.762162 
vn -0.796093 0 0.605174 
vn -0.907575 0 0.419889 
vn -0.976621 0 0.21497 
vn -0.267528 0 0.96355 
vn -0.468408 0 0.883512 
vn -0.0541389 0 0.998533 
vn 0.161782 0 0.986827 
vn 0.370138 0 0.928977 
vn 0.561187 0 0.827689 
vn 0.725995 0 0.687699 
vn 0.856857 0 0.515554 
vn 0.947653 0 0.319302 
vn 0.994138 0 0.108119 
vn 0.994138 0 -0.108119 
vn 1 0 -3.67394e-16 
vn 0.947653 0 -0.319302 
vn 0.856857 0 -0.515554 
vn 0.725995 0 -0.687699 
vn 0.561187 0 -0.827689 
vn 0.370138 0 -0.928977 
vn 0.161782 0 -0.986827 
vn -0.0541389 0 -0.998533 
vn -6.12323e-17 0 -1 
vn 0.161782 0 -0.986827 
vn 0.370138 0 -0.928977 
vn 0.561187 0 -0.827689 
vn 0.725995 0 -0.687699 
vn 0.856857 0 -0.515554 
vn 0.947653 0 -0.319302 
vn 0.994138 0 -0.108119 
vn 0.994138 0 0.108119 
vn 1 0 -1.22465e-16 
vn 0.947653 0 0.319302 
vn 0.856857 0 0.515554 
vn 0.725995 0 0.687699 
vn 0.561187 0 0.827689 
vn 0.370138 0 0.928977 
vn 0.161782 0 0.986827 
vn -0.0541389 0 0.998533 
vn -0.267528 0 0.96355 
vn -0.468408 0 0.883512 
vn -0.624695 0 0.780869 
vn 0.994138 0 -0.108119 
vn 0 -1 0 
vn -1 0 0 
vn -0.780869 0 -0.624695 
vn -0.207912 0 -0.978148 
vn -1.83697e-16 0 -1 
vn -0.406737 0 -0.913545 
vn -0.207912 0 -0.978148 
vn -0.587785 0 -0.809017 
vn -0.406737 0 -0.913545 
vn -0.743145 0 -0.669131 
vn -0.587785 0 -0.809017 
vn -0.866025 0 -0.5 
vn -0.743145 0 -0.669131 
vn -0.951057 0 -0.309017 
vn -0.866025 0 -0.5 
vn -0.994522 0 -0.104528 
vn -0.951057 0 -0.309017 
vn -0.994522 0 0.104528 
vn -0.994522 0 -0.104528 
vn -0.951057 0 0.309017 
vn -0.994522 0 0.104528 
vn -0.866025 0 0.5 
vn -0.951057 0 0.309017 
vn -0.743145 0 0.669131 
vn -0.866025 0 0.5 
vn -0.587785 0 0.809017 
vn -0.743145 0 0.669131 
vn -0.406737 0 0.913545 
vn -0.587785 0 0.809017 
vn -0.207912 0 0.978148 
vn -0.406737 0 0.913545 
vn 6.12323e-17 0 1 
vn -0.207912 0 0.978148 
vn -1 0 0 
vn 0.766044 0 -0.642788 
vn 0.881453 0 -0.472271 
vn 0.959493 0 -0.281733 
vn 0.996855 0 -0.07925 
vn 0.991955 0 0.126592 
vn 0.945001 0 0.327068 
vn 0.857983 0 0.513677 
vn 0.734592 0 0.678509 
vn 0.580057 0 0.814576 
vn 0.400931 0 0.916108 
vn 0.204807 0 0.978802 
vn 1.83697e-16 0 1 
vn 0 1 0 
vn 0 -1 0 
vn 0.999704 0 -0.0243453 
vn 0.707107 0 -0.707107 
vn 0 0 -1 
usemtl 0.972549_0.529412_0.003922_0.000000_0.000000
o mesh0
f 31//1 1//1 2//1 
f 2//1 3//1 31//1 
f 3//1 4//1 31//1 
f 4//1 5//1 31//1 
f 5//1 6//1 31//1 
f 6//1 7//1 31//1 
f 7//1 8//1 31//1 
f 8//1 9//1 31//1 
f 9//1 10//1 31//1 
f 10//1 11//1 31//1 
f 11//1 12//1 31//1 
f 12//1 13//1 31//1 
f 13//1 14//1 31//1 
f 14//1 15//1 31//1 
f 15//1 16//1 31//1 
f 16//1 17//1 31//1 
f 17//1 18//1 31//1 
f 18//1 19//1 31//1 
f 19//1 20//1 31//1 
f 20//1 21//1 31//1 
f 21//1 22//1 31//1 
f 22//1 23//1 31//1 
f 23//1 24//1 31//1 
f 24//1 25//1 31//1 
f 25//1 26//1 31//1 
f 26//1 27//1 31//1 
f 27//1 28//1 31//1 
f 28//1 29//1 31//1 
f 29//1 30//1 31//1 
f 30//1 1//1 31//1 
o mesh1
f 32//2 15//2 14//3 
f 33//3 14//3 13//4 
f 34//4 13//4 12//5 
f 35//5 12//5 11//6 
f 36//6 11//6 10//7 
f 37//7 10//7 9//8 
f 38//8 9//8 8//9 
f 39//10 19//10 18//11 
f 40//11 18//11 17//12 
f 41//12 17//12 16//13 
f 42//13 16//13 15//2 
f 43//14 21//14 20//15 
f 44//16 22//16 21//14 
f 45//17 23//17 22//16 
f 46//18 24//18 23//17 
f 47//19 25//19 24//18 
f 48//20 26//20 25//19 
f 49//21 27//21 26//20 
f 50//22 28//22 27//21 
f 51//23 29//23 28//22 
f 51//23 52//24 30//25 
f 52//24 1//24 30//25 
f 53//26 2//26 1//24 
f 54//27 3//27 2//26 
f 55//28 4//28 3//27 
f 56//29 5//29 4//28 
f 57//30 6//30 5//29 
f 58//31 7//31 6//30 
f 59//31 60//32 61//33 
f 60//32 8//9 62//33 
f 62//33 61//33 60//32 
f 7//31 58//31 62//33 
f 62//33 8//9 7//31 
f 59//31 63//34 64//35 
f 65//35 64//35 66//36 
f 67//36 66//36 68//37 
f 69//37 68//37 70//38 
f 71//38 70//38 72//39 
f 73//39 72//39 74//40 
f 74//40 75//41 76//42 
f 75//41 77//41 76//42 
f 77//41 75//41 78//43 
f 79//43 78//43 80//44 
f 81//44 80//44 82//45 
f 83//45 82//45 84//46 
f 85//46 84//46 86//47 
f 87//47 86//47 88//48 
f 89//48 88//48 90//49 
f 91//49 90//49 92//50 
f 93//50 92//50 94//51 
f 20//15 19//10 95//52 
f 19//10 39//10 96//52 
f 96//52 95//52 19//10 
f 97//51 94//51 96//52 
f 96//52 39//10 97//51 
f 95//52 98//51 20//15 
f 94//51 97//51 93//50 
f 92//50 93//50 91//49 
f 90//49 91//49 89//48 
f 88//48 89//48 87//47 
f 86//47 87//47 85//46 
f 84//46 85//46 83//45 
f 82//45 83//45 81//44 
f 80//44 81//44 79//43 
f 78//43 79//43 77//41 
f 76//42 99//53 74//40 
f 74//40 99//53 73//39 
f 72//39 73//39 71//38 
f 70//38 71//38 69//37 
f 68//37 69//37 67//36 
f 66//36 67//36 65//35 
f 64//35 65//35 59//31 
f 61//33 63//34 59//31 
f 6//30 57//30 58//31 
f 5//29 56//29 57//30 
f 4//28 55//28 56//29 
f 3//27 54//27 55//28 
f 2//26 53//26 54//27 
f 1//24 52//24 53//26 
f 30//25 29//23 51//23 
f 28//22 50//22 51//23 
f 27//21 49//21 50//22 
f 26//20 48//20 49//21 
f 25//19 47//19 48//20 
f 24//18 46//18 47//19 
f 23//17 45//17 46//18 
f 22//16 44//16 45//17 
f 21//14 43//14 44//16 
f 20//15 98//51 43//14 
f 15//2 32//2 42//13 
f 16//13 42//13 41//12 
f 17//12 41//12 40//11 
f 18//11 40//11 39//10 
f 8//9 60//32 38//8 
f 9//8 38//8 37//7 
f 10//7 37//7 36//6 
f 11//6 36//6 35//5 
f 12//5 35//5 34//4 
f 13//4 34//4 33//3 
f 14//3 33//3 32//2 
o mesh2
f 100//54 77//54 79//54 
f 79//54 81//54 100//54 
f 81//54 83//54 100//54 
f 83//54 85//54 100//54 
f 85//54 87//54 100//54 
f 87//54 89//54 100//54 
f 89//54 91//54 100//54 
f 91//54 93//54 100//54 
f 93//54 97//54 100//54 
f 97//54 39//54 100//54 
f 39//54 40//54 100//54 
f 40//54 41//54 100//54 
f 41//54 42//54 100//54 
f 42//54 32//54 100//54 
f 32//54 33//54 100//54 
f 33//54 34//54 100//54 
f 34//54 35//54 100//54 
f 35//54 36//54 100//54 
f 36//54 37//54 100//54 
f 37//54 38//54 100//54 
f 38//54 60//54 100//54 
f 60//54 59//54 100//54 
f 59//54 65//54 100//54 
f 65//54 67//54 100//54 
f 67//54 69//54 100//54 
f 69//54 71//54 100//54 
f 71//54 73//54 100//54 
f 73//54 99//54 100//54 
f 99//54 76//54 100//54 
f 76//54 77//54 100//54 
o mesh3
f 101//55 102//55 61//55 
f 61//55 62//55 101//55 
o mesh4
f 103//56 95//56 96//56 
f 96//56 104//56 103//56 
o mesh5
f 103//55 104//55 105//55 
f 105//55 106//55 103//55 
o mesh6
f 107//57 108//58 109//58 
f 110//59 107//57 111//60 
f 112//61 110//59 113//62 
f 114//63 112//61 115//64 
f 116//65 114//63 117//66 
f 118//67 116//65 119//68 
f 120//69 118//67 121//70 
f 122//71 120//69 123//72 
f 124//73 122//71 125//74 
f 126//75 124//73 127//76 
f 128//77 126//75 129//78 
f 130//79 128//77 131//80 
f 132//81 130//79 133//82 
f 134//83 132//81 135//84 
f 105//85 134//83 136//86 
f 136//86 106//85 105//85 
f 135//84 136//86 134//83 
f 133//82 135//84 132//81 
f 131//80 133//82 130//79 
f 129//78 131//80 128//77 
f 127//76 129//78 126//75 
f 125//74 127//76 124//73 
f 123//72 125//74 122//71 
f 121//70 123//72 120//69 
f 119//68 121//70 118//67 
f 117//66 119//68 116//65 
f 115//64 117//66 114//63 
f 113//62 115//64 112//61 
f 111//60 113//62 110//59 
f 109//58 111//60 107//57 
o mesh7
f 109//87 108//87 137//87 
f 137//87 138//87 109//87 
o mesh8
f 139//88 140//88 141//89 
f 142//89 141//89 143//90 
f 144//90 143//90 145//91 
f 146//91 145//91 147//92 
f 148//92 147//92 149//93 
f 150//93 149//93 151//94 
f 152//94 151//94 153//95 
f 154//95 153//95 155//96 
f 156//96 155//96 157//97 
f 158//97 157//97 159//98 
f 160//98 159//98 138//99 
f 138//99 137//99 160//98 
f 159//98 160//98 158//97 
f 157//97 158//97 156//96 
f 155//96 156//96 154//95 
f 153//95 154//95 152//94 
f 151//94 152//94 150//93 
f 149//93 150//93 148//92 
f 147//92 148//92 146//91 
f 145//91 146//91 144//90 
f 143//90 144//90 142//89 
f 141//89 142//89 139//88 
o mesh9
f 140//100 161//100 51//100 
f 161//100 52//100 51//100 
f 145//100 125//100 123//100 
f 143//100 127//100 125//100 
f 161//100 53//100 52//100 
f 161//100 162//100 55//100 
f 125//100 145//100 143//100 
f 141//100 129//100 127//100 
f 161//100 54//100 53//100 
f 162//100 56//100 55//100 
f 157//100 113//100 111//100 
f 155//100 115//100 113//100 
f 151//100 119//100 117//100 
f 149//100 121//100 119//100 
f 147//100 123//100 121//100 
f 127//100 143//100 141//100 
f 140//100 48//100 47//100 
f 140//100 50//100 49//100 
f 55//100 54//100 161//100 
f 101//100 58//100 57//100 
f 113//100 157//100 155//100 
f 153//100 117//100 115//100 
f 119//100 151//100 149//100 
f 123//100 147//100 145//100 
f 98//100 95//100 103//100 
f 98//100 106//100 136//100 
f 135//100 44//100 43//100 
f 45//100 44//100 135//100 
f 133//100 140//100 46//100 
f 49//100 48//100 140//100 
f 162//100 57//100 56//100 
f 101//100 62//100 58//100 
f 115//100 155//100 153//100 
f 121//100 149//100 147//100 
f 140//100 131//100 129//100 
f 136//100 43//100 98//100 
f 135//100 133//100 45//100 
f 47//100 46//100 140//100 
f 57//100 162//100 101//100 
f 117//100 153//100 151//100 
f 140//100 133//100 131//100 
f 43//100 136//100 135//100 
f 51//100 50//100 140//100 
f 159//100 111//100 109//100 
f 129//100 141//100 140//100 
f 46//100 45//100 133//100 
f 111//100 159//100 157//100 
f 109//100 138//100 159//100 
f 103//100 106//100 98//100 
o mesh10
f 144//101 146//101 122//101 
f 146//101 148//101 120//101 
f 102//101 163//101 64//101 
f 142//101 144//101 124//101 
f 120//101 122//101 146//101 
f 64//101 63//101 102//101 
f 164//101 70//101 68//101 
f 122//101 124//101 144//101 
f 148//101 150//101 118//101 
f 150//101 152//101 116//101 
f 152//101 154//101 114//101 
f 156//101 158//101 110//101 
f 158//101 160//101 107//101 
f 163//101 66//101 64//101 
f 68//101 163//101 164//101 
f 139//101 78//101 75//101 
f 118//101 120//101 148//101 
f 114//101 116//101 152//101 
f 154//101 156//101 112//101 
f 107//101 110//101 158//101 
f 68//101 66//101 163//101 
f 75//101 164//101 139//101 
f 139//101 82//101 80//101 
f 139//101 86//101 84//101 
f 139//101 142//101 126//101 
f 116//101 118//101 150//101 
f 110//101 112//101 156//101 
f 164//101 72//101 70//101 
f 75//101 74//101 164//101 
f 84//101 82//101 139//101 
f 130//101 88//101 86//101 
f 88//101 130//101 132//101 
f 132//101 134//101 92//101 
f 94//101 92//101 134//101 
f 94//101 105//101 104//101 
f 126//101 128//101 139//101 
f 112//101 114//101 154//101 
f 74//101 72//101 164//101 
f 86//101 139//101 130//101 
f 92//101 90//101 132//101 
f 104//101 96//101 94//101 
f 124//101 126//101 142//101 
f 160//101 137//101 108//101 
f 80//101 78//101 139//101 
f 134//101 105//101 94//101 
f 108//101 107//101 160//101 
f 132//101 90//101 88//101 
f 63//101 61//101 102//101 
f 128//101 130//101 139//101 
o mesh11
f 140//102 139//102 164//102 
f 164//102 161//102 140//102 
o mesh12
f 161//103 164//103 163//103 
f 163//103 162//103 161//103 
o mesh13
f 162//104 163//104 102//104 
f 102//104 101//104 162//104 
