# OBJ generated by ONSHAPE BY PTC INC, 1.203 Units = meters
mtllib claw robot - wheel.mtl
g wheel
v -0.22225 0.0502169 -0.108178 
v -0.22225 0.0590267 -0.109989 
v -0.22225 0.0672917 -0.113535 
v -0.22225 0.0746735 -0.118673 
v -0.22225 0.08087 -0.125192 
v -0.22225 0.0856274 -0.132824 
v -0.22225 0.088751 -0.141258 
v -0.22225 0.0901129 -0.150149 
v -0.22225 0.0896574 -0.159131 
v -0.22225 0.0874031 -0.167838 
v -0.22225 0.0834422 -0.175912 
v -0.22225 0.077937 -0.183025 
v -0.22225 0.0711129 -0.188883 
v -0.22225 0.0632491 -0.193248 
v -0.22225 0.0546677 -0.19594 
v -0.22225 0.04572 -0.19685 
v -0.22225 0.0367723 -0.19594 
v -0.22225 0.0281909 -0.193248 
v -0.22225 0.0203271 -0.188883 
v -0.22225 0.013503 -0.183025 
v -0.22225 0.00799776 -0.175912 
v -0.22225 0.00403692 -0.167838 
v -0.22225 0.00178258 -0.159131 
v -0.22225 0.00132705 -0.150149 
v -0.22225 0.00268897 -0.141258 
v -0.22225 0.00581259 -0.132824 
v -0.22225 0.01057 -0.125192 
v -0.22225 0.0167665 -0.118673 
v -0.22225 0.0241483 -0.113535 
v -0.22225 0.0324133 -0.109989 
v -0.22225 0.0412231 -0.108178 
v -0.22225 0.04572 -0.10795 
v -0.22225 0.04572 -0.1524 
v -0.19685 0.04572 -0.19685 
v -0.19685 0.0546677 -0.19594 
v -0.19685 0.0632491 -0.193248 
v -0.19685 0.0711129 -0.188883 
v -0.19685 0.077937 -0.183025 
v -0.19685 0.0834422 -0.175912 
v -0.19685 0.0874031 -0.167838 
v -0.19685 0.0896574 -0.159131 
v -0.19685 0.0901129 -0.150149 
v -0.19685 0.088751 -0.141258 
v -0.19685 0.0856274 -0.132824 
v -0.19685 0.08087 -0.125192 
v -0.19685 0.0746735 -0.118673 
v -0.19685 0.0672917 -0.113535 
v -0.19685 0.0590267 -0.109989 
v -0.19685 0.0412231 -0.108178 
v -0.19685 0.04572 -0.10795 
v -0.19685 0.0502169 -0.108178 
v -0.19685 0.0324133 -0.109989 
v -0.19685 0.0241483 -0.113535 
v -0.19685 0.0167665 -0.118673 
v -0.19685 0.01057 -0.125192 
v -0.19685 0.00581259 -0.132824 
v -0.19685 0.00268897 -0.141258 
v -0.19685 0.00132705 -0.150149 
v -0.19685 0.00178258 -0.159131 
v -0.19685 0.00403692 -0.167838 
v -0.19685 0.00799776 -0.175912 
v -0.19685 0.013503 -0.183025 
v -0.19685 0.0203271 -0.188883 
v -0.19685 0.0281909 -0.193248 
v -0.19685 0.0367723 -0.19594 
v -0.19685 0.04572 -0.1524 
vn -1 0 -7.58847e-17 
vn 7.58847e-17 0 -1 
vn 7.43313e-17 0.201299 -0.97953 
vn 6.97348e-17 0.394356 -0.918958 
vn 6.22834e-17 0.571268 -0.820763 
vn 5.2282e-17 0.724793 -0.688967 
vn 4.01403e-17 0.848644 -0.528964 
vn 2.63551e-17 0.937752 -0.347305 
vn 1.1491e-17 0.988468 -0.151428 
vn -3.8435e-18 0.998717 0.0506492 
vn -1.90207e-17 0.968077 0.250653 
vn -3.34192e-17 0.897805 0.440394 
vn -4.64495e-17 0.790776 0.612106 
vn -5.75781e-17 0.651372 0.758758 
vn -6.63495e-17 0.485302 0.874347 
vn -7.24045e-17 0.299363 0.954139 
vn -7.54953e-17 0.101168 0.994869 
vn -7.54953e-17 -0.101168 0.994869 
vn -7.58847e-17 1.22465e-16 1 
vn -7.54953e-17 0.101168 0.994869 
vn -7.24045e-17 -0.299363 0.954139 
vn -6.63495e-17 -0.485302 0.874347 
vn -5.75781e-17 -0.651372 0.758758 
vn -4.64495e-17 -0.790776 0.612106 
vn -3.34192e-17 -0.897805 0.440394 
vn -1.90207e-17 -0.968077 0.250653 
vn -3.8435e-18 -0.998717 0.0506492 
vn 1.1491e-17 -0.988468 -0.151428 
vn 2.63551e-17 -0.937752 -0.347305 
vn 4.01403e-17 -0.848644 -0.528964 
vn 5.2282e-17 -0.724793 -0.688967 
vn 6.22834e-17 -0.571268 -0.820763 
vn 6.97348e-17 -0.394356 -0.918958 
vn 7.43313e-17 -0.201299 -0.97953 
vn 1 0 7.58847e-17 
usemtl 0.647059_0.647059_0.647059_0.000000_0.000000
o mesh0
f 33//1 1//1 2//1 
f 2//1 3//1 33//1 
f 3//1 4//1 33//1 
f 4//1 5//1 33//1 
f 5//1 6//1 33//1 
f 6//1 7//1 33//1 
f 7//1 8//1 33//1 
f 8//1 9//1 33//1 
f 9//1 10//1 33//1 
f 10//1 11//1 33//1 
f 11//1 12//1 33//1 
f 12//1 13//1 33//1 
f 13//1 14//1 33//1 
f 14//1 15//1 33//1 
f 15//1 16//1 33//1 
f 16//1 17//1 33//1 
f 17//1 18//1 33//1 
f 18//1 19//1 33//1 
f 19//1 20//1 33//1 
f 20//1 21//1 33//1 
f 21//1 22//1 33//1 
f 22//1 23//1 33//1 
f 23//1 24//1 33//1 
f 24//1 25//1 33//1 
f 25//1 26//1 33//1 
f 26//1 27//1 33//1 
f 27//1 28//1 33//1 
f 28//1 29//1 33//1 
f 29//1 30//1 33//1 
f 30//1 31//1 33//1 
f 31//1 32//1 33//1 
f 32//1 1//1 33//1 
o mesh1
f 34//2 16//2 15//3 
f 35//3 15//3 14//4 
f 36//4 14//4 13//5 
f 37//5 13//5 12//6 
f 38//6 12//6 11//7 
f 39//7 11//7 10//8 
f 40//8 10//8 9//9 
f 41//9 9//9 8//10 
f 42//10 8//10 7//11 
f 43//11 7//11 6//12 
f 44//12 6//12 5//13 
f 45//13 5//13 4//14 
f 46//14 4//14 3//15 
f 47//15 3//15 2//16 
f 48//16 2//16 1//17 
f 31//18 49//18 50//19 
f 51//20 1//17 32//19 
f 32//19 50//19 51//20 
f 49//18 31//18 30//21 
f 52//21 30//21 29//22 
f 53//22 29//22 28//23 
f 54//23 28//23 27//24 
f 55//24 27//24 26//25 
f 56//25 26//25 25//26 
f 57//26 25//26 24//27 
f 58//27 24//27 23//28 
f 59//28 23//28 22//29 
f 60//29 22//29 21//30 
f 61//30 21//30 20//31 
f 62//31 20//31 19//32 
f 63//32 19//32 18//33 
f 64//33 18//33 17//34 
f 65//34 17//34 16//2 
f 16//2 34//2 65//34 
f 17//34 65//34 64//33 
f 18//33 64//33 63//32 
f 19//32 63//32 62//31 
f 20//31 62//31 61//30 
f 21//30 61//30 60//29 
f 22//29 60//29 59//28 
f 23//28 59//28 58//27 
f 24//27 58//27 57//26 
f 25//26 57//26 56//25 
f 26//25 56//25 55//24 
f 27//24 55//24 54//23 
f 28//23 54//23 53//22 
f 29//22 53//22 52//21 
f 30//21 52//21 49//18 
f 50//19 32//19 31//18 
f 1//17 51//20 48//16 
f 2//16 48//16 47//15 
f 3//15 47//15 46//14 
f 4//14 46//14 45//13 
f 5//13 45//13 44//12 
f 6//12 44//12 43//11 
f 7//11 43//11 42//10 
f 8//10 42//10 41//9 
f 9//9 41//9 40//8 
f 10//8 40//8 39//7 
f 11//7 39//7 38//6 
f 12//6 38//6 37//5 
f 13//5 37//5 36//4 
f 14//4 36//4 35//3 
f 15//3 35//3 34//2 
o mesh2
f 66//35 49//35 52//35 
f 52//35 53//35 66//35 
f 53//35 54//35 66//35 
f 54//35 55//35 66//35 
f 55//35 56//35 66//35 
f 56//35 57//35 66//35 
f 57//35 58//35 66//35 
f 58//35 59//35 66//35 
f 59//35 60//35 66//35 
f 60//35 61//35 66//35 
f 61//35 62//35 66//35 
f 62//35 63//35 66//35 
f 63//35 64//35 66//35 
f 64//35 65//35 66//35 
f 65//35 34//35 66//35 
f 34//35 35//35 66//35 
f 35//35 36//35 66//35 
f 36//35 37//35 66//35 
f 37//35 38//35 66//35 
f 38//35 39//35 66//35 
f 39//35 40//35 66//35 
f 40//35 41//35 66//35 
f 41//35 42//35 66//35 
f 42//35 43//35 66//35 
f 43//35 44//35 66//35 
f 44//35 45//35 66//35 
f 45//35 46//35 66//35 
f 46//35 47//35 66//35 
f 47//35 48//35 66//35 
f 48//35 51//35 66//35 
f 51//35 50//35 66//35 
f 50//35 49//35 66//35 
