# OBJ generated by ONSHAPE BY PTC INC, 1.203 Units = meters
mtllib claw robot - arm.mtl
g arm
v -0.02032 0.0189549 0.265282 
v -0.02032 0.02032 0.26543 
v 0.02032 0.02032 0.26543 
v -0.02032 0.0176537 0.264843 
v 0.02032 0.0189549 0.265282 
v -0.02032 0.0164771 0.264135 
v 0.02032 0.0176537 0.264843 
v -0.02032 0.0154803 0.263191 
v 0.02032 0.0164771 0.264135 
v -0.02032 0.0147097 0.262054 
v 0.02032 0.0154803 0.263191 
v -0.02032 0.0142015 0.260779 
v 0.02032 0.0147097 0.262054 
v -0.02032 0.0139793 0.259424 
v 0.02032 0.0142015 0.260779 
v -0.02032 0.0140537 0.258053 
v 0.02032 0.0139793 0.259424 
v -0.02032 0.014421 0.25673 
v 0.02032 0.0140537 0.258053 
v -0.02032 0.0150642 0.255516 
v 0.02032 0.014421 0.25673 
v -0.02032 0.0159531 0.25447 
v 0.02032 0.0150642 0.255516 
v -0.02032 0.0170462 0.253639 
v 0.02032 0.0159531 0.25447 
v -0.02032 0.0182924 0.253062 
v 0.02032 0.0170462 0.253639 
v -0.02032 0.0196334 0.252767 
v 0.02032 0.0182924 0.253062 
v -0.02032 0.0210066 0.252767 
v 0.02032 0.02032 0.25273 
v 0.02032 0.0196334 0.252767 
v -0.02032 0.0223476 0.253062 
v 0.02032 0.0210066 0.252767 
v -0.02032 0.0235938 0.253639 
v 0.02032 0.0223476 0.253062 
v -0.02032 0.0246869 0.25447 
v 0.02032 0.0235938 0.253639 
v -0.02032 0.0255758 0.255516 
v 0.02032 0.0246869 0.25447 
v -0.02032 0.026219 0.25673 
v 0.02032 0.0255758 0.255516 
v -0.02032 0.0265863 0.258053 
v 0.02032 0.026219 0.25673 
v -0.02032 0.0266607 0.259424 
v 0.02032 0.0265863 0.258053 
v -0.02032 0.0264385 0.260779 
v 0.02032 0.0266607 0.259424 
v -0.02032 0.0259303 0.262054 
v 0.02032 0.0264385 0.260779 
v -0.02032 0.0251597 0.263191 
v 0.02032 0.0259303 0.262054 
v -0.02032 0.0241629 0.264135 
v 0.02032 0.0251597 0.263191 
v -0.02032 0.0229863 0.264843 
v 0.02032 0.0241629 0.264135 
v -0.02032 0.0216851 0.265282 
v 0.02032 0.0229863 0.264843 
v 0.02032 0.0216851 0.265282 
v 0.02032 0.04064 0.2794 
v 0.02032 0.04064 -0.2794 
v 0.02032 0 -0.2794 
v 0.02032 0 0.2794 
v 0.02032 0.0265863 -0.260107 
v 0.02032 0.026219 -0.26143 
v 0.02032 0.0264385 -0.257381 
v 0.02032 0.0266607 -0.258736 
v 0.02032 0.0139793 -0.258736 
v 0.02032 0.0259303 -0.256106 
v 0.02032 0.0140537 -0.260107 
v 0.02032 0.0241629 -0.254025 
v 0.02032 0.0251597 -0.254969 
v 0.02032 0.0147097 -0.256106 
v 0.02032 0.0154803 -0.254969 
v 0.02032 0.0150642 -0.262644 
v 0.02032 0.014421 -0.26143 
v 0.02032 0.0255758 -0.262644 
v 0.02032 0.0229863 -0.253317 
v 0.02032 0.0216851 -0.252878 
v 0.02032 0.0142015 -0.257381 
v 0.02032 0.0246869 -0.26369 
v 0.02032 0.0235938 -0.264521 
v 0.02032 0.02032 -0.25273 
v 0.02032 0.0159531 -0.26369 
v 0.02032 0.0182924 -0.265098 
v 0.02032 0.0170462 -0.264521 
v 0.02032 0.0176537 -0.253317 
v 0.02032 0.0189549 -0.252878 
v 0.02032 0.0164771 -0.254025 
v 0.02032 0.02032 -0.26543 
v 0.02032 0.0196334 -0.265393 
v 0.02032 0.0223476 -0.265098 
v 0.02032 0.0210066 -0.265393 
v -0.02032 0.0259303 -0.256106 
v -0.02032 0.0251597 -0.254969 
v -0.02032 0.04064 -0.2794 
v -0.02032 0.0264385 -0.257381 
v -0.02032 0.0265863 -0.260107 
v -0.02032 0.0266607 -0.258736 
v -0.02032 0.0255758 -0.262644 
v -0.02032 0.026219 -0.26143 
v -0.02032 0 -0.2794 
v -0.02032 0.0140537 -0.260107 
v -0.02032 0.014421 -0.26143 
v -0.02032 0.0142015 -0.257381 
v -0.02032 0.0139793 -0.258736 
v -0.02032 0 0.2794 
v -0.02032 0.0147097 -0.256106 
v -0.02032 0.0189549 -0.252878 
v -0.02032 0.04064 0.2794 
v -0.02032 0.02032 -0.25273 
v -0.02032 0.0164771 -0.254025 
v -0.02032 0.0154803 -0.254969 
v -0.02032 0.0229863 -0.253317 
v -0.02032 0.0216851 -0.252878 
v -0.02032 0.0246869 -0.26369 
v -0.02032 0.0150642 -0.262644 
v -0.02032 0.0176537 -0.253317 
v -0.02032 0.0241629 -0.254025 
v -0.02032 0.0223476 -0.265098 
v -0.02032 0.0235938 -0.264521 
v -0.02032 0.0159531 -0.26369 
v -0.02032 0.0170462 -0.264521 
v -0.02032 0.0196334 -0.265393 
v -0.02032 0.0210066 -0.265393 
v -0.02032 0.0182924 -0.265098 
vn 6.06359e-17 0.21497 -0.976621 
vn 6.20875e-17 2.44929e-16 -1 
vn 5.6349e-17 0.419889 -0.907575 
vn 6.06359e-17 0.21497 -0.976621 
vn 4.94274e-17 0.605174 -0.796093 
vn 5.6349e-17 0.419889 -0.907575 
vn 4.01946e-17 0.762162 -0.647386 
vn 4.94274e-17 0.605174 -0.796093 
vn 2.90823e-17 0.883512 -0.468408 
vn 4.01946e-17 0.762162 -0.647386 
vn 1.66102e-17 0.96355 -0.267528 
vn 2.90823e-17 0.883512 -0.468408 
vn 3.36135e-18 0.998533 -0.0541389 
vn 1.66102e-17 0.96355 -0.267528 
vn -1.00446e-17 0.986827 0.161782 
vn 3.36135e-18 0.998533 -0.0541389 
vn -2.29809e-17 0.928977 0.370138 
vn -1.00446e-17 0.986827 0.161782 
vn -3.48427e-17 0.827689 0.561187 
vn -2.29809e-17 0.928977 0.370138 
vn -4.50752e-17 0.687699 0.725995 
vn -3.48427e-17 0.827689 0.561187 
vn -5.32001e-17 0.515554 0.856857 
vn -4.50752e-17 0.687699 0.725995 
vn -5.88374e-17 0.319302 0.947653 
vn -5.32001e-17 0.515554 0.856857 
vn -6.17235e-17 0.108119 0.994138 
vn -5.88374e-17 0.319302 0.947653 
vn -6.17235e-17 -0.108119 0.994138 
vn -6.20875e-17 -1.22465e-16 1 
vn -6.17235e-17 0.108119 0.994138 
vn -5.88374e-17 -0.319302 0.947653 
vn -6.17235e-17 -0.108119 0.994138 
vn -5.32001e-17 -0.515554 0.856857 
vn -5.88374e-17 -0.319302 0.947653 
vn -4.50752e-17 -0.687699 0.725995 
vn -5.32001e-17 -0.515554 0.856857 
vn -3.48427e-17 -0.827689 0.561187 
vn -4.50752e-17 -0.687699 0.725995 
vn -2.29809e-17 -0.928977 0.370138 
vn -3.48427e-17 -0.827689 0.561187 
vn -1.00446e-17 -0.986827 0.161782 
vn -2.29809e-17 -0.928977 0.370138 
vn 3.36135e-18 -0.998533 -0.0541389 
vn -1.00446e-17 -0.986827 0.161782 
vn 1.66102e-17 -0.96355 -0.267528 
vn 3.36135e-18 -0.998533 -0.0541389 
vn 2.90823e-17 -0.883512 -0.468408 
vn 1.66102e-17 -0.96355 -0.267528 
vn 4.01946e-17 -0.762162 -0.647386 
vn 2.90823e-17 -0.883512 -0.468408 
vn 4.94274e-17 -0.605174 -0.796093 
vn 4.01946e-17 -0.762162 -0.647386 
vn 5.6349e-17 -0.419889 -0.907575 
vn 4.94274e-17 -0.605174 -0.796093 
vn 6.06359e-17 -0.21497 -0.976621 
vn 5.6349e-17 -0.419889 -0.907575 
vn 1 0 6.20875e-17 
vn -1 0 -6.20875e-17 
vn 0 0 -1 
vn 0 0 1 
vn 0 1 0 
vn 0 -1 0 
vn 6.06359e-17 0.21497 -0.976621 
vn 6.20875e-17 2.44929e-16 -1 
vn 5.6349e-17 0.419889 -0.907575 
vn 6.06359e-17 0.21497 -0.976621 
vn 4.94274e-17 0.605174 -0.796093 
vn 5.6349e-17 0.419889 -0.907575 
vn 4.01946e-17 0.762162 -0.647386 
vn 4.94274e-17 0.605174 -0.796093 
vn 2.90823e-17 0.883512 -0.468408 
vn 4.01946e-17 0.762162 -0.647386 
vn 1.66102e-17 0.96355 -0.267528 
vn 2.90823e-17 0.883512 -0.468408 
vn 3.36135e-18 0.998533 -0.0541389 
vn 1.66102e-17 0.96355 -0.267528 
vn -1.00446e-17 0.986827 0.161782 
vn 3.36135e-18 0.998533 -0.0541389 
vn -2.29809e-17 0.928977 0.370138 
vn -1.00446e-17 0.986827 0.161782 
vn -3.48427e-17 0.827689 0.561187 
vn -2.29809e-17 0.928977 0.370138 
vn -4.50752e-17 0.687699 0.725995 
vn -3.48427e-17 0.827689 0.561187 
vn -5.32001e-17 0.515554 0.856857 
vn -4.50752e-17 0.687699 0.725995 
vn -5.88374e-17 0.319302 0.947653 
vn -5.32001e-17 0.515554 0.856857 
vn -6.17235e-17 0.108119 0.994138 
vn -5.88374e-17 0.319302 0.947653 
vn -6.17235e-17 -0.108119 0.994138 
vn -6.20875e-17 -1.22465e-16 1 
vn -6.17235e-17 0.108119 0.994138 
vn -5.88374e-17 -0.319302 0.947653 
vn -6.17235e-17 -0.108119 0.994138 
vn -5.32001e-17 -0.515554 0.856857 
vn -5.88374e-17 -0.319302 0.947653 
vn -4.50752e-17 -0.687699 0.725995 
vn -5.32001e-17 -0.515554 0.856857 
vn -3.48427e-17 -0.827689 0.561187 
vn -4.50752e-17 -0.687699 0.725995 
vn -2.29809e-17 -0.928977 0.370138 
vn -3.48427e-17 -0.827689 0.561187 
vn -1.00446e-17 -0.986827 0.161782 
vn -2.29809e-17 -0.928977 0.370138 
vn 3.36135e-18 -0.998533 -0.0541389 
vn -1.00446e-17 -0.986827 0.161782 
vn 1.66102e-17 -0.96355 -0.267528 
vn 3.36135e-18 -0.998533 -0.0541389 
vn 2.90823e-17 -0.883512 -0.468408 
vn 1.66102e-17 -0.96355 -0.267528 
vn 4.01946e-17 -0.762162 -0.647386 
vn 2.90823e-17 -0.883512 -0.468408 
vn 4.94274e-17 -0.605174 -0.796093 
vn 4.01946e-17 -0.762162 -0.647386 
vn 5.6349e-17 -0.419889 -0.907575 
vn 4.94274e-17 -0.605174 -0.796093 
vn 6.06359e-17 -0.21497 -0.976621 
vn 5.6349e-17 -0.419889 -0.907575 
usemtl 0.917647_0.917647_0.917647_0.000000_0.000000
o mesh0
f 1//1 2//2 3//2 
f 4//3 1//1 5//4 
f 6//5 4//3 7//6 
f 8//7 6//5 9//8 
f 10//9 8//7 11//10 
f 12//11 10//9 13//12 
f 14//13 12//11 15//14 
f 16//15 14//13 17//16 
f 18//17 16//15 19//18 
f 20//19 18//17 21//20 
f 22//21 20//19 23//22 
f 24//23 22//21 25//24 
f 26//25 24//23 27//26 
f 28//27 26//25 29//28 
f 30//29 28//27 31//30 
f 28//27 32//31 31//30 
f 33//32 30//29 34//33 
f 35//34 33//32 36//35 
f 37//36 35//34 38//37 
f 39//38 37//36 40//39 
f 41//40 39//38 42//41 
f 43//42 41//40 44//43 
f 45//44 43//42 46//45 
f 47//46 45//44 48//47 
f 49//48 47//46 50//49 
f 51//50 49//48 52//51 
f 53//52 51//50 54//53 
f 55//54 53//52 56//55 
f 57//56 55//54 58//57 
f 2//2 57//56 59//56 
f 59//56 3//2 2//2 
f 58//57 59//56 57//56 
f 56//55 58//57 55//54 
f 54//53 56//55 53//52 
f 52//51 54//53 51//50 
f 50//49 52//51 49//48 
f 48//47 50//49 47//46 
f 46//45 48//47 45//44 
f 44//43 46//45 43//42 
f 42//41 44//43 41//40 
f 40//39 42//41 39//38 
f 38//37 40//39 37//36 
f 36//35 38//37 35//34 
f 34//33 36//35 33//32 
f 31//30 34//33 30//29 
f 29//28 32//31 28//27 
f 27//26 29//28 26//25 
f 25//24 27//26 24//23 
f 23//22 25//24 22//21 
f 21//20 23//22 20//19 
f 19//18 21//20 18//17 
f 17//16 19//18 16//15 
f 15//14 17//16 14//13 
f 13//12 15//14 12//11 
f 11//10 13//12 10//9 
f 9//8 11//10 8//7 
f 7//6 9//8 6//5 
f 5//4 7//6 4//3 
f 3//2 5//4 1//1 
o mesh1
f 60//58 46//58 44//58 
f 44//58 61//58 60//58 
f 60//58 50//58 48//58 
f 60//58 56//58 54//58 
f 62//58 23//58 21//58 
f 48//58 46//58 60//58 
f 54//58 52//58 60//58 
f 63//58 13//58 11//58 
f 63//58 19//58 17//58 
f 21//58 63//58 62//58 
f 61//58 64//58 65//58 
f 61//58 66//58 67//58 
f 52//58 50//58 60//58 
f 63//58 15//58 13//58 
f 21//58 19//58 63//58 
f 32//58 62//58 68//58 
f 67//58 64//58 61//58 
f 36//58 69//58 66//58 
f 44//58 42//58 61//58 
f 17//58 15//58 63//58 
f 62//58 29//58 27//58 
f 62//58 70//58 68//58 
f 66//58 61//58 36//58 
f 36//58 71//58 72//58 
f 31//58 73//58 74//58 
f 61//58 40//58 38//58 
f 60//58 58//58 56//58 
f 63//58 5//58 3//58 
f 11//58 9//58 63//58 
f 27//58 25//58 62//58 
f 68//58 31//58 32//58 
f 62//58 75//58 76//58 
f 65//58 77//58 61//58 
f 36//58 78//58 71//58 
f 79//58 36//58 34//58 
f 31//58 80//58 73//58 
f 42//58 40//58 61//58 
f 60//58 3//58 59//58 
f 63//58 7//58 5//58 
f 25//58 23//58 62//58 
f 76//58 70//58 62//58 
f 61//58 81//58 82//58 
f 72//58 69//58 36//58 
f 34//58 83//58 79//58 
f 31//58 68//58 80//58 
f 59//58 58//58 60//58 
f 9//58 7//58 63//58 
f 62//58 84//58 75//58 
f 62//58 85//58 86//58 
f 77//58 81//58 61//58 
f 34//58 31//58 83//58 
f 31//58 87//58 88//58 
f 74//58 89//58 31//58 
f 3//58 60//58 63//58 
f 86//58 84//58 62//58 
f 62//58 61//58 90//58 
f 79//58 78//58 36//58 
f 89//58 87//58 31//58 
f 32//58 29//58 62//58 
f 90//58 91//58 62//58 
f 88//58 83//58 31//58 
f 91//58 85//58 62//58 
f 61//58 92//58 93//58 
f 38//58 36//58 61//58 
f 82//58 92//58 61//58 
f 93//58 90//58 61//58 
o mesh2
f 33//59 94//59 95//59 
f 33//59 96//59 97//59 
f 96//59 98//59 99//59 
f 96//59 100//59 101//59 
f 102//59 103//59 104//59 
f 102//59 105//59 106//59 
f 96//59 39//59 41//59 
f 97//59 94//59 33//59 
f 101//59 98//59 96//59 
f 106//59 103//59 102//59 
f 107//59 108//59 105//59 
f 109//59 107//59 14//59 
f 110//59 49//59 51//59 
f 110//59 43//59 45//59 
f 41//59 110//59 96//59 
f 99//59 97//59 96//59 
f 111//59 16//59 18//59 
f 105//59 102//59 107//59 
f 107//59 112//59 113//59 
f 107//59 12//59 14//59 
f 107//59 6//59 8//59 
f 110//59 47//59 49//59 
f 41//59 43//59 110//59 
f 28//59 114//59 115//59 
f 96//59 116//59 100//59 
f 111//59 14//59 16//59 
f 104//59 117//59 102//59 
f 107//59 118//59 112//59 
f 14//59 111//59 109//59 
f 8//59 10//59 107//59 
f 45//59 47//59 110//59 
f 96//59 33//59 35//59 
f 114//59 28//59 30//59 
f 115//59 26//59 28//59 
f 95//59 119//59 33//59 
f 96//59 120//59 121//59 
f 18//59 20//59 111//59 
f 102//59 122//59 123//59 
f 113//59 108//59 107//59 
f 10//59 12//59 107//59 
f 110//59 57//59 2//59 
f 51//59 53//59 110//59 
f 35//59 37//59 96//59 
f 115//59 111//59 26//59 
f 121//59 116//59 96//59 
f 20//59 22//59 111//59 
f 96//59 102//59 124//59 
f 117//59 122//59 102//59 
f 107//59 4//59 6//59 
f 110//59 55//59 57//59 
f 37//59 39//59 96//59 
f 119//59 114//59 33//59 
f 22//59 24//59 111//59 
f 124//59 125//59 96//59 
f 109//59 118//59 107//59 
f 107//59 2//59 1//59 
f 53//59 55//59 110//59 
f 24//59 26//59 111//59 
f 102//59 126//59 124//59 
f 1//59 4//59 107//59 
f 30//59 33//59 114//59 
f 123//59 126//59 102//59 
f 125//59 120//59 96//59 
f 2//59 107//59 110//59 
o mesh3
f 61//60 62//60 102//60 
f 102//60 96//60 61//60 
o mesh4
f 110//61 107//61 63//61 
f 63//61 60//61 110//61 
o mesh5
f 110//62 60//62 61//62 
f 61//62 96//62 110//62 
o mesh6
f 102//63 62//63 63//63 
f 63//63 107//63 102//63 
o mesh7
f 109//64 111//65 83//65 
f 118//66 109//64 88//67 
f 112//68 118//66 87//69 
f 113//70 112//68 89//71 
f 108//72 113//70 74//73 
f 105//74 108//72 73//75 
f 106//76 105//74 80//77 
f 103//78 106//76 68//79 
f 104//80 103//78 70//81 
f 117//82 104//80 76//83 
f 122//84 117//82 75//85 
f 123//86 122//84 84//87 
f 126//88 123//86 86//89 
f 124//90 126//88 85//91 
f 125//92 124//90 90//93 
f 124//90 91//94 90//93 
f 120//95 125//92 93//96 
f 121//97 120//95 92//98 
f 116//99 121//97 82//100 
f 100//101 116//99 81//102 
f 101//103 100//101 77//104 
f 98//105 101//103 65//106 
f 99//107 98//105 64//108 
f 97//109 99//107 67//110 
f 94//111 97//109 66//112 
f 95//113 94//111 69//114 
f 119//115 95//113 72//116 
f 114//117 119//115 71//118 
f 115//119 114//117 78//120 
f 111//65 115//119 79//119 
f 79//119 83//65 111//65 
f 78//120 79//119 115//119 
f 71//118 78//120 114//117 
f 72//116 71//118 119//115 
f 69//114 72//116 95//113 
f 66//112 69//114 94//111 
f 67//110 66//112 97//109 
f 64//108 67//110 99//107 
f 65//106 64//108 98//105 
f 77//104 65//106 101//103 
f 81//102 77//104 100//101 
f 82//100 81//102 116//99 
f 92//98 82//100 121//97 
f 93//96 92//98 120//95 
f 90//93 93//96 125//92 
f 85//91 91//94 124//90 
f 86//89 85//91 126//88 
f 84//87 86//89 123//86 
f 75//85 84//87 122//84 
f 76//83 75//85 117//82 
f 70//81 76//83 104//80 
f 68//79 70//81 103//78 
f 80//77 68//79 106//76 
f 73//75 80//77 105//74 
f 74//73 73//75 108//72 
f 89//71 74//73 113//70 
f 87//69 89//71 112//68 
f 88//67 87//69 118//66 
f 83//65 88//67 109//64 
