# OBJ generated by ONSHAPE BY PTC INC, 1.203 Units = meters
mtllib claw robot - generator wheel.mtl
g generator wheel
v 0.0569199 0.0254 -0.00512289 
v 0.0550905 0.0254 -0.015204 
v 0.0514904 0.0254 -0.0247965 
v 0.0462353 0.0254 -0.0335919 
v 0.0394942 0.0254 -0.0413077 
v 0.0314838 0.0254 -0.0476959 
v 0.0224614 0.0254 -0.052551 
v 0.0127171 0.0254 -0.0557171 
v 0.00256403 0.0254 -0.0570925 
v -0.00767143 0.0254 -0.0566328 
v -0.0176603 0.0254 -0.0543529 
v -0.0270816 0.0254 -0.050326 
v -0.0356324 0.0254 -0.0446817 
v -0.043038 0.0254 -0.0376012 
v -0.0490603 0.0254 -0.0293122 
v -0.0535058 0.0254 -0.0200811 
v -0.0562316 0.0254 -0.0102045 
v -0.05715 0.0254 -3.49943e-18 
v -0.0562316 0.0254 0.0102045 
v -0.0535058 0.0254 0.0200811 
v -0.0490603 0.0254 0.0293122 
v -0.043038 0.0254 0.0376012 
v -0.0356324 0.0254 0.0446817 
v -0.0270816 0.0254 0.050326 
v -0.0176603 0.0254 0.0543529 
v -0.00767143 0.0254 0.0566328 
v 0.00256403 0.0254 0.0570925 
v 0.0127171 0.0254 0.0557171 
v 0.0224614 0.0254 0.052551 
v 0.0314838 0.0254 0.0476959 
v 0.0394942 0.0254 0.0413077 
v 0.0462353 0.0254 0.0335919 
v 0.0514904 0.0254 0.0247965 
v 0.0550905 0.0254 0.015204 
v 0.0569199 0.0254 0.00512289 
v 0.05715 0.0254 -2.4496e-17 
v 0 0.0254 -3.49943e-18 
v -0.05715 0 -3.49943e-18 
v -0.0562316 0 -0.0102045 
v -0.0535058 0 -0.0200811 
v -0.0490603 0 -0.0293122 
v -0.043038 0 -0.0376012 
v -0.0356324 0 -0.0446817 
v -0.0270816 0 -0.050326 
v -0.0176603 0 -0.0543529 
v -0.00767143 0 -0.0566328 
v 0.00256403 0 -0.0570925 
v 0.0127171 0 -0.0557171 
v 0.0224614 0 -0.052551 
v 0.0314838 0 -0.0476959 
v 0.0394942 0 -0.0413077 
v 0.0462353 0 -0.0335919 
v 0.0514904 0 -0.0247965 
v 0.0550905 0 -0.015204 
v 0.0569199 0 0.00512289 
v 0.05715 0 -1.04983e-17 
v 0.0569199 0 -0.00512289 
v 0.0550905 0 0.015204 
v 0.0514904 0 0.0247965 
v 0.0462353 0 0.0335919 
v 0.0394942 0 0.0413077 
v 0.0314838 0 0.0476959 
v 0.0224614 0 0.052551 
v 0.0127171 0 0.0557171 
v 0.00256403 0 0.0570925 
v -0.00767143 0 0.0566328 
v -0.0176603 0 0.0543529 
v -0.0270816 0 0.050326 
v -0.0356324 0 0.0446817 
v -0.043038 0 0.0376012 
v -0.0490603 0 0.0293122 
v -0.0535058 0 0.0200811 
v -0.0562316 0 0.0102045 
v 0.00822181 0 -0.00967946 
v 0.0124031 0 0.00273012 
v 0.00594879 0 -0.0112206 
v 0.00339761 0 -0.0122371 
v 0.0115262 0 -0.00533259 
v 0.0124031 0 -0.00273012 
v 0.0127 0 -7.77651e-19 
v 0.0115262 0 0.00533259 
v 0.0101104 0 0.00768571 
v 0.00822181 0 0.00967946 
v 0.00594879 0 0.0112206 
v -0.00712708 0 0.0105117 
v -0.00470075 0 0.011798 
v -0.0108821 0 0.00654753 
v -0.0120352 0 0.00405513 
v 0.0101104 0 -0.00768571 
v 0.00339761 0 0.0122371 
v -0.00922014 0 0.00873378 
v -0.0126256 0 0.00137311 
v 0.000687564 0 0.0126814 
v -0.00205463 0 0.0125327 
v -0.0126256 0 -0.00137311 
v -0.00470075 0 -0.011798 
v -0.0120352 0 -0.00405513 
v -0.0108821 0 -0.00654753 
v -0.00712708 0 -0.0105117 
v -0.00922014 0 -0.00873378 
v -0.00205463 0 -0.0125327 
v 0.000687564 0 -0.0126814 
v 0.0127 -0.0508 2.33295e-18 
v 0.0124031 -0.0508 -0.00273012 
v 0.0115262 -0.0508 -0.00533259 
v 0.0101104 -0.0508 -0.00768571 
v 0.00822181 -0.0508 -0.00967946 
v 0.00594879 -0.0508 -0.0112206 
v 0.00339761 -0.0508 -0.0122371 
v 0.000687564 -0.0508 -0.0126814 
v -0.00205463 -0.0508 -0.0125327 
v -0.00470075 -0.0508 -0.011798 
v -0.00712708 -0.0508 -0.0105117 
v -0.00922014 -0.0508 -0.00873378 
v -0.0108821 -0.0508 -0.00654753 
v -0.0120352 -0.0508 -0.00405513 
v -0.0126256 -0.0508 -0.00137311 
v -0.0126256 -0.0508 0.00137311 
v -0.0120352 -0.0508 0.00405513 
v -0.0108821 -0.0508 0.00654753 
v -0.00922014 -0.0508 0.00873378 
v -0.00712708 -0.0508 0.0105117 
v -0.00470075 -0.0508 0.011798 
v -0.00205463 -0.0508 0.0125327 
v 0.000687564 -0.0508 0.0126814 
v 0.00339761 -0.0508 0.0122371 
v 0.00594879 -0.0508 0.0112206 
v 0.00822181 -0.0508 0.00967946 
v 0.0101104 -0.0508 0.00768571 
v 0.0115262 -0.0508 0.00533259 
v 0.0124031 -0.0508 0.00273012 
v 0 -0.0508 -7.77651e-19 
vn 0 1 0 
vn -1 0 0 
vn -0.98393 0 -0.178557 
vn -0.936235 0 -0.351375 
vn -0.858449 0 -0.512899 
vn -0.753071 0 -0.657939 
vn -0.62349 0 -0.781831 
vn -0.473869 0 -0.880596 
vn -0.309017 0 -0.951057 
vn -0.134233 0 -0.99095 
vn 0.0448648 0 -0.998993 
vn 0.222521 0 -0.974928 
vn 0.393025 0 -0.919528 
vn 0.550897 0 -0.834573 
vn 0.691063 0 -0.722795 
vn 0.809017 0 -0.587785 
vn 0.900969 0 -0.433884 
vn 0.963963 0 -0.266037 
vn 0.995974 0 -0.0896393 
vn 0.995974 0 0.0896393 
vn 1 0 -1.22465e-16 
vn 0.995974 0 -0.0896393 
vn 0.963963 0 0.266037 
vn 0.900969 0 0.433884 
vn 0.809017 0 0.587785 
vn 0.691063 0 0.722795 
vn 0.550897 0 0.834573 
vn 0.393025 0 0.919528 
vn 0.222521 0 0.974928 
vn 0.0448648 0 0.998993 
vn -0.134233 0 0.99095 
vn -0.309017 0 0.951057 
vn -0.473869 0 0.880596 
vn -0.62349 0 0.781831 
vn -0.753071 0 0.657939 
vn -0.858449 0 0.512899 
vn -0.936235 0 0.351375 
vn -0.98393 0 0.178557 
vn 0 -1 0 
vn 1 0 0 
vn 0.976621 0 -0.21497 
vn 0.907575 0 -0.419889 
vn 0.796093 0 -0.605174 
vn 0.647386 0 -0.762162 
vn 0.468408 0 -0.883512 
vn 0.267528 0 -0.96355 
vn 0.0541389 0 -0.998533 
vn -0.161782 0 -0.986827 
vn -0.370138 0 -0.928977 
vn -0.561187 0 -0.827689 
vn -0.725995 0 -0.687699 
vn -0.856857 0 -0.515554 
vn -0.947653 0 -0.319302 
vn -0.994138 0 -0.108119 
vn -0.994138 0 0.108119 
vn -0.947653 0 0.319302 
vn -0.856857 0 0.515554 
vn -0.725995 0 0.687699 
vn -0.561187 0 0.827689 
vn -0.370138 0 0.928977 
vn -0.161782 0 0.986827 
vn 0.0541389 0 0.998533 
vn 0.267528 0 0.96355 
vn 0.468408 0 0.883512 
vn 0.647386 0 0.762162 
vn 0.796093 0 0.605174 
vn 0.907575 0 0.419889 
vn 0.976621 0 0.21497 
vn 0 -1 0 
usemtl 0.498039_0.498039_0.498039_0.000000_0.000000
o mesh0
f 37//1 1//1 2//1 
f 2//1 3//1 37//1 
f 3//1 4//1 37//1 
f 4//1 5//1 37//1 
f 5//1 6//1 37//1 
f 6//1 7//1 37//1 
f 7//1 8//1 37//1 
f 8//1 9//1 37//1 
f 9//1 10//1 37//1 
f 10//1 11//1 37//1 
f 11//1 12//1 37//1 
f 12//1 13//1 37//1 
f 13//1 14//1 37//1 
f 14//1 15//1 37//1 
f 15//1 16//1 37//1 
f 16//1 17//1 37//1 
f 17//1 18//1 37//1 
f 18//1 19//1 37//1 
f 19//1 20//1 37//1 
f 20//1 21//1 37//1 
f 21//1 22//1 37//1 
f 22//1 23//1 37//1 
f 23//1 24//1 37//1 
f 24//1 25//1 37//1 
f 25//1 26//1 37//1 
f 26//1 27//1 37//1 
f 27//1 28//1 37//1 
f 28//1 29//1 37//1 
f 29//1 30//1 37//1 
f 30//1 31//1 37//1 
f 31//1 32//1 37//1 
f 32//1 33//1 37//1 
f 33//1 34//1 37//1 
f 34//1 35//1 37//1 
f 35//1 36//1 37//1 
f 36//1 1//1 37//1 
o mesh1
f 38//2 18//2 17//3 
f 39//3 17//3 16//4 
f 40//4 16//4 15//5 
f 41//5 15//5 14//6 
f 42//6 14//6 13//7 
f 43//7 13//7 12//8 
f 44//8 12//8 11//9 
f 45//9 11//9 10//10 
f 46//10 10//10 9//11 
f 47//11 9//11 8//12 
f 48//12 8//12 7//13 
f 49//13 7//13 6//14 
f 50//14 6//14 5//15 
f 51//15 5//15 4//16 
f 52//16 4//16 3//17 
f 53//17 3//17 2//18 
f 54//18 2//18 1//19 
f 35//20 55//20 56//21 
f 57//22 1//19 36//21 
f 36//21 56//21 57//22 
f 55//20 35//20 34//23 
f 58//23 34//23 33//24 
f 59//24 33//24 32//25 
f 60//25 32//25 31//26 
f 61//26 31//26 30//27 
f 62//27 30//27 29//28 
f 63//28 29//28 28//29 
f 64//29 28//29 27//30 
f 65//30 27//30 26//31 
f 66//31 26//31 25//32 
f 67//32 25//32 24//33 
f 68//33 24//33 23//34 
f 69//34 23//34 22//35 
f 70//35 22//35 21//36 
f 71//36 21//36 20//37 
f 72//37 20//37 19//38 
f 73//38 19//38 18//2 
f 18//2 38//2 73//38 
f 19//38 73//38 72//37 
f 20//37 72//37 71//36 
f 21//36 71//36 70//35 
f 22//35 70//35 69//34 
f 23//34 69//34 68//33 
f 24//33 68//33 67//32 
f 25//32 67//32 66//31 
f 26//31 66//31 65//30 
f 27//30 65//30 64//29 
f 28//29 64//29 63//28 
f 29//28 63//28 62//27 
f 30//27 62//27 61//26 
f 31//26 61//26 60//25 
f 32//25 60//25 59//24 
f 33//24 59//24 58//23 
f 34//23 58//23 55//20 
f 56//21 36//21 35//20 
f 1//19 57//22 54//18 
f 2//18 54//18 53//17 
f 3//17 53//17 52//16 
f 4//16 52//16 51//15 
f 5//15 51//15 50//14 
f 6//14 50//14 49//13 
f 7//13 49//13 48//12 
f 8//12 48//12 47//11 
f 9//11 47//11 46//10 
f 10//10 46//10 45//9 
f 11//9 45//9 44//8 
f 12//8 44//8 43//7 
f 13//7 43//7 42//6 
f 14//6 42//6 41//5 
f 15//5 41//5 40//4 
f 16//4 40//4 39//3 
f 17//3 39//3 38//2 
o mesh2
f 50//39 51//39 74//39 
f 55//39 58//39 75//39 
f 49//39 76//39 77//39 
f 76//39 49//39 50//39 
f 52//39 53//39 78//39 
f 54//39 79//39 78//39 
f 57//39 80//39 79//39 
f 80//39 56//39 55//39 
f 58//39 59//39 81//39 
f 60//39 82//39 81//39 
f 61//39 83//39 82//39 
f 62//39 84//39 83//39 
f 68//39 85//39 86//39 
f 70//39 71//39 87//39 
f 72//39 88//39 87//39 
f 74//39 76//39 50//39 
f 51//39 52//39 89//39 
f 78//39 53//39 54//39 
f 79//39 54//39 57//39 
f 81//39 75//39 58//39 
f 82//39 60//39 61//39 
f 83//39 61//39 62//39 
f 63//39 64//39 90//39 
f 86//39 67//39 68//39 
f 69//39 70//39 91//39 
f 87//39 71//39 72//39 
f 73//39 92//39 88//39 
f 89//39 74//39 51//39 
f 57//39 56//39 80//39 
f 81//39 59//39 60//39 
f 90//39 84//39 63//39 
f 64//39 65//39 93//39 
f 66//39 94//39 93//39 
f 91//39 85//39 69//39 
f 88//39 72//39 73//39 
f 38//39 39//39 95//39 
f 44//39 45//39 96//39 
f 78//39 89//39 52//39 
f 62//39 63//39 84//39 
f 93//39 65//39 66//39 
f 67//39 86//39 94//39 
f 87//39 91//39 70//39 
f 92//39 73//39 38//39 
f 39//39 40//39 97//39 
f 40//39 41//39 98//39 
f 43//39 99//39 100//39 
f 99//39 43//39 44//39 
f 75//39 80//39 55//39 
f 94//39 66//39 67//39 
f 95//39 92//39 38//39 
f 98//39 97//39 40//39 
f 42//39 100//39 98//39 
f 96//39 99//39 44//39 
f 93//39 90//39 64//39 
f 97//39 95//39 39//39 
f 100//39 42//39 43//39 
f 45//39 46//39 101//39 
f 68//39 69//39 85//39 
f 101//39 96//39 45//39 
f 98//39 41//39 42//39 
f 46//39 47//39 102//39 
f 48//39 77//39 102//39 
f 102//39 101//39 46//39 
f 77//39 48//39 49//39 
f 102//39 47//39 48//39 
o mesh3
f 80//40 103//40 104//41 
f 79//41 104//41 105//42 
f 78//42 105//42 106//43 
f 89//43 106//43 107//44 
f 74//44 107//44 108//45 
f 76//45 108//45 109//46 
f 77//46 109//46 110//47 
f 102//47 110//47 111//48 
f 101//48 111//48 112//49 
f 96//49 112//49 113//50 
f 99//50 113//50 114//51 
f 100//51 114//51 115//52 
f 98//52 115//52 116//53 
f 97//53 116//53 117//54 
f 95//54 117//54 118//55 
f 92//55 118//55 119//56 
f 88//56 119//56 120//57 
f 87//57 120//57 121//58 
f 91//58 121//58 122//59 
f 85//59 122//59 123//60 
f 86//60 123//60 124//61 
f 94//61 124//61 125//62 
f 93//62 125//62 126//63 
f 90//63 126//63 127//64 
f 84//64 127//64 128//65 
f 83//65 128//65 129//66 
f 82//66 129//66 130//67 
f 81//67 130//67 131//68 
f 75//68 131//68 103//40 
f 103//40 80//40 75//68 
f 131//68 75//68 81//67 
f 130//67 81//67 82//66 
f 129//66 82//66 83//65 
f 128//65 83//65 84//64 
f 127//64 84//64 90//63 
f 126//63 90//63 93//62 
f 125//62 93//62 94//61 
f 124//61 94//61 86//60 
f 123//60 86//60 85//59 
f 122//59 85//59 91//58 
f 121//58 91//58 87//57 
f 120//57 87//57 88//56 
f 119//56 88//56 92//55 
f 118//55 92//55 95//54 
f 117//54 95//54 97//53 
f 116//53 97//53 98//52 
f 115//52 98//52 100//51 
f 114//51 100//51 99//50 
f 113//50 99//50 96//49 
f 112//49 96//49 101//48 
f 111//48 101//48 102//47 
f 110//47 102//47 77//46 
f 109//46 77//46 76//45 
f 108//45 76//45 74//44 
f 107//44 74//44 89//43 
f 106//43 89//43 78//42 
f 105//42 78//42 79//41 
f 104//41 79//41 80//40 
o mesh4
f 132//69 131//69 130//69 
f 130//69 129//69 132//69 
f 129//69 128//69 132//69 
f 128//69 127//69 132//69 
f 127//69 126//69 132//69 
f 126//69 125//69 132//69 
f 125//69 124//69 132//69 
f 124//69 123//69 132//69 
f 123//69 122//69 132//69 
f 122//69 121//69 132//69 
f 121//69 120//69 132//69 
f 120//69 119//69 132//69 
f 119//69 118//69 132//69 
f 118//69 117//69 132//69 
f 117//69 116//69 132//69 
f 116//69 115//69 132//69 
f 115//69 114//69 132//69 
f 114//69 113//69 132//69 
f 113//69 112//69 132//69 
f 112//69 111//69 132//69 
f 111//69 110//69 132//69 
f 110//69 109//69 132//69 
f 109//69 108//69 132//69 
f 108//69 107//69 132//69 
f 107//69 106//69 132//69 
f 106//69 105//69 132//69 
f 105//69 104//69 132//69 
f 104//69 103//69 132//69 
f 103//69 131//69 132//69 
