# OBJ generated by ONSHAPE BY PTC INC, 1.203 Units = meters
mtllib claw robot - gear.mtl
g gear
v 0.35991 0.00635 -0.00411933 
v 0.358139 0.00635 -0.0121654 
v 0.35468 0.00635 -0.0196426 
v 0.349694 0.00635 -0.0262013 
v 0.343415 0.00635 -0.031535 
v 0.336136 0.00635 -0.035394 
v 0.328197 0.00635 -0.0375981 
v 0.319971 0.00635 -0.0380441 
v 0.311841 0.00635 -0.0367113 
v 0.304187 0.00635 -0.0336618 
v 0.297368 0.00635 -0.0290384 
v 0.291702 0.00635 -0.0230571 
v 0.287455 0.00635 -0.0159978 
v 0.284824 0.00635 -0.00819037 
v 0.283934 0.00635 -2.33295e-18 
v 0.284824 0.00635 0.00819037 
v 0.287455 0.00635 0.0159978 
v 0.291702 0.00635 0.0230571 
v 0.297368 0.00635 0.0290384 
v 0.304187 0.00635 0.0336618 
v 0.311841 0.00635 0.0367113 
v 0.319971 0.00635 0.0380441 
v 0.328197 0.00635 0.0375981 
v 0.336136 0.00635 0.035394 
v 0.343415 0.00635 0.031535 
v 0.349694 0.00635 0.0262013 
v 0.35468 0.00635 0.0196426 
v 0.358139 0.00635 0.0121654 
v 0.35991 0.00635 0.00411933 
v 0.360134 0.00635 -1.63307e-17 
v 0.322034 0.00635 -2.33295e-18 
v 0.283934 0 -2.33295e-18 
v 0.284824 0 -0.00819037 
v 0.287455 0 -0.0159978 
v 0.291702 0 -0.0230571 
v 0.297368 0 -0.0290384 
v 0.304187 0 -0.0336618 
v 0.311841 0 -0.0367113 
v 0.319971 0 -0.0380441 
v 0.328197 0 -0.0375981 
v 0.336136 0 -0.035394 
v 0.343415 0 -0.031535 
v 0.349694 0 -0.0262013 
v 0.35468 0 -0.0196426 
v 0.358139 0 -0.0121654 
v 0.35991 0 0.00411933 
v 0.360134 0 -6.99886e-18 
v 0.35991 0 -0.00411933 
v 0.358139 0 0.0121654 
v 0.35468 0 0.0196426 
v 0.349694 0 0.0262013 
v 0.343415 0 0.031535 
v 0.336136 0 0.035394 
v 0.328197 0 0.0375981 
v 0.319971 0 0.0380441 
v 0.311841 0 0.0367113 
v 0.304187 0 0.0336618 
v 0.297368 0 0.0290384 
v 0.291702 0 0.0230571 
v 0.287455 0 0.0159978 
v 0.284824 0 0.00819037 
v 0.322034 0 -2.33295e-18 
vn 0 1 0 
vn -1 0 0 
vn -0.976621 0 -0.21497 
vn -0.907575 0 -0.419889 
vn -0.796093 0 -0.605174 
vn -0.647386 0 -0.762162 
vn -0.468408 0 -0.883512 
vn -0.267528 0 -0.96355 
vn -0.0541389 0 -0.998533 
vn 0.161782 0 -0.986827 
vn 0.370138 0 -0.928977 
vn 0.561187 0 -0.827689 
vn 0.725995 0 -0.687699 
vn 0.856857 0 -0.515554 
vn 0.947653 0 -0.319302 
vn 0.994138 0 -0.108119 
vn 0.994138 0 0.108119 
vn 1 0 -1.22465e-16 
vn 0.994138 0 -0.108119 
vn 0.947653 0 0.319302 
vn 0.856857 0 0.515554 
vn 0.725995 0 0.687699 
vn 0.561187 0 0.827689 
vn 0.370138 0 0.928977 
vn 0.161782 0 0.986827 
vn -0.0541389 0 0.998533 
vn -0.267528 0 0.96355 
vn -0.468408 0 0.883512 
vn -0.647386 0 0.762162 
vn -0.796093 0 0.605174 
vn -0.907575 0 0.419889 
vn -0.976621 0 0.21497 
vn 0 -1 0 
usemtl 0.231373_0.380392_0.705882_0.000000_0.000000
o mesh0
f 31//1 1//1 2//1 
f 2//1 3//1 31//1 
f 3//1 4//1 31//1 
f 4//1 5//1 31//1 
f 5//1 6//1 31//1 
f 6//1 7//1 31//1 
f 7//1 8//1 31//1 
f 8//1 9//1 31//1 
f 9//1 10//1 31//1 
f 10//1 11//1 31//1 
f 11//1 12//1 31//1 
f 12//1 13//1 31//1 
f 13//1 14//1 31//1 
f 14//1 15//1 31//1 
f 15//1 16//1 31//1 
f 16//1 17//1 31//1 
f 17//1 18//1 31//1 
f 18//1 19//1 31//1 
f 19//1 20//1 31//1 
f 20//1 21//1 31//1 
f 21//1 22//1 31//1 
f 22//1 23//1 31//1 
f 23//1 24//1 31//1 
f 24//1 25//1 31//1 
f 25//1 26//1 31//1 
f 26//1 27//1 31//1 
f 27//1 28//1 31//1 
f 28//1 29//1 31//1 
f 29//1 30//1 31//1 
f 30//1 1//1 31//1 
o mesh1
f 32//2 15//2 14//3 
f 33//3 14//3 13//4 
f 34//4 13//4 12//5 
f 35//5 12//5 11//6 
f 36//6 11//6 10//7 
f 37//7 10//7 9//8 
f 38//8 9//8 8//9 
f 39//9 8//9 7//10 
f 40//10 7//10 6//11 
f 41//11 6//11 5//12 
f 42//12 5//12 4//13 
f 43//13 4//13 3//14 
f 44//14 3//14 2//15 
f 45//15 2//15 1//16 
f 29//17 46//17 47//18 
f 48//19 1//16 30//18 
f 30//18 47//18 48//19 
f 46//17 29//17 28//20 
f 49//20 28//20 27//21 
f 50//21 27//21 26//22 
f 51//22 26//22 25//23 
f 52//23 25//23 24//24 
f 53//24 24//24 23//25 
f 54//25 23//25 22//26 
f 55//26 22//26 21//27 
f 56//27 21//27 20//28 
f 57//28 20//28 19//29 
f 58//29 19//29 18//30 
f 59//30 18//30 17//31 
f 60//31 17//31 16//32 
f 61//32 16//32 15//2 
f 15//2 32//2 61//32 
f 16//32 61//32 60//31 
f 17//31 60//31 59//30 
f 18//30 59//30 58//29 
f 19//29 58//29 57//28 
f 20//28 57//28 56//27 
f 21//27 56//27 55//26 
f 22//26 55//26 54//25 
f 23//25 54//25 53//24 
f 24//24 53//24 52//23 
f 25//23 52//23 51//22 
f 26//22 51//22 50//21 
f 27//21 50//21 49//20 
f 28//20 49//20 46//17 
f 47//18 30//18 29//17 
f 1//16 48//19 45//15 
f 2//15 45//15 44//14 
f 3//14 44//14 43//13 
f 4//13 43//13 42//12 
f 5//12 42//12 41//11 
f 6//11 41//11 40//10 
f 7//10 40//10 39//9 
f 8//9 39//9 38//8 
f 9//8 38//8 37//7 
f 10//7 37//7 36//6 
f 11//6 36//6 35//5 
f 12//5 35//5 34//4 
f 13//4 34//4 33//3 
f 14//3 33//3 32//2 
o mesh2
f 62//33 46//33 49//33 
f 49//33 50//33 62//33 
f 50//33 51//33 62//33 
f 51//33 52//33 62//33 
f 52//33 53//33 62//33 
f 53//33 54//33 62//33 
f 54//33 55//33 62//33 
f 55//33 56//33 62//33 
f 56//33 57//33 62//33 
f 57//33 58//33 62//33 
f 58//33 59//33 62//33 
f 59//33 60//33 62//33 
f 60//33 61//33 62//33 
f 61//33 32//33 62//33 
f 32//33 33//33 62//33 
f 33//33 34//33 62//33 
f 34//33 35//33 62//33 
f 35//33 36//33 62//33 
f 36//33 37//33 62//33 
f 37//33 38//33 62//33 
f 38//33 39//33 62//33 
f 39//33 40//33 62//33 
f 40//33 41//33 62//33 
f 41//33 42//33 62//33 
f 42//33 43//33 62//33 
f 43//33 44//33 62//33 
f 44//33 45//33 62//33 
f 45//33 48//33 62//33 
f 48//33 47//33 62//33 
f 47//33 46//33 62//33 
