# OBJ generated by ONSHAPE BY PTC INC, 1.203 Units = meters
mtllib claw robot - chassis.mtl
g chassis
v 0.182583 0.29464 0.0277499 
v 0.181706 0.29464 0.0251474 
v 0.18029 0.29464 0.0227943 
v 0.178402 0.29464 0.0208005 
v 0.176129 0.29464 0.0192594 
v 0.173578 0.29464 0.0182429 
v 0.170868 0.29464 0.0177986 
v 0.168125 0.29464 0.0179473 
v 0.165479 0.29464 0.018682 
v 0.163053 0.29464 0.0199683 
v 0.16096 0.29464 0.0217462 
v 0.159298 0.29464 0.0239325 
v 0.158145 0.29464 0.0264249 
v 0.157554 0.29464 0.0291069 
v 0.157554 0.29464 0.0318531 
v 0.158145 0.29464 0.0345351 
v 0.159298 0.29464 0.0370275 
v 0.16096 0.29464 0.0392138 
v 0.163053 0.29464 0.0409917 
v 0.165479 0.29464 0.042278 
v 0.168125 0.29464 0.0430127 
v 0.170868 0.29464 0.0431614 
v 0.173578 0.29464 0.0427171 
v 0.176129 0.29464 0.0417006 
v 0.178402 0.29464 0.0401595 
v 0.18029 0.29464 0.0381657 
v 0.181706 0.29464 0.0358126 
v 0.182583 0.29464 0.0332101 
v 0.18288 0.29464 0.03048 
v 0.17018 0.29464 0.03048 
v 0.182583 0.34544 0.0332101 
v 0.18288 0.34544 0.03048 
v 0.181706 0.34544 0.0358126 
v 0.18029 0.34544 0.0381657 
v 0.178402 0.34544 0.0401595 
v 0.176129 0.34544 0.0417006 
v 0.173578 0.34544 0.0427171 
v 0.170868 0.34544 0.0431614 
v 0.168125 0.34544 0.0430127 
v 0.165479 0.34544 0.042278 
v 0.163053 0.34544 0.0409917 
v 0.16096 0.34544 0.0392138 
v 0.159298 0.34544 0.0370275 
v 0.158145 0.34544 0.0345351 
v 0.157554 0.34544 0.0318531 
v 0.157554 0.34544 0.0291069 
v 0.158145 0.34544 0.0264249 
v 0.159298 0.34544 0.0239325 
v 0.16096 0.34544 0.0217462 
v 0.163053 0.34544 0.0199683 
v 0.165479 0.34544 0.018682 
v 0.168125 0.34544 0.0179473 
v 0.170868 0.34544 0.0177986 
v 0.173578 0.34544 0.0182429 
v 0.176129 0.34544 0.0192594 
v 0.178402 0.34544 0.0208005 
v 0.18029 0.34544 0.0227943 
v 0.181706 0.34544 0.0251474 
v 0.182583 0.34544 0.0277499 
v 0.1905 0.34544 0.01016 
v 0.14986 0.34544 0.01016 
v 0.14986 0.34544 0.0508 
v 0.1905 0.34544 0.0508 
v 0.14986 0.06604 0.01016 
v 0.14986 0.06604 0.0508 
v 0.1905 0.06604 0.0508 
v 0.1905 0.06604 0.01016 
v 0.1905 0.06604 0.2032 
v 0.14986 0.06604 0.2032 
v 0.14986 0.0254 0.2032 
v 0.1905 0.0254 0.2032 
v 0.14986 0.0520328 0.165787 
v 0.14986 0.0517376 0.167128 
v 0.14986 0.0517376 0.163072 
v 0.14986 0.0520328 0.164413 
v 0.14986 0.051161 0.168374 
v 0.14986 0.051161 0.161826 
v 0.14986 0.0503301 0.160733 
v 0.14986 0.03937 0.1651 
v 0.14986 0.0395185 0.163735 
v 0.14986 0.0503301 0.169467 
v 0.14986 0.0492835 0.170356 
v 0.14986 0.0254 0.0508 
v 0.14986 0.0453762 0.158759 
v 0.14986 0.0399569 0.162434 
v 0.14986 0.0406648 0.161257 
v 0.14986 0.0399569 0.167766 
v 0.14986 0.0395185 0.166465 
v 0.14986 0.0416091 0.16994 
v 0.14986 0.0406648 0.168943 
v 0.14986 0.0480704 0.159201 
v 0.14986 0.0492835 0.159844 
v 0.14986 0.0440212 0.158981 
v 0.14986 0.0467473 0.158834 
v 0.14986 0.0416091 0.16026 
v 0.14986 0.0427456 0.15949 
v 0.14986 0.04572 0.17145 
v 0.14986 0.0480704 0.170999 
v 0.14986 0.0467473 0.171366 
v 0.14986 0.0440212 0.171219 
v 0.14986 0.0427456 0.17071 
v 0.14986 0.0453762 0.171441 
v 0.1905 0.0395185 0.166465 
v 0.1905 0.03937 0.1651 
v 0.1905 0.0399569 0.167766 
v 0.1905 0.0406648 0.168943 
v 0.1905 0.0416091 0.16994 
v 0.1905 0.0427456 0.17071 
v 0.1905 0.0440212 0.171219 
v 0.1905 0.0453762 0.171441 
v 0.1905 0.0467473 0.171366 
v 0.1905 0.0480704 0.170999 
v 0.1905 0.0492835 0.170356 
v 0.1905 0.0503301 0.169467 
v 0.1905 0.051161 0.168374 
v 0.1905 0.0517376 0.167128 
v 0.1905 0.0520328 0.165787 
v 0.1905 0.0520328 0.164413 
v 0.1905 0.0517376 0.163072 
v 0.1905 0.051161 0.161826 
v 0.1905 0.0503301 0.160733 
v 0.1905 0.0492835 0.159844 
v 0.1905 0.0480704 0.159201 
v 0.1905 0.0467473 0.158834 
v 0.1905 0.0453762 0.158759 
v 0.1905 0.0440212 0.158981 
v 0.1905 0.0427456 0.15949 
v 0.1905 0.0416091 0.16026 
v 0.1905 0.0406648 0.161257 
v 0.1905 0.0399569 0.162434 
v 0.1905 0.0395185 0.163735 
v -0.14986 0.06604 0.0508 
v -0.14986 0.0254 0.0508 
v 0.1905 0.0254 -0.2032 
v 0.1905 0.06604 -0.2032 
v 0.1905 0.0520328 -0.183567 
v 0.1905 0.0517376 -0.184908 
v 0.1905 0.0395185 -0.181515 
v 0.1905 0.051161 -0.186154 
v 0.1905 0.051161 -0.179606 
v 0.1905 0.0517376 -0.180852 
v 0.1905 0.0503301 -0.178513 
v 0.1905 0.0440212 -0.176761 
v 0.1905 0.0453762 -0.176539 
v 0.1905 0.0399569 -0.180214 
v 0.1905 0.0406648 -0.179037 
v 0.1905 0.03937 -0.18288 
v 0.1905 0.0399569 -0.185546 
v 0.1905 0.0395185 -0.184245 
v 0.1905 0.0416091 -0.18772 
v 0.1905 0.0406648 -0.186723 
v 0.1905 0.0520328 -0.182193 
v 0.1905 0.0503301 -0.187247 
v 0.1905 0.0492835 -0.188136 
v 0.1905 0.0467473 -0.176614 
v 0.1905 0.0480704 -0.176981 
v 0.1905 0.0440212 -0.188999 
v 0.1905 0.0427456 -0.18849 
v 0.1905 0.0467473 -0.189146 
v 0.1905 0.0453762 -0.189221 
v 0.1905 0.0492835 -0.177624 
v 0.1905 0.0416091 -0.17804 
v 0.1905 0.0427456 -0.17727 
v 0.1905 0.0480704 -0.188779 
v -0.1905 0.03937 -0.18288 
v -0.1905 0.0395185 -0.181515 
v -0.1905 0.0399569 -0.180214 
v -0.1905 0.0406648 -0.179037 
v -0.1905 0.0416091 -0.17804 
v -0.1905 0.0427456 -0.17727 
v -0.1905 0.0440212 -0.176761 
v -0.1905 0.0453762 -0.176539 
v -0.1905 0.04572 -0.17653 
v -0.1905 0.0467473 -0.176614 
v -0.1905 0.0480704 -0.176981 
v -0.1905 0.0492835 -0.177624 
v -0.1905 0.0503301 -0.178513 
v -0.1905 0.051161 -0.179606 
v -0.1905 0.0517376 -0.180852 
v -0.1905 0.0520328 -0.182193 
v -0.1905 0.0520328 -0.183567 
v -0.1905 0.0517376 -0.184908 
v -0.1905 0.051161 -0.186154 
v -0.1905 0.0503301 -0.187247 
v -0.1905 0.0492835 -0.188136 
v -0.1905 0.0480704 -0.188779 
v -0.1905 0.0467473 -0.189146 
v -0.1905 0.0453762 -0.189221 
v -0.1905 0.0440212 -0.188999 
v -0.1905 0.0427456 -0.18849 
v -0.1905 0.0416091 -0.18772 
v -0.1905 0.0406648 -0.186723 
v -0.1905 0.0399569 -0.185546 
v -0.1905 0.0395185 -0.184245 
v -0.1905 0.06604 0.2032 
v -0.1905 0.0520328 0.165787 
v -0.1905 0.0517376 0.167128 
v -0.1905 0.0520328 0.164413 
v -0.1905 0.06604 -0.2032 
v -0.1905 0.051161 0.168374 
v -0.1905 0.0503301 0.169467 
v -0.1905 0.0492835 0.170356 
v -0.1905 0.0254 0.2032 
v -0.1905 0.0440212 0.158981 
v -0.1905 0.0453762 0.158759 
v -0.1905 0.03937 0.1651 
v -0.1905 0.0395185 0.163735 
v -0.1905 0.0254 -0.2032 
v -0.1905 0.051161 0.161826 
v -0.1905 0.0517376 0.163072 
v -0.1905 0.0399569 0.162434 
v -0.1905 0.0406648 0.161257 
v -0.1905 0.0399569 0.167766 
v -0.1905 0.0395185 0.166465 
v -0.1905 0.0416091 0.16994 
v -0.1905 0.0406648 0.168943 
v -0.1905 0.0503301 0.160733 
v -0.1905 0.0480704 0.159201 
v -0.1905 0.0492835 0.159844 
v -0.1905 0.0467473 0.158834 
v -0.1905 0.0416091 0.16026 
v -0.1905 0.0427456 0.15949 
v -0.1905 0.0480704 0.170999 
v -0.1905 0.0467473 0.171366 
v -0.1905 0.04572 0.17145 
v -0.1905 0.0440212 0.171219 
v -0.1905 0.0427456 0.17071 
v -0.1905 0.0453762 0.171441 
v -0.14986 0.06604 0.2032 
v -0.14986 0.0520328 0.164413 
v -0.14986 0.0517376 0.163072 
v -0.14986 0.051161 0.161826 
v -0.14986 0.051161 0.168374 
v -0.14986 0.0517376 0.167128 
v -0.14986 0.0520328 0.165787 
v -0.14986 0.0503301 0.169467 
v -0.14986 0.0503301 0.160733 
v -0.14986 0.0492835 0.159844 
v -0.14986 0.0254 0.2032 
v -0.14986 0.0395185 0.163735 
v -0.14986 0.0480704 0.170999 
v -0.14986 0.0492835 0.170356 
v -0.14986 0.0453762 0.171441 
v -0.14986 0.0399569 0.167766 
v -0.14986 0.0406648 0.168943 
v -0.14986 0.03937 0.1651 
v -0.14986 0.0395185 0.166465 
v -0.14986 0.0399569 0.162434 
v -0.14986 0.0416091 0.16026 
v -0.14986 0.0406648 0.161257 
v -0.14986 0.0480704 0.159201 
v -0.14986 0.0467473 0.158834 
v -0.14986 0.0440212 0.171219 
v -0.14986 0.0467473 0.171366 
v -0.14986 0.0440212 0.158981 
v -0.14986 0.0427456 0.15949 
v -0.14986 0.04572 0.15875 
v -0.14986 0.0416091 0.16994 
v -0.14986 0.0427456 0.17071 
v -0.14986 0.0453762 0.158759 
v 0.14986 0.06604 -0.16256 
v 0.10414 0.06604 -0.2032 
v 0.10414 0.06604 -0.16256 
v 0.14986 0.0254 -0.16256 
v 0.14986 0.0254 0.01016 
v -0.14986 0.0254 0.01016 
v -0.14986 0.0254 -0.16256 
v -0.14986 0.06604 0.01016 
v -0.14986 0.06604 -0.16256 
v -0.10414 0.06604 -0.2032 
v -0.10414 0.06604 -0.16256 
v 0.0635 0.06604 -0.2032 
v 0.10414 0.127 -0.2032 
v 0.0635 0.127 -0.2032 
v -0.0635 0.06604 -0.2032 
v -0.0635 0.127 -0.2032 
v -0.10414 0.127 -0.2032 
v -0.0635 0.06604 -0.16256 
v 0.0635 0.06604 -0.16256 
v -0.10414 0.4064 -0.16256 
v -0.0635 0.4064 -0.16256 
v 0.0635 0.4064 -0.16256 
v 0.10414 0.4064 -0.16256 
v 0.10414 0.4064 -0.2032 
v 0.0635 0.4064 -0.2032 
v 0.10414 0.1905 -0.2032 
v 0.0635 0.1905 -0.2032 
v -0.0635 0.4064 -0.2032 
v -0.10414 0.4064 -0.2032 
v -0.0635 0.1905 -0.2032 
v -0.10414 0.1905 -0.2032 
v 0.10414 0.1905 -0.1778 
v 0.10414 0.127 -0.1778 
v 0.11557 0.1905 -0.1778 
v 0.11557 0.1905 -0.2032 
v 0.11557 0.127 -0.1778 
v 0.11557 0.127 -0.2032 
v 0.09017 0.1524 -0.2286 
v 0.09017 0.1651 -0.2286 
v 0.07747 0.1524 -0.2286 
v 0.07747 0.1651 -0.2286 
v 0.05207 0.1905 -0.2032 
v 0.05207 0.127 -0.2032 
v 0.0635 0.127 -0.1778 
v 0.05207 0.127 -0.1778 
v 0.05207 0.1905 -0.1778 
v 0.0635 0.1905 -0.1778 
v 0.0635 0.358066 -0.181507 
v 0.0635 0.357475 -0.178825 
v 0.0635 0.358066 -0.184253 
v 0.0635 0.356322 -0.189428 
v 0.0635 0.357475 -0.186935 
v 0.0635 0.347495 -0.170347 
v 0.0635 0.344752 -0.170199 
v 0.0635 0.350141 -0.171082 
v 0.0635 0.35466 -0.174146 
v 0.0635 0.352567 -0.172368 
v 0.0635 0.356322 -0.176332 
v 0.0635 0.33533 -0.190566 
v 0.0635 0.337218 -0.192559 
v 0.0635 0.35466 -0.191614 
v 0.0635 0.350141 -0.194678 
v 0.0635 0.352567 -0.193392 
v 0.0635 0.342042 -0.195117 
v 0.0635 0.344752 -0.195561 
v 0.0635 0.339491 -0.194101 
v 0.0635 0.347495 -0.195413 
v 0.0635 0.333914 -0.188213 
v 0.0635 0.33274 -0.18288 
v 0.0635 0.333037 -0.18561 
v 0.0635 0.333914 -0.177547 
v 0.0635 0.333037 -0.18015 
v 0.0635 0.337218 -0.173201 
v 0.0635 0.33533 -0.175194 
v 0.0635 0.342042 -0.170643 
v 0.0635 0.339491 -0.171659 
v -0.0635 0.33274 -0.18288 
v -0.0635 0.333037 -0.18561 
v -0.0635 0.333914 -0.188213 
v -0.0635 0.33533 -0.190566 
v -0.0635 0.337218 -0.192559 
v -0.0635 0.339491 -0.194101 
v -0.0635 0.342042 -0.195117 
v -0.0635 0.344752 -0.195561 
v -0.0635 0.347495 -0.195413 
v -0.0635 0.350141 -0.194678 
v -0.0635 0.352567 -0.193392 
v -0.0635 0.35466 -0.191614 
v -0.0635 0.356322 -0.189428 
v -0.0635 0.357475 -0.186935 
v -0.0635 0.358066 -0.184253 
v -0.0635 0.358066 -0.181507 
v -0.0635 0.357475 -0.178825 
v -0.0635 0.356322 -0.176332 
v -0.0635 0.35466 -0.174146 
v -0.0635 0.352567 -0.172368 
v -0.0635 0.350141 -0.171082 
v -0.0635 0.347495 -0.170347 
v -0.0635 0.344752 -0.170199 
v -0.0635 0.342042 -0.170643 
v -0.0635 0.339491 -0.171659 
v -0.0635 0.337218 -0.173201 
v -0.0635 0.33533 -0.175194 
v -0.0635 0.333914 -0.177547 
v -0.0635 0.333037 -0.18015 
v -0.0635 0.1905 -0.1778 
v -0.0635 0.127 -0.1778 
v -0.05207 0.1905 -0.1778 
v -0.05207 0.1905 -0.2032 
v -0.05207 0.127 -0.1778 
v -0.05207 0.127 -0.2032 
v -0.07747 0.1524 -0.2286 
v -0.07747 0.1651 -0.2286 
v -0.09017 0.1524 -0.2286 
v -0.09017 0.1651 -0.2286 
v -0.11557 0.1905 -0.2032 
v -0.11557 0.127 -0.2032 
v -0.10414 0.1905 -0.1778 
v -0.10414 0.127 -0.1778 
v -0.11557 0.127 -0.1778 
v -0.11557 0.1905 -0.1778 
vn 0 1 0 
vn -0.976621 0 -0.21497 
vn -1 0 -2.44929e-16 
vn -0.907575 0 -0.419889 
vn -0.976621 0 -0.21497 
vn -0.796093 0 -0.605174 
vn -0.907575 0 -0.419889 
vn -0.647386 0 -0.762162 
vn -0.796093 0 -0.605174 
vn -0.468408 0 -0.883512 
vn -0.647386 0 -0.762162 
vn -0.267528 0 -0.96355 
vn -0.468408 0 -0.883512 
vn -0.0541389 0 -0.998533 
vn -0.267528 0 -0.96355 
vn 0.161782 0 -0.986827 
vn -0.0541389 0 -0.998533 
vn 0.370138 0 -0.928977 
vn 0.161782 0 -0.986827 
vn 0.561187 0 -0.827689 
vn 0.370138 0 -0.928977 
vn 0.725995 0 -0.687699 
vn 0.561187 0 -0.827689 
vn 0.856857 0 -0.515554 
vn 0.725995 0 -0.687699 
vn 0.947653 0 -0.319302 
vn 0.856857 0 -0.515554 
vn 0.994138 0 -0.108119 
vn 0.947653 0 -0.319302 
vn 0.994138 0 0.108119 
vn 0.994138 0 -0.108119 
vn 0.947653 0 0.319302 
vn 0.994138 0 0.108119 
vn 0.856857 0 0.515554 
vn 0.947653 0 0.319302 
vn 0.725995 0 0.687699 
vn 0.856857 0 0.515554 
vn 0.561187 0 0.827689 
vn 0.725995 0 0.687699 
vn 0.370138 0 0.928977 
vn 0.561187 0 0.827689 
vn 0.161782 0 0.986827 
vn 0.370138 0 0.928977 
vn -0.0541389 0 0.998533 
vn 0.161782 0 0.986827 
vn -0.267528 0 0.96355 
vn -0.0541389 0 0.998533 
vn -0.468408 0 0.883512 
vn -0.267528 0 0.96355 
vn -0.647386 0 0.762162 
vn -0.468408 0 0.883512 
vn -0.796093 0 0.605174 
vn -0.647386 0 0.762162 
vn -0.907575 0 0.419889 
vn -0.796093 0 0.605174 
vn -0.976621 0 0.21497 
vn -0.907575 0 0.419889 
vn 0 1 0 
vn -1 0 0 
vn 0 0 1 
vn 0 0 -1 
vn 0 1 0 
vn 0 0 1 
vn -1 0 1.82123e-16 
vn 0 0.976621 -0.21497 
vn 0 1 -2.44929e-16 
vn 0 0.907575 -0.419889 
vn 0 0.976621 -0.21497 
vn 0 0.796093 -0.605174 
vn 0 0.907575 -0.419889 
vn 0 0.647386 -0.762162 
vn 0 0.796093 -0.605174 
vn 0 0.468408 -0.883512 
vn 0 0.647386 -0.762162 
vn 0 0.267528 -0.96355 
vn 0 0.468408 -0.883512 
vn 0 0.0541389 -0.998533 
vn 0 0.267528 -0.96355 
vn 0 -0.161782 -0.986827 
vn 0 -1.83697e-16 -1 
vn 0 0.0541389 -0.998533 
vn 0 -0.370138 -0.928977 
vn 0 -0.161782 -0.986827 
vn 0 -0.561187 -0.827689 
vn 0 -0.370138 -0.928977 
vn 0 -0.725995 -0.687699 
vn 0 -0.561187 -0.827689 
vn 0 -0.856857 -0.515554 
vn 0 -0.725995 -0.687699 
vn 0 -0.947653 -0.319302 
vn 0 -0.856857 -0.515554 
vn 0 -0.994138 -0.108119 
vn 0 -0.947653 -0.319302 
vn 0 -0.994138 0.108119 
vn 0 -0.994138 -0.108119 
vn 0 -0.947653 0.319302 
vn 0 -0.994138 0.108119 
vn 0 -0.856857 0.515554 
vn 0 -0.947653 0.319302 
vn 0 -0.725995 0.687699 
vn 0 -0.856857 0.515554 
vn 0 -0.561187 0.827689 
vn 0 -0.725995 0.687699 
vn 0 -0.370138 0.928977 
vn 0 -0.561187 0.827689 
vn 0 -0.161782 0.986827 
vn 0 -0.370138 0.928977 
vn 0 0.0541389 0.998533 
vn 0 -0.161782 0.986827 
vn 0 0.267528 0.96355 
vn 0 0.0541389 0.998533 
vn 0 0.468408 0.883512 
vn 0 0.267528 0.96355 
vn 0 0.647386 0.762162 
vn 0 0.468408 0.883512 
vn 0 0.796093 0.605174 
vn 0 0.647386 0.762162 
vn 0 0.907575 0.419889 
vn 0 0.796093 0.605174 
vn 0 0.976621 0.21497 
vn 0 0.907575 0.419889 
vn 1.38908e-16 0 1 
vn 1 0 0 
vn 0 0.976621 -0.21497 
vn 0 1 -2.44929e-16 
vn 0 0.907575 -0.419889 
vn 0 0.976621 -0.21497 
vn 0 0.796093 -0.605174 
vn 0 0.907575 -0.419889 
vn 0 0.647386 -0.762162 
vn 0 0.796093 -0.605174 
vn 0 0.468408 -0.883512 
vn 0 0.647386 -0.762162 
vn 0 0.267528 -0.96355 
vn 0 0.468408 -0.883512 
vn 0 0.0541389 -0.998533 
vn 0 0.267528 -0.96355 
vn 0 -1.83697e-16 -1 
vn 0 -0.161782 -0.986827 
vn 0 -0.370138 -0.928977 
vn 0 -0.561187 -0.827689 
vn 0 -0.725995 -0.687699 
vn 0 -0.856857 -0.515554 
vn 0 -0.947653 -0.319302 
vn 0 -0.994138 -0.108119 
vn 0 -0.994138 0.108119 
vn 0 -0.947653 0.319302 
vn 0 -0.856857 0.515554 
vn 0 -0.725995 0.687699 
vn 0 -0.561187 0.827689 
vn 0 -0.370138 0.928977 
vn 0 -0.161782 0.986827 
vn 0 0.0541389 0.998533 
vn 0 0.267528 0.96355 
vn 0 0.468408 0.883512 
vn 0 0.647386 0.762162 
vn 0 0.796093 0.605174 
vn 0 0.907575 0.419889 
vn 0 0.976621 0.21497 
vn -1 0 -7.58847e-17 
vn 1 0 -1.82123e-16 
vn 0 0 1 
vn 0 0.976621 -0.21497 
vn 0 1 -2.44929e-16 
vn 0 0.907575 -0.419889 
vn 0 0.976621 -0.21497 
vn 0 0.796093 -0.605174 
vn 0 0.907575 -0.419889 
vn 0 0.647386 -0.762162 
vn 0 0.796093 -0.605174 
vn 0 0.468408 -0.883512 
vn 0 0.647386 -0.762162 
vn 0 0.267528 -0.96355 
vn 0 0.468408 -0.883512 
vn 0 0.0541389 -0.998533 
vn 0 0.267528 -0.96355 
vn 0 -0.161782 -0.986827 
vn 0 -1.83697e-16 -1 
vn 0 0.0541389 -0.998533 
vn 0 -0.370138 -0.928977 
vn 0 -0.161782 -0.986827 
vn 0 -0.561187 -0.827689 
vn 0 -0.370138 -0.928977 
vn 0 -0.725995 -0.687699 
vn 0 -0.561187 -0.827689 
vn 0 -0.856857 -0.515554 
vn 0 -0.725995 -0.687699 
vn 0 -0.947653 -0.319302 
vn 0 -0.856857 -0.515554 
vn 0 -0.994138 -0.108119 
vn 0 -0.947653 -0.319302 
vn 0 -0.994138 0.108119 
vn 0 -0.994138 -0.108119 
vn 0 -0.947653 0.319302 
vn 0 -0.994138 0.108119 
vn 0 -0.856857 0.515554 
vn 0 -0.947653 0.319302 
vn 0 -0.725995 0.687699 
vn 0 -0.856857 0.515554 
vn 0 -0.561187 0.827689 
vn 0 -0.725995 0.687699 
vn 0 -0.370138 0.928977 
vn 0 -0.561187 0.827689 
vn 0 -0.161782 0.986827 
vn 0 -0.370138 0.928977 
vn 0 0.0541389 0.998533 
vn 0 3.06162e-16 1 
vn 0 0.267528 0.96355 
vn 0 0.468408 0.883512 
vn 0 0.647386 0.762162 
vn 0 0.796093 0.605174 
vn 0 0.907575 0.419889 
vn 0 0.976621 0.21497 
vn 0 1 0 
vn -1 0 1.60697e-16 
vn 0 -1 0 
vn -1.27332e-16 0 -1 
vn 1 0 0 
vn 0 1 0 
vn 0 0 -1 
vn 6.07077e-16 0 1 
vn 0 1 0 
vn 0 0 -1 
vn 1 0 0 
vn 0 1 0 
vn 0 -1 0 
vn 0 0 1 
vn 1 2.18548e-16 0 
vn 0.707107 1.54537e-16 -0.707107 
vn 0 0 -1 
vn 0 0.707107 -0.707107 
vn 0 -0.707107 -0.707107 
vn -0.707107 -1.54537e-16 -0.707107 
vn 0 -1 0 
vn 0 1 0 
vn 0 0 1 
vn -1 -2.18548e-16 0 
vn 0 -1 0 
vn 0 -0.976621 -0.21497 
vn 0 -0.907575 -0.419889 
vn 0 -0.796093 -0.605174 
vn 0 -0.647386 -0.762162 
vn 0 -0.468408 -0.883512 
vn 0 -0.267528 -0.96355 
vn 0 -0.0541389 -0.998533 
vn 0 0.161782 -0.986827 
vn 0 0.370138 -0.928977 
vn 0 0.561187 -0.827689 
vn 0 0.725995 -0.687699 
vn 0 0.856857 -0.515554 
vn 0 0.947653 -0.319302 
vn 0 0.994138 -0.108119 
vn 0 0.994138 0.108119 
vn 0 0.947653 0.319302 
vn 0 0.856857 0.515554 
vn 0 0.725995 0.687699 
vn 0 0.561187 0.827689 
vn 0 0.370138 0.928977 
vn 0 0.161782 0.986827 
vn 0 -0.0541389 0.998533 
vn 0 -0.267528 0.96355 
vn 0 -0.468408 0.883512 
vn 0 -0.647386 0.762162 
vn 0 -0.796093 0.605174 
vn 0 -0.907575 0.419889 
vn 0 -0.976621 0.21497 
vn 1 0 0 
vn 0 1 0 
vn 0 -1 0 
vn 0 0 1 
vn 1 -2.18548e-16 0 
vn 0.707107 -1.54537e-16 -0.707107 
vn 0 0 -1 
vn 0 0.707107 -0.707107 
vn 0 -0.707107 -0.707107 
vn -1 0 0 
vn 0 -1 0 
vn 0 0 1 
vn -1 2.18548e-16 0 
vn 0 1 0 
vn -0.707107 1.54537e-16 -0.707107 
usemtl 0.615686_0.811765_0.929412_0.000000_0.000000
o mesh0
f 30//1 1//1 2//1 
f 2//1 3//1 30//1 
f 3//1 4//1 30//1 
f 4//1 5//1 30//1 
f 5//1 6//1 30//1 
f 6//1 7//1 30//1 
f 7//1 8//1 30//1 
f 8//1 9//1 30//1 
f 9//1 10//1 30//1 
f 10//1 11//1 30//1 
f 11//1 12//1 30//1 
f 12//1 13//1 30//1 
f 13//1 14//1 30//1 
f 14//1 15//1 30//1 
f 15//1 16//1 30//1 
f 16//1 17//1 30//1 
f 17//1 18//1 30//1 
f 18//1 19//1 30//1 
f 19//1 20//1 30//1 
f 20//1 21//1 30//1 
f 21//1 22//1 30//1 
f 22//1 23//1 30//1 
f 23//1 24//1 30//1 
f 24//1 25//1 30//1 
f 25//1 26//1 30//1 
f 26//1 27//1 30//1 
f 27//1 28//1 30//1 
f 28//1 29//1 30//1 
f 29//1 1//1 30//1 
o mesh1
f 31//2 32//3 29//3 
f 33//4 31//2 28//5 
f 34//6 33//4 27//7 
f 35//8 34//6 26//9 
f 36//10 35//8 25//11 
f 37//12 36//10 24//13 
f 38//14 37//12 23//15 
f 39//16 38//14 22//17 
f 40//18 39//16 21//19 
f 41//20 40//18 20//21 
f 42//22 41//20 19//23 
f 43//24 42//22 18//25 
f 44//26 43//24 17//27 
f 45//28 44//26 16//29 
f 46//30 45//28 15//31 
f 47//32 46//30 14//33 
f 48//34 47//32 13//35 
f 49//36 48//34 12//37 
f 50//38 49//36 11//39 
f 51//40 50//38 10//41 
f 52//42 51//40 9//43 
f 53//44 52//42 8//45 
f 54//46 53//44 7//47 
f 55//48 54//46 6//49 
f 56//50 55//48 5//51 
f 57//52 56//50 4//53 
f 58//54 57//52 3//55 
f 59//56 58//54 2//57 
f 32//3 59//56 1//56 
f 1//56 29//3 32//3 
f 2//57 1//56 59//56 
f 3//55 2//57 58//54 
f 4//53 3//55 57//52 
f 5//51 4//53 56//50 
f 6//49 5//51 55//48 
f 7//47 6//49 54//46 
f 8//45 7//47 53//44 
f 9//43 8//45 52//42 
f 10//41 9//43 51//40 
f 11//39 10//41 50//38 
f 12//37 11//39 49//36 
f 13//35 12//37 48//34 
f 14//33 13//35 47//32 
f 15//31 14//33 46//30 
f 16//29 15//31 45//28 
f 17//27 16//29 44//26 
f 18//25 17//27 43//24 
f 19//23 18//25 42//22 
f 20//21 19//23 41//20 
f 21//19 20//21 40//18 
f 22//17 21//19 39//16 
f 23//15 22//17 38//14 
f 24//13 23//15 37//12 
f 25//11 24//13 36//10 
f 26//9 25//11 35//8 
f 27//7 26//9 34//6 
f 28//5 27//7 33//4 
f 29//3 28//5 31//2 
o mesh2
f 60//58 56//58 57//58 
f 60//58 53//58 54//58 
f 61//58 52//58 53//58 
f 60//58 55//58 56//58 
f 53//58 60//58 61//58 
f 54//58 55//58 60//58 
f 57//58 58//58 60//58 
f 61//58 50//58 51//58 
f 61//58 62//58 45//58 
f 62//58 43//58 44//58 
f 51//58 52//58 61//58 
f 61//58 48//58 49//58 
f 61//58 46//58 47//58 
f 44//58 45//58 62//58 
f 62//58 41//58 42//58 
f 62//58 39//58 40//58 
f 63//58 33//58 34//58 
f 49//58 50//58 61//58 
f 45//58 46//58 61//58 
f 40//58 41//58 62//58 
f 62//58 63//58 38//58 
f 63//58 36//58 37//58 
f 34//58 35//58 63//58 
f 63//58 60//58 32//58 
f 47//58 48//58 61//58 
f 38//58 39//58 62//58 
f 35//58 36//58 63//58 
f 60//58 59//58 32//58 
f 42//58 43//58 62//58 
f 63//58 31//58 33//58 
f 58//58 59//58 60//58 
f 32//58 31//58 63//58 
f 37//58 38//58 63//58 
o mesh3
f 61//59 64//59 65//59 
f 65//59 62//59 61//59 
o mesh4
f 62//60 65//60 66//60 
f 66//60 63//60 62//60 
o mesh5
f 60//61 67//61 64//61 
f 64//61 61//61 60//61 
o mesh6
f 68//62 66//62 65//62 
f 65//62 69//62 68//62 
o mesh7
f 69//63 70//63 71//63 
f 71//63 68//63 69//63 
o mesh8
f 69//64 72//64 73//64 
f 65//64 74//64 75//64 
f 73//64 76//64 69//64 
f 65//64 77//64 74//64 
f 69//64 75//64 72//64 
f 65//64 78//64 77//64 
f 70//64 79//64 80//64 
f 69//64 81//64 82//64 
f 75//64 69//64 65//64 
f 65//64 83//64 84//64 
f 83//64 85//64 86//64 
f 80//64 83//64 70//64 
f 70//64 87//64 88//64 
f 70//64 89//64 90//64 
f 76//64 81//64 69//64 
f 65//64 91//64 92//64 
f 83//64 93//64 84//64 
f 80//64 85//64 83//64 
f 90//64 87//64 70//64 
f 92//64 78//64 65//64 
f 84//64 94//64 65//64 
f 83//64 95//64 96//64 
f 88//64 79//64 70//64 
f 94//64 91//64 65//64 
f 86//64 95//64 83//64 
f 70//64 69//64 97//64 
f 69//64 98//64 99//64 
f 96//64 93//64 83//64 
f 70//64 100//64 101//64 
f 97//64 102//64 70//64 
f 82//64 98//64 69//64 
f 102//64 100//64 70//64 
f 101//64 89//64 70//64 
f 99//64 97//64 69//64 
o mesh9
f 103//65 104//66 79//66 
f 105//67 103//65 88//68 
f 106//69 105//67 87//70 
f 107//71 106//69 90//72 
f 108//73 107//71 89//74 
f 109//75 108//73 101//76 
f 110//77 109//75 100//78 
f 111//79 110//77 97//80 
f 110//77 102//81 97//80 
f 112//82 111//79 99//83 
f 113//84 112//82 98//85 
f 114//86 113//84 82//87 
f 115//88 114//86 81//89 
f 116//90 115//88 76//91 
f 117//92 116//90 73//93 
f 118//94 117//92 72//95 
f 119//96 118//94 75//97 
f 120//98 119//96 74//99 
f 121//100 120//98 77//101 
f 122//102 121//100 78//103 
f 123//104 122//102 92//105 
f 124//106 123//104 91//107 
f 125//108 124//106 94//109 
f 126//110 125//108 84//111 
f 127//112 126//110 93//113 
f 128//114 127//112 96//115 
f 129//116 128//114 95//117 
f 130//118 129//116 86//119 
f 131//120 130//118 85//121 
f 104//66 131//120 80//120 
f 80//120 79//66 104//66 
f 85//121 80//120 131//120 
f 86//119 85//121 130//118 
f 95//117 86//119 129//116 
f 96//115 95//117 128//114 
f 93//113 96//115 127//112 
f 84//111 93//113 126//110 
f 94//109 84//111 125//108 
f 91//107 94//109 124//106 
f 92//105 91//107 123//104 
f 78//103 92//105 122//102 
f 77//101 78//103 121//100 
f 74//99 77//101 120//98 
f 75//97 74//99 119//96 
f 72//95 75//97 118//94 
f 73//93 72//95 117//92 
f 76//91 73//93 116//90 
f 81//89 76//91 115//88 
f 82//87 81//89 114//86 
f 98//85 82//87 113//84 
f 99//83 98//85 112//82 
f 97//80 99//83 111//79 
f 100//78 102//81 110//77 
f 101//76 100//78 109//75 
f 89//74 101//76 108//73 
f 90//72 89//74 107//71 
f 87//70 90//72 106//69 
f 88//68 87//70 105//67 
f 79//66 88//68 103//65 
o mesh10
f 132//122 133//122 83//122 
f 83//122 65//122 132//122 
o mesh11
f 68//123 71//123 110//123 
f 71//123 109//123 110//123 
f 134//123 129//123 130//123 
f 135//123 136//123 137//123 
f 125//123 134//123 138//123 
f 71//123 108//123 109//123 
f 71//123 105//123 106//123 
f 130//123 71//123 134//123 
f 137//123 139//123 135//123 
f 135//123 140//123 141//123 
f 67//123 142//123 140//123 
f 143//123 144//123 67//123 
f 125//123 145//123 146//123 
f 134//123 147//123 138//123 
f 134//123 148//123 149//123 
f 134//123 150//123 151//123 
f 110//123 111//123 68//123 
f 106//123 107//123 71//123 
f 71//123 104//123 103//123 
f 130//123 131//123 71//123 
f 135//123 152//123 136//123 
f 140//123 135//123 67//123 
f 67//123 125//123 143//123 
f 138//123 145//123 125//123 
f 151//123 148//123 134//123 
f 117//123 67//123 66//123 
f 107//123 108//123 71//123 
f 131//123 104//123 71//123 
f 135//123 153//123 154//123 
f 141//123 152//123 135//123 
f 67//123 155//123 156//123 
f 67//123 124//123 125//123 
f 67//123 122//123 123//123 
f 149//123 147//123 134//123 
f 134//123 157//123 158//123 
f 68//123 116//123 117//123 
f 68//123 112//123 113//123 
f 103//123 105//123 71//123 
f 134//123 127//123 128//123 
f 135//123 159//123 160//123 
f 139//123 153//123 135//123 
f 156//123 161//123 67//123 
f 123//123 124//123 67//123 
f 125//123 162//123 163//123 
f 158//123 150//123 134//123 
f 68//123 115//123 116//123 
f 113//123 114//123 68//123 
f 128//123 129//123 134//123 
f 134//123 125//123 126//123 
f 135//123 164//123 159//123 
f 161//123 142//123 67//123 
f 163//123 143//123 125//123 
f 134//123 160//123 157//123 
f 67//123 118//123 119//123 
f 114//123 115//123 68//123 
f 126//123 127//123 134//123 
f 154//123 164//123 135//123 
f 146//123 162//123 125//123 
f 67//123 120//123 121//123 
f 67//123 117//123 118//123 
f 111//123 112//123 68//123 
f 63//123 66//123 67//123 
f 144//123 155//123 67//123 
f 119//123 120//123 67//123 
f 67//123 60//123 63//123 
f 121//123 122//123 67//123 
f 160//123 134//123 135//123 
f 66//123 68//123 117//123 
o mesh12
f 138//124 147//125 165//125 
f 145//126 138//124 166//127 
f 146//128 145//126 167//129 
f 162//130 146//128 168//131 
f 163//132 162//130 169//133 
f 143//134 163//132 170//135 
f 144//136 143//134 171//137 
f 144//136 172//136 173//138 
f 173//138 155//139 144//136 
f 156//140 155//139 174//139 
f 161//141 156//140 175//140 
f 142//142 161//141 176//141 
f 140//143 142//142 177//142 
f 141//144 140//143 178//143 
f 152//145 141//144 179//144 
f 136//146 152//145 180//145 
f 137//147 136//146 181//146 
f 139//148 137//147 182//147 
f 153//149 139//148 183//148 
f 154//150 153//149 184//149 
f 164//151 154//150 185//150 
f 159//152 164//151 186//151 
f 160//153 159//152 187//152 
f 157//154 160//153 188//153 
f 158//155 157//154 189//154 
f 150//156 158//155 190//155 
f 151//157 150//156 191//156 
f 148//158 151//157 192//157 
f 149//159 148//158 193//158 
f 147//125 149//159 194//159 
f 194//159 165//125 147//125 
f 193//158 194//159 149//159 
f 192//157 193//158 148//158 
f 191//156 192//157 151//157 
f 190//155 191//156 150//156 
f 189//154 190//155 158//155 
f 188//153 189//154 157//154 
f 187//152 188//153 160//153 
f 186//151 187//152 159//152 
f 185//150 186//151 164//151 
f 184//149 185//150 154//150 
f 183//148 184//149 153//149 
f 182//147 183//148 139//148 
f 181//146 182//147 137//147 
f 180//145 181//146 136//146 
f 179//144 180//145 152//145 
f 178//143 179//144 141//144 
f 177//142 178//143 140//143 
f 176//141 177//142 142//142 
f 175//140 176//141 161//141 
f 174//139 175//140 156//140 
f 173//138 174//139 155//139 
f 171//137 172//136 144//136 
f 170//135 171//137 143//134 
f 169//133 170//135 163//132 
f 168//131 169//133 162//130 
f 167//129 168//131 146//128 
f 166//127 167//129 145//126 
f 165//125 166//127 138//124 
o mesh13
f 195//160 196//160 197//160 
f 177//160 176//160 198//160 
f 199//160 180//160 179//160 
f 198//160 176//160 175//160 
f 197//160 200//160 195//160 
f 198//160 195//160 177//160 
f 179//160 195//160 199//160 
f 175//160 174//160 198//160 
f 198//160 196//160 195//160 
f 179//160 178//160 195//160 
f 199//160 183//160 182//160 
f 195//160 201//160 202//160 
f 200//160 201//160 195//160 
f 199//160 181//160 180//160 
f 199//160 184//160 183//160 
f 203//160 169//160 168//160 
f 172//160 204//160 205//160 
f 203//160 206//160 207//160 
f 174//160 173//160 198//160 
f 182//160 181//160 199//160 
f 199//160 208//160 188//160 
f 208//160 193//160 192//160 
f 208//160 165//160 194//160 
f 208//160 167//160 166//160 
f 168//160 208//160 203//160 
f 173//160 209//160 210//160 
f 205//160 173//160 172//160 
f 171//160 211//160 212//160 
f 207//160 171//160 203//160 
f 203//160 213//160 214//160 
f 203//160 215//160 216//160 
f 178//160 177//160 195//160 
f 199//160 186//160 185//160 
f 208//160 189//160 188//160 
f 194//160 193//160 208//160 
f 168//160 167//160 208//160 
f 173//160 217//160 209//160 
f 173//160 218//160 219//160 
f 172//160 171//160 204//160 
f 207//160 211//160 171//160 
f 216//160 213//160 203//160 
f 185//160 184//160 199//160 
f 188//160 187//160 199//160 
f 208//160 191//160 190//160 
f 166//160 165//160 208//160 
f 219//160 217//160 173//160 
f 205//160 220//160 173//160 
f 171//160 221//160 222//160 
f 214//160 206//160 203//160 
f 187//160 186//160 199//160 
f 192//160 191//160 208//160 
f 220//160 218//160 173//160 
f 212//160 221//160 171//160 
f 195//160 223//160 224//160 
f 190//160 189//160 208//160 
f 203//160 171//160 170//160 
f 222//160 204//160 171//160 
f 203//160 195//160 225//160 
f 202//160 223//160 195//160 
f 210//160 198//160 173//160 
f 203//160 226//160 227//160 
f 225//160 228//160 203//160 
f 170//160 169//160 203//160 
f 228//160 226//160 203//160 
f 227//160 215//160 203//160 
f 224//160 225//160 195//160 
o mesh14
f 132//161 229//161 230//161 
f 230//161 231//161 132//161 
f 231//161 232//161 132//161 
f 229//161 233//161 234//161 
f 229//161 235//161 230//161 
f 229//161 236//161 233//161 
f 132//161 237//161 238//161 
f 234//161 235//161 229//161 
f 239//161 133//161 240//161 
f 232//161 237//161 132//161 
f 229//161 241//161 242//161 
f 229//161 239//161 243//161 
f 239//161 244//161 245//161 
f 239//161 246//161 247//161 
f 133//161 248//161 240//161 
f 133//161 249//161 250//161 
f 132//161 251//161 252//161 
f 242//161 236//161 229//161 
f 239//161 253//161 243//161 
f 247//161 244//161 239//161 
f 250//161 248//161 133//161 
f 238//161 251//161 132//161 
f 243//161 254//161 229//161 
f 240//161 246//161 239//161 
f 133//161 255//161 256//161 
f 133//161 132//161 257//161 
f 254//161 241//161 229//161 
f 239//161 258//161 259//161 
f 256//161 249//161 133//161 
f 257//161 260//161 133//161 
f 259//161 253//161 239//161 
f 260//161 255//161 133//161 
f 245//161 258//161 239//161 
f 252//161 257//161 132//161 
o mesh15
f 195//162 203//162 239//162 
f 239//162 229//162 195//162 
o mesh16
f 247//163 246//164 206//164 
f 244//165 247//163 214//166 
f 245//167 244//165 213//168 
f 258//169 245//167 216//170 
f 259//171 258//169 215//172 
f 253//173 259//171 227//174 
f 243//175 253//173 226//176 
f 254//177 243//175 225//178 
f 243//175 228//179 225//178 
f 241//180 254//177 224//181 
f 242//182 241//180 223//183 
f 236//184 242//182 202//185 
f 233//186 236//184 201//187 
f 234//188 233//186 200//189 
f 235//190 234//188 197//191 
f 230//192 235//190 196//193 
f 231//194 230//192 198//195 
f 232//196 231//194 210//197 
f 237//198 232//196 209//199 
f 238//200 237//198 217//201 
f 251//202 238//200 219//203 
f 252//204 251//202 218//205 
f 220//204 205//206 257//207 
f 205//206 260//206 257//207 
f 255//208 260//206 205//206 
f 256//209 255//208 204//208 
f 249//210 256//209 222//209 
f 250//211 249//210 221//210 
f 248//212 250//211 212//211 
f 240//213 248//212 211//212 
f 246//164 240//213 207//213 
f 207//213 206//164 246//164 
f 211//212 207//213 240//213 
f 212//211 211//212 248//212 
f 221//210 212//211 250//211 
f 222//209 221//210 249//210 
f 204//208 222//209 256//209 
f 205//206 204//208 255//208 
f 257//207 252//204 220//204 
f 218//205 220//204 252//204 
f 219//203 218//205 251//202 
f 217//201 219//203 238//200 
f 209//199 217//201 237//198 
f 210//197 209//199 232//196 
f 198//195 210//197 231//194 
f 196//193 198//195 230//192 
f 197//191 196//193 235//190 
f 200//189 197//191 234//188 
f 201//187 200//189 233//186 
f 202//185 201//187 236//184 
f 223//183 202//185 242//182 
f 224//181 223//183 241//180 
f 225//178 224//181 254//177 
f 226//176 228//179 243//175 
f 227//174 226//176 253//173 
f 215//172 227//174 259//171 
f 216//170 215//172 258//169 
f 213//168 216//170 245//167 
f 214//166 213//168 244//165 
f 206//164 214//166 247//163 
o mesh17
f 67//214 135//214 261//214 
f 262//214 263//214 261//214 
f 261//214 135//214 262//214 
f 261//214 64//214 67//214 
o mesh18
f 261//215 264//215 265//215 
f 265//215 64//215 261//215 
o mesh19
f 208//216 134//216 264//216 
f 134//216 83//216 265//216 
f 265//216 264//216 134//216 
f 266//216 265//216 83//216 
f 83//216 133//216 266//216 
f 208//216 267//216 266//216 
f 203//216 208//216 133//216 
f 266//216 133//216 208//216 
f 264//216 267//216 208//216 
f 71//216 70//216 83//216 
f 83//216 134//216 71//216 
f 133//216 239//216 203//216 
o mesh20
f 64//217 265//217 266//217 
f 266//217 268//217 64//217 
o mesh21
f 268//218 266//218 267//218 
f 267//218 269//218 268//218 
o mesh22
f 270//219 199//219 269//219 
f 199//219 195//219 268//219 
f 64//219 268//219 132//219 
f 195//219 229//219 132//219 
f 268//219 269//219 199//219 
f 132//219 268//219 195//219 
f 132//219 65//219 64//219 
f 269//219 271//219 270//219 
o mesh23
f 134//220 272//220 262//220 
f 273//220 262//220 272//220 
f 272//220 274//220 273//220 
f 134//220 208//220 275//220 
f 276//220 275//220 270//220 
f 208//220 199//220 270//220 
f 275//220 272//220 134//220 
f 270//220 275//220 208//220 
f 270//220 277//220 276//220 
f 262//220 135//220 134//220 
o mesh24
f 272//219 275//219 278//219 
f 278//219 279//219 272//219 
o mesh25
f 267//221 278//221 271//221 
f 280//221 271//221 278//221 
f 278//221 281//221 280//221 
f 267//221 263//221 279//221 
f 279//221 278//221 267//221 
f 282//221 279//221 263//221 
f 263//221 283//221 282//221 
f 264//221 261//221 263//221 
f 263//221 267//221 264//221 
f 271//221 269//221 267//221 
o mesh26
f 283//222 284//222 285//222 
f 285//222 282//222 283//222 
o mesh27
f 284//223 286//223 287//223 
f 287//223 285//223 284//223 
o mesh28
f 280//222 281//222 288//222 
f 288//222 289//222 280//222 
o mesh29
f 289//223 288//223 290//223 
f 290//223 291//223 289//223 
o mesh30
f 284//224 283//224 292//224 
f 263//224 293//224 292//224 
f 292//224 283//224 263//224 
f 262//224 273//224 293//224 
f 293//224 263//224 262//224 
f 292//224 286//224 284//224 
o mesh31
f 292//225 294//225 295//225 
f 295//225 286//225 292//225 
o mesh32
f 296//226 293//226 273//226 
f 273//226 297//226 296//226 
o mesh33
f 294//227 292//227 293//227 
f 293//227 296//227 294//227 
o mesh34
f 294//228 296//228 297//228 
f 297//228 295//228 294//228 
o mesh35
f 297//229 298//229 299//229 
f 299//229 295//229 297//229 
o mesh36
f 300//230 301//230 299//230 
f 299//230 298//230 300//230 
o mesh37
f 287//231 286//231 299//231 
f 301//231 302//231 287//231 
f 299//231 301//231 287//231 
f 286//231 295//231 299//231 
o mesh38
f 273//232 274//232 300//232 
f 300//232 298//232 273//232 
f 298//232 297//232 273//232 
f 274//232 303//232 300//232 
o mesh39
f 302//233 301//233 300//233 
f 300//233 303//233 302//233 
o mesh40
f 304//234 305//234 303//234 
f 303//234 274//234 304//234 
o mesh41
f 306//235 307//235 287//235 
f 287//235 302//235 306//235 
o mesh42
f 306//236 305//236 304//236 
f 304//236 307//236 306//236 
o mesh43
f 305//237 306//237 302//237 
f 302//237 303//237 305//237 
o mesh44
f 282//237 308//237 309//237 
f 282//237 285//237 310//237 
f 310//237 308//237 282//237 
f 285//237 311//237 312//237 
f 282//237 313//237 314//237 
f 312//237 310//237 285//237 
f 282//237 315//237 313//237 
f 282//237 316//237 317//237 
f 309//237 318//237 282//237 
f 287//237 319//237 320//237 
f 317//237 315//237 282//237 
f 285//237 321//237 311//237 
f 285//237 322//237 323//237 
f 287//237 324//237 325//237 
f 320//237 326//237 287//237 
f 318//237 316//237 282//237 
f 285//237 327//237 322//237 
f 325//237 285//237 287//237 
f 287//237 328//237 319//237 
f 323//237 321//237 285//237 
f 326//237 324//237 287//237 
f 287//237 329//237 330//237 
f 287//237 331//237 332//237 
f 287//237 333//237 334//237 
f 287//237 335//237 336//237 
f 325//237 327//237 285//237 
f 332//237 329//237 287//237 
f 336//237 333//237 287//237 
f 307//237 314//237 335//237 
f 272//237 279//237 304//237 
f 279//237 314//237 307//237 
f 330//237 328//237 287//237 
f 335//237 287//237 307//237 
f 307//237 304//237 279//237 
f 334//237 331//237 287//237 
f 314//237 279//237 282//237 
f 304//237 274//237 272//237 
o mesh45
f 329//238 337//238 338//239 
f 330//239 338//239 339//240 
f 328//240 339//240 340//241 
f 319//241 340//241 341//242 
f 320//242 341//242 342//243 
f 326//243 342//243 343//244 
f 324//244 343//244 344//245 
f 325//245 344//245 345//246 
f 327//246 345//246 346//247 
f 322//247 346//247 347//248 
f 323//248 347//248 348//249 
f 321//249 348//249 349//250 
f 311//250 349//250 350//251 
f 312//251 350//251 351//252 
f 310//252 351//252 352//253 
f 308//253 352//253 353//254 
f 309//254 353//254 354//255 
f 318//255 354//255 355//256 
f 316//256 355//256 356//257 
f 317//257 356//257 357//258 
f 315//258 357//258 358//259 
f 313//259 358//259 359//260 
f 314//260 359//260 360//261 
f 335//261 360//261 361//262 
f 336//262 361//262 362//263 
f 333//263 362//263 363//264 
f 334//264 363//264 364//265 
f 331//265 364//265 365//266 
f 332//266 365//266 337//238 
f 337//238 329//238 332//266 
f 365//266 332//266 331//265 
f 364//265 331//265 334//264 
f 363//264 334//264 333//263 
f 362//263 333//263 336//262 
f 361//262 336//262 335//261 
f 360//261 335//261 314//260 
f 359//260 314//260 313//259 
f 358//259 313//259 315//258 
f 357//258 315//258 317//257 
f 356//257 317//257 316//256 
f 355//256 316//256 318//255 
f 354//255 318//255 309//254 
f 353//254 309//254 308//253 
f 352//253 308//253 310//252 
f 351//252 310//252 312//251 
f 350//251 312//251 311//250 
f 349//250 311//250 321//249 
f 348//249 321//249 323//248 
f 347//248 323//248 322//247 
f 346//247 322//247 327//246 
f 345//246 327//246 325//245 
f 344//245 325//245 324//244 
f 343//244 324//244 326//243 
f 342//243 326//243 320//242 
f 341//242 320//242 319//241 
f 340//241 319//241 328//240 
f 339//240 328//240 330//239 
f 338//239 330//239 329//238 
o mesh46
f 288//267 351//267 350//267 
f 281//267 352//267 351//267 
f 351//267 288//267 281//267 
f 281//267 354//267 353//267 
f 353//267 352//267 281//267 
f 366//267 360//267 359//267 
f 288//267 348//267 347//267 
f 350//267 349//267 288//267 
f 359//267 281//267 366//267 
f 347//267 346//267 288//267 
f 281//267 355//267 354//267 
f 281//267 357//267 356//267 
f 359//267 358//267 281//267 
f 366//267 364//267 363//267 
f 349//267 348//267 288//267 
f 358//267 357//267 281//267 
f 363//267 362//267 366//267 
f 290//267 338//267 337//267 
f 290//267 342//267 341//267 
f 356//267 355//267 281//267 
f 362//267 361//267 366//267 
f 366//267 337//267 365//267 
f 290//267 339//267 338//267 
f 341//267 340//267 290//267 
f 290//267 344//267 343//267 
f 288//267 345//267 344//267 
f 361//267 360//267 366//267 
f 337//267 366//267 290//267 
f 343//267 342//267 290//267 
f 346//267 345//267 288//267 
f 340//267 339//267 290//267 
f 365//267 364//267 366//267 
f 278//267 367//267 366//267 
f 366//267 281//267 278//267 
f 275//267 276//267 367//267 
f 367//267 278//267 275//267 
f 344//267 290//267 288//267 
o mesh47
f 366//268 368//268 369//268 
f 369//268 290//268 366//268 
o mesh48
f 370//269 367//269 276//269 
f 276//269 371//269 370//269 
o mesh49
f 368//270 366//270 367//270 
f 367//270 370//270 368//270 
o mesh50
f 368//271 370//271 371//271 
f 371//271 369//271 368//271 
o mesh51
f 369//272 371//272 372//272 
f 372//272 373//272 369//272 
o mesh52
f 374//273 375//273 373//273 
f 373//273 372//273 374//273 
o mesh53
f 291//274 290//274 373//274 
f 375//274 376//274 291//274 
f 373//274 375//274 291//274 
f 290//274 369//274 373//274 
o mesh54
f 276//275 277//275 374//275 
f 374//275 372//275 276//275 
f 372//275 371//275 276//275 
f 277//275 377//275 374//275 
o mesh55
f 271//276 280//276 378//276 
f 289//276 291//276 378//276 
f 270//276 271//276 379//276 
f 378//276 280//276 289//276 
f 378//276 379//276 271//276 
f 379//276 277//276 270//276 
o mesh56
f 379//277 380//277 377//277 
f 377//277 277//277 379//277 
o mesh57
f 381//278 380//278 379//278 
f 379//278 378//278 381//278 
o mesh58
f 380//279 381//279 376//279 
f 376//279 377//279 380//279 
o mesh59
f 381//280 378//280 291//280 
f 291//280 376//280 381//280 
o mesh60
f 377//281 376//281 375//281 
f 375//281 374//281 377//281 
