# OBJ generated by ONSHAPE BY PTC INC, 1.203 Units = meters
mtllib claw robot - claw mount.mtl
g claw mount
v -0.0163615 0 0.0140651 
v -0.01651 0 0.0127 
v -0.01651 0.0254 0.0127 
v -0.0159231 0 0.0153663 
v -0.0163615 0.0254 0.0140651 
v -0.0152152 0 0.0165429 
v -0.0159231 0.0254 0.0153663 
v -0.0142709 0 0.0175397 
v -0.0152152 0.0254 0.0165429 
v -0.0131344 0 0.0183103 
v -0.0142709 0.0254 0.0175397 
v -0.0118588 0 0.0188185 
v -0.0131344 0.0254 0.0183103 
v -0.0105038 0 0.0190407 
v -0.0118588 0.0254 0.0188185 
v -0.00913268 0 0.0189663 
v -0.0105038 0.0254 0.0190407 
v -0.00780962 0 0.018599 
v -0.00913268 0.0254 0.0189663 
v -0.00659646 0 0.0179558 
v -0.00780962 0.0254 0.018599 
v -0.00554993 0 0.0170669 
v -0.00659646 0.0254 0.0179558 
v -0.00471896 0 0.0159738 
v -0.00554993 0.0254 0.0170669 
v -0.0041424 0 0.0147276 
v -0.00471896 0.0254 0.0159738 
v -0.00384722 0 0.0133866 
v -0.0041424 0.0254 0.0147276 
v -0.00384722 0.0254 0.0120134 
v -0.00384722 0 0.0120134 
v -0.00381 0 0.0127 
v -0.00384722 0.0254 0.0133866 
v -0.00381 0.0254 0.0127 
v -0.0041424 0 0.0106724 
v -0.00471896 0 0.00942623 
v -0.0041424 0.0254 0.0106724 
v -0.00554993 0 0.00833311 
v -0.00471896 0.0254 0.00942623 
v -0.00659646 0 0.00744417 
v -0.00554993 0.0254 0.00833311 
v -0.00780962 0 0.006801 
v -0.00659646 0.0254 0.00744417 
v -0.00913268 0 0.00643365 
v -0.00780962 0.0254 0.006801 
v -0.0105038 0 0.00635931 
v -0.00913268 0.0254 0.00643365 
v -0.0118588 0 0.00658146 
v -0.0105038 0.0254 0.00635931 
v -0.0131344 0 0.0070897 
v -0.0118588 0.0254 0.00658146 
v -0.0142709 0 0.00786027 
v -0.0131344 0.0254 0.0070897 
v -0.0152152 0 0.00885714 
v -0.0142709 0.0254 0.00786027 
v -0.0159231 0 0.0100337 
v -0.0152152 0.0254 0.00885714 
v -0.0163615 0 0.0113349 
v -0.0159231 0.0254 0.0100337 
v -0.0163615 0.0254 0.0113349 
v 0.02032 0.0254 0.0254 
v 0.02032 0.0254 0 
v 0.01651 0.0254 0.0127 
v 0.0164728 0.0254 0.0120134 
v 0.0164728 0.0254 0.0133866 
v 0.0043969 0.0254 0.0100337 
v -0.02032 0.0254 6.93889e-18 
v 0.0161776 0.0254 0.0106724 
v 0.015601 0.0254 0.00942623 
v 0.0137235 0.0254 0.00744417 
v 0.0147701 0.0254 0.00833311 
v 0.0060491 0.0254 0.00786027 
v 0.00718561 0.0254 0.0070897 
v 0.00381 0.0254 0.0127 
v 0.00395846 0.0254 0.0113349 
v 0.00510481 0.0254 0.00885714 
v 0.0125104 0.0254 0.006801 
v 0.0084612 0.0254 0.00658146 
v 0.00981622 0.0254 0.00635931 
v 0.0043969 0.0254 0.0153663 
v 0.00395846 0.0254 0.0140651 
v 0.00718561 0.0254 0.0183103 
v 0.0060491 0.0254 0.0175397 
v 0.0111873 0.0254 0.00643365 
v -0.02032 0.0254 0.0254 
v 0.0147701 0.0254 0.0170669 
v 0.0137235 0.0254 0.0179558 
v 0.0161776 0.0254 0.0147276 
v 0.015601 0.0254 0.0159738 
v 0.0084612 0.0254 0.0188185 
v 0.0125104 0.0254 0.018599 
v 0.00510481 0.0254 0.0165429 
v 0.00981622 0.0254 0.0190407 
v 0.0111873 0.0254 0.0189663 
v 0.02032 0.0254 -0.0254 
v 0.04572 0.0254 -0.0635 
v 0.02032 0.0254 -0.0635 
v 0.04572 0.0254 -6.93889e-18 
v -0.04572 0.0254 -0.0635 
v -0.04572 0.0254 4.90025e-18 
v -0.02032 0.0254 -0.0254 
v -0.02032 0.0254 -0.0635 
v 0.00395846 0 0.0113349 
v 0.00381 0 0.0127 
v 0.0043969 0 0.0153663 
v 0.0043969 0 0.0100337 
v 0.00395846 0 0.0140651 
v 0.00510481 0 0.00885714 
v 0.02032 0 -0.0254 
v 0.00718561 0 0.0070897 
v 0.0060491 0 0.00786027 
v 0.02032 0 0.0254 
v 0.015601 0 0.0159738 
v 0.0161776 0 0.0147276 
v 0.0084612 0 0.00658146 
v 0.0147701 0 0.0170669 
v 0.0125104 0 0.018599 
v 0.0137235 0 0.0179558 
v 0.0084612 0 0.0188185 
v 0.00981622 0 0.0190407 
v 0.0060491 0 0.0175397 
v 0.00718561 0 0.0183103 
v -0.02032 0 -0.0254 
v 0.00981622 0 0.00635931 
v -0.02032 0 6.93889e-18 
v 0.0111873 0 0.0189663 
v 0.00510481 0 0.0165429 
v -0.02032 0 0.0254 
v 0.0125104 0 0.006801 
v 0.04572 0 -0.0635 
v 0.02032 0 0 
v 0.0137235 0 0.00744417 
v 0.015601 0 0.00942623 
v 0.0147701 0 0.00833311 
v 0.0164728 0 0.0133866 
v 0.01651 0 0.0127 
v 0.0164728 0 0.0120134 
v -0.04572 0 -0.0635 
v -0.02032 0 -0.0635 
v 0.0161776 0 0.0106724 
v -0.04572 0 4.90025e-18 
v 0.0111873 0 0.00643365 
v 0.04572 0 -6.93889e-18 
v 0.02032 0 -0.0635 
v -0.04572 0.00638722 -0.0540266 
v -0.04572 0.0066824 -0.0553676 
v -0.04572 0.0066824 -0.0513124 
v -0.04572 0.00638722 -0.0526534 
v -0.04572 0.00725896 -0.0500662 
v -0.04572 0.01905 -0.05334 
v -0.04572 0.0189015 -0.0519749 
v -0.04572 0.0116727 -0.0596063 
v -0.04572 0.0130438 -0.0596807 
v -0.04572 0.00913646 -0.0585958 
v -0.04572 0.0103496 -0.059239 
v -0.04572 0.00725896 -0.0566138 
v -0.04572 0.00808993 -0.0577069 
v -0.04572 0.0103496 -0.047441 
v -0.04572 0.00913646 -0.0480842 
v -0.04572 0.0127 -0.04699 
v -0.04572 0.0116727 -0.0470737 
v -0.04572 0.0130438 -0.0469993 
v -0.04572 0.0189015 -0.0547051 
v -0.04572 0.0143988 -0.0594585 
v -0.04572 0.0156744 -0.0589503 
v -0.04572 0.00808993 -0.0489731 
v -0.04572 0.0143988 -0.0472215 
v -0.04572 0.0168109 -0.0485003 
v -0.04572 0.0156744 -0.0477297 
v -0.04572 0.0184631 -0.0560063 
v -0.04572 0.0168109 -0.0581797 
v -0.04572 0.0177552 -0.0571829 
v -0.04572 0.0184631 -0.0506737 
v -0.04572 0.0177552 -0.0494971 
v -0.02032 0.0127 -0.04699 
v -0.02032 0.00638722 -0.0526534 
v -0.02032 0.0116727 -0.0470737 
v -0.02032 0.0066824 -0.0513124 
v -0.02032 0.0130438 -0.0469993 
v -0.02032 0.00638722 -0.0540266 
v -0.02032 0.00725896 -0.0566138 
v -0.02032 0.0066824 -0.0553676 
v -0.02032 0.0189015 -0.0519749 
v -0.02032 0.0103496 -0.047441 
v -0.02032 0.00808993 -0.0489731 
v -0.02032 0.00913646 -0.0480842 
v -0.02032 0.0184631 -0.0506737 
v -0.02032 0.0143988 -0.0472215 
v -0.02032 0.0156744 -0.0477297 
v -0.02032 0.00725896 -0.0500662 
v -0.02032 0.00913646 -0.0585958 
v -0.02032 0.00808993 -0.0577069 
v -0.02032 0.01905 -0.05334 
v -0.02032 0.0116727 -0.0596063 
v -0.02032 0.0103496 -0.059239 
v -0.02032 0.0130438 -0.0596807 
v -0.02032 0.0168109 -0.0581797 
v -0.02032 0.0156744 -0.0589503 
v -0.02032 0.0184631 -0.0560063 
v -0.02032 0.0177552 -0.0571829 
v -0.02032 0.0189015 -0.0547051 
v -0.02032 0.0143988 -0.0594585 
v -0.02032 0.0168109 -0.0485003 
v -0.02032 0.0177552 -0.0494971 
v 0.04572 0.00638722 -0.0540266 
v 0.04572 0.00635 -0.05334 
v 0.04572 0.0189015 -0.0519749 
v 0.04572 0.00638722 -0.0526534 
v 0.04572 0.0066824 -0.0553676 
v 0.04572 0.0184631 -0.0506737 
v 0.04572 0.0066824 -0.0513124 
v 0.04572 0.00725896 -0.0500662 
v 0.04572 0.0189015 -0.0547051 
v 0.04572 0.0184631 -0.0560063 
v 0.04572 0.01905 -0.05334 
v 0.04572 0.00913646 -0.0585958 
v 0.04572 0.00808993 -0.0577069 
v 0.04572 0.0116727 -0.0596063 
v 0.04572 0.0103496 -0.059239 
v 0.04572 0.0156744 -0.0477297 
v 0.04572 0.0168109 -0.0485003 
v 0.04572 0.0130438 -0.0469993 
v 0.04572 0.0143988 -0.0472215 
v 0.04572 0.00725896 -0.0566138 
v 0.04572 0.0168109 -0.0581797 
v 0.04572 0.0156744 -0.0589503 
v 0.04572 0.0177552 -0.0571829 
v 0.04572 0.0116727 -0.0470737 
v 0.04572 0.00808993 -0.0489731 
v 0.04572 0.00913646 -0.0480842 
v 0.04572 0.0177552 -0.0494971 
v 0.04572 0.0103496 -0.047441 
v 0.04572 0.0130438 -0.0596807 
v 0.04572 0.0143988 -0.0594585 
v 0.02032 0.00638722 -0.0540266 
v 0.02032 0.0066824 -0.0553676 
v 0.02032 0.0066824 -0.0513124 
v 0.02032 0.00638722 -0.0526534 
v 0.02032 0.00725896 -0.0500662 
v 0.02032 0.01905 -0.05334 
v 0.02032 0.0189015 -0.0519749 
v 0.02032 0.0116727 -0.0596063 
v 0.02032 0.0130438 -0.0596807 
v 0.02032 0.00913646 -0.0585958 
v 0.02032 0.0103496 -0.059239 
v 0.02032 0.00725896 -0.0566138 
v 0.02032 0.00808993 -0.0577069 
v 0.02032 0.0130438 -0.0469993 
v 0.02032 0.0103496 -0.047441 
v 0.02032 0.00913646 -0.0480842 
v 0.02032 0.0116727 -0.0470737 
v 0.02032 0.0189015 -0.0547051 
v 0.02032 0.0143988 -0.0594585 
v 0.02032 0.0156744 -0.0589503 
v 0.02032 0.00808993 -0.0489731 
v 0.02032 0.0168109 -0.0485003 
v 0.02032 0.0156744 -0.0477297 
v 0.02032 0.0184631 -0.0560063 
v 0.02032 0.0168109 -0.0581797 
v 0.02032 0.0177552 -0.0571829 
v 0.02032 0.0143988 -0.0472215 
v 0.02032 0.0184631 -0.0506737 
v 0.02032 0.0177552 -0.0494971 
vn 0.976621 0 -0.21497 
vn 1 0 -2.44929e-16 
vn 0.907575 0 -0.419889 
vn 0.976621 0 -0.21497 
vn 0.796093 0 -0.605174 
vn 0.907575 0 -0.419889 
vn 0.647386 0 -0.762162 
vn 0.796093 0 -0.605174 
vn 0.468408 0 -0.883512 
vn 0.647386 0 -0.762162 
vn 0.267528 0 -0.96355 
vn 0.468408 0 -0.883512 
vn 0.0541389 0 -0.998533 
vn 0.267528 0 -0.96355 
vn -0.161782 0 -0.986827 
vn 0.0541389 0 -0.998533 
vn -0.370138 0 -0.928977 
vn -0.161782 0 -0.986827 
vn -0.561187 0 -0.827689 
vn -0.370138 0 -0.928977 
vn -0.725995 0 -0.687699 
vn -0.561187 0 -0.827689 
vn -0.856857 0 -0.515554 
vn -0.725995 0 -0.687699 
vn -0.947653 0 -0.319302 
vn -0.856857 0 -0.515554 
vn -0.994138 0 -0.108119 
vn -0.947653 0 -0.319302 
vn -0.994138 0 0.108119 
vn -1 0 3.67394e-16 
vn -0.994138 0 -0.108119 
vn -0.947653 0 0.319302 
vn -0.856857 0 0.515554 
vn -0.725995 0 0.687699 
vn -0.561187 0 0.827689 
vn -0.370138 0 0.928977 
vn -0.161782 0 0.986827 
vn 0.0541389 0 0.998533 
vn 0.267528 0 0.96355 
vn 0.468408 0 0.883512 
vn 0.647386 0 0.762162 
vn 0.796093 0 0.605174 
vn 0.907575 0 0.419889 
vn 0.976621 0 0.21497 
vn 0 1 0 
vn 0 -1 0 
vn 1.22465e-16 0 1 
vn -1 0 0 
vn 1 0 0 
vn 1.22465e-16 0 1 
vn 0 0 -1 
vn 0.976621 0 -0.21497 
vn 1 0 -2.44929e-16 
vn 0.907575 0 -0.419889 
vn 0.976621 0 -0.21497 
vn 0.796093 0 -0.605174 
vn 0.907575 0 -0.419889 
vn 0.647386 0 -0.762162 
vn 0.796093 0 -0.605174 
vn 0.468408 0 -0.883512 
vn 0.647386 0 -0.762162 
vn 0.267528 0 -0.96355 
vn 0.468408 0 -0.883512 
vn 0.0541389 0 -0.998533 
vn 0.267528 0 -0.96355 
vn -0.161782 0 -0.986827 
vn 0.0541389 0 -0.998533 
vn -0.370138 0 -0.928977 
vn -0.161782 0 -0.986827 
vn -0.561187 0 -0.827689 
vn -0.370138 0 -0.928977 
vn -0.725995 0 -0.687699 
vn -0.561187 0 -0.827689 
vn -0.856857 0 -0.515554 
vn -0.725995 0 -0.687699 
vn -0.947653 0 -0.319302 
vn -0.856857 0 -0.515554 
vn -0.994138 0 -0.108119 
vn -0.947653 0 -0.319302 
vn -0.994138 0 0.108119 
vn -1 0 3.67394e-16 
vn -0.994138 0 -0.108119 
vn -0.947653 0 0.319302 
vn -0.856857 0 0.515554 
vn -0.725995 0 0.687699 
vn -0.561187 0 0.827689 
vn -0.370138 0 0.928977 
vn -0.161782 0 0.986827 
vn 0.0541389 0 0.998533 
vn 0.267528 0 0.96355 
vn 0.468408 0 0.883512 
vn 0.647386 0 0.762162 
vn 0.796093 0 0.605174 
vn 0.907575 0 0.419889 
vn 0.976621 0 0.21497 
vn -1 0 5.4637e-16 
vn 1 0 -6.37431e-16 
vn 0 -0.976621 -0.21497 
vn 0 -1 -2.44929e-16 
vn 0 -0.907575 -0.419889 
vn 0 -0.976621 -0.21497 
vn 0 -0.796093 -0.605174 
vn 0 -0.907575 -0.419889 
vn 0 -0.647386 -0.762162 
vn 0 -0.796093 -0.605174 
vn 0 -0.468408 -0.883512 
vn 0 -0.647386 -0.762162 
vn 0 -0.267528 -0.96355 
vn 0 -0.468408 -0.883512 
vn 0 -0.0541389 -0.998533 
vn 0 -0.267528 -0.96355 
vn 0 0.161782 -0.986827 
vn 0 4.28626e-16 -1 
vn 0 -0.0541389 -0.998533 
vn 0 0.370138 -0.928977 
vn 0 0.561187 -0.827689 
vn 0 0.725995 -0.687699 
vn 0 0.856857 -0.515554 
vn 0 0.947653 -0.319302 
vn 0 0.994138 -0.108119 
vn 0 0.994138 0.108119 
vn 0 0.947653 0.319302 
vn 0 0.856857 0.515554 
vn 0 0.725995 0.687699 
vn 0 0.561187 0.827689 
vn 0 0.370138 0.928977 
vn 0 0.161782 0.986827 
vn 0 -0.0541389 0.998533 
vn 0 -0.267528 0.96355 
vn 0 -0.468408 0.883512 
vn 0 -0.647386 0.762162 
vn 0 -0.796093 0.605174 
vn 0 -0.907575 0.419889 
vn 0 -0.976621 0.21497 
vn 1 0 0 
vn -1 0 0 
vn 0 -0.976621 -0.21497 
vn 0 -1 -2.44929e-16 
vn 0 -0.907575 -0.419889 
vn 0 -0.976621 -0.21497 
vn 0 -0.796093 -0.605174 
vn 0 -0.907575 -0.419889 
vn 0 -0.647386 -0.762162 
vn 0 -0.796093 -0.605174 
vn 0 -0.468408 -0.883512 
vn 0 -0.647386 -0.762162 
vn 0 -0.267528 -0.96355 
vn 0 -0.468408 -0.883512 
vn 0 -0.0541389 -0.998533 
vn 0 -0.267528 -0.96355 
vn 0 0.161782 -0.986827 
vn 0 -0.0541389 -0.998533 
vn 0 0.370138 -0.928977 
vn 0 0.161782 -0.986827 
vn 0 0.561187 -0.827689 
vn 0 0.370138 -0.928977 
vn 0 0.725995 -0.687699 
vn 0 0.561187 -0.827689 
vn 0 0.856857 -0.515554 
vn 0 0.725995 -0.687699 
vn 0 0.947653 -0.319302 
vn 0 0.856857 -0.515554 
vn 0 0.994138 -0.108119 
vn 0 0.947653 -0.319302 
vn 0 0.994138 0.108119 
vn 0 1 1.22465e-16 
vn 0 0.994138 -0.108119 
vn 0 0.947653 0.319302 
vn 0 0.994138 0.108119 
vn 0 0.856857 0.515554 
vn 0 0.947653 0.319302 
vn 0 0.725995 0.687699 
vn 0 0.856857 0.515554 
vn 0 0.561187 0.827689 
vn 0 0.725995 0.687699 
vn 0 0.370138 0.928977 
vn 0 0.561187 0.827689 
vn 0 0.161782 0.986827 
vn 0 0.370138 0.928977 
vn 0 -0.0541389 0.998533 
vn 0 0.161782 0.986827 
vn 0 -0.267528 0.96355 
vn 0 -0.0541389 0.998533 
vn 0 -0.468408 0.883512 
vn 0 -0.267528 0.96355 
vn 0 -0.647386 0.762162 
vn 0 -0.468408 0.883512 
vn 0 -0.796093 0.605174 
vn 0 -0.647386 0.762162 
vn 0 -0.907575 0.419889 
vn 0 -0.796093 0.605174 
vn 0 -0.976621 0.21497 
vn 0 -0.907575 0.419889 
usemtl 0.768627_0.886275_0.952941_0.000000_0.000000
o mesh0
f 1//1 2//2 3//2 
f 4//3 1//1 5//4 
f 6//5 4//3 7//6 
f 8//7 6//5 9//8 
f 10//9 8//7 11//10 
f 12//11 10//9 13//12 
f 14//13 12//11 15//14 
f 16//15 14//13 17//16 
f 18//17 16//15 19//18 
f 20//19 18//17 21//20 
f 22//21 20//19 23//22 
f 24//23 22//21 25//24 
f 26//25 24//23 27//26 
f 28//27 26//25 29//28 
f 30//29 31//29 32//30 
f 28//27 33//31 34//30 
f 34//30 32//30 28//27 
f 35//32 31//29 30//29 
f 36//33 35//32 37//32 
f 38//34 36//33 39//33 
f 40//35 38//34 41//34 
f 42//36 40//35 43//35 
f 44//37 42//36 45//36 
f 46//38 44//37 47//37 
f 48//39 46//38 49//38 
f 50//40 48//39 51//39 
f 52//41 50//40 53//40 
f 54//42 52//41 55//41 
f 56//43 54//42 57//42 
f 58//44 56//43 59//43 
f 2//2 58//44 60//44 
f 60//44 3//2 2//2 
f 59//43 60//44 58//44 
f 57//42 59//43 56//43 
f 55//41 57//42 54//42 
f 53//40 55//41 52//41 
f 51//39 53//40 50//40 
f 49//38 51//39 48//39 
f 47//37 49//38 46//38 
f 45//36 47//37 44//37 
f 43//35 45//36 42//36 
f 41//34 43//35 40//35 
f 39//33 41//34 38//34 
f 37//32 39//33 36//33 
f 30//29 37//32 35//32 
f 32//30 34//30 30//29 
f 29//28 33//31 28//27 
f 27//26 29//28 26//25 
f 25//24 27//26 24//23 
f 23//22 25//24 22//21 
f 21//20 23//22 20//19 
f 19//18 21//20 18//17 
f 17//16 19//18 16//15 
f 15//14 17//16 14//13 
f 13//12 15//14 12//11 
f 11//10 13//12 10//9 
f 9//8 11//10 8//7 
f 7//6 9//8 6//5 
f 5//4 7//6 4//3 
f 3//2 5//4 1//1 
o mesh1
f 61//45 62//45 63//45 
f 62//45 64//45 63//45 
f 63//45 65//45 61//45 
f 66//45 67//45 45//45 
f 62//45 68//45 64//45 
f 67//45 47//45 45//45 
f 62//45 69//45 68//45 
f 62//45 70//45 71//45 
f 67//45 72//45 73//45 
f 45//45 74//45 75//45 
f 71//45 69//45 62//45 
f 67//45 76//45 72//45 
f 45//45 75//45 66//45 
f 74//45 45//45 43//45 
f 62//45 77//45 70//45 
f 67//45 78//45 79//45 
f 66//45 76//45 67//45 
f 43//45 80//45 81//45 
f 29//45 82//45 83//45 
f 83//45 30//45 34//45 
f 62//45 84//45 77//45 
f 79//45 62//45 67//45 
f 43//45 81//45 74//45 
f 67//45 51//45 49//45 
f 85//45 5//45 3//45 
f 34//45 33//45 83//45 
f 79//45 84//45 62//45 
f 49//45 47//45 67//45 
f 67//45 55//45 53//45 
f 67//45 59//45 57//45 
f 3//45 67//45 85//45 
f 83//45 37//45 30//45 
f 61//45 86//45 87//45 
f 61//45 88//45 89//45 
f 73//45 78//45 67//45 
f 57//45 55//45 67//45 
f 85//45 7//45 5//45 
f 83//45 39//45 37//45 
f 89//45 86//45 61//45 
f 53//45 51//45 67//45 
f 3//45 60//45 67//45 
f 61//45 27//45 25//45 
f 83//45 33//45 29//45 
f 27//45 61//45 90//45 
f 87//45 91//45 61//45 
f 60//45 59//45 67//45 
f 25//45 23//45 61//45 
f 90//45 82//45 27//45 
f 65//45 88//45 61//45 
f 43//45 83//45 92//45 
f 23//45 21//45 61//45 
f 61//45 93//45 90//45 
f 92//45 80//45 43//45 
f 29//45 27//45 82//45 
f 83//45 43//45 41//45 
f 91//45 94//45 61//45 
f 41//45 39//45 83//45 
f 85//45 15//45 13//45 
f 85//45 61//45 19//45 
f 21//45 19//45 61//45 
f 85//45 11//45 9//45 
f 85//45 17//45 15//45 
f 95//45 67//45 62//45 
f 96//45 97//45 95//45 
f 94//45 93//45 61//45 
f 13//45 11//45 85//45 
f 95//45 98//45 96//45 
f 9//45 7//45 85//45 
f 99//45 100//45 101//45 
f 101//45 100//45 67//45 
f 19//45 17//45 85//45 
f 67//45 95//45 101//45 
f 101//45 102//45 99//45 
f 62//45 98//45 95//45 
o mesh2
f 31//46 103//46 104//46 
f 104//46 32//46 31//46 
f 104//46 26//46 28//46 
f 104//46 18//46 20//46 
f 31//46 35//46 103//46 
f 104//46 24//46 26//46 
f 20//46 22//46 104//46 
f 105//46 16//46 18//46 
f 36//46 106//46 103//46 
f 22//46 24//46 104//46 
f 18//46 104//46 107//46 
f 36//46 108//46 106//46 
f 109//46 110//46 111//46 
f 18//46 107//46 105//46 
f 35//46 36//46 103//46 
f 111//46 38//46 109//46 
f 112//46 113//46 114//46 
f 109//46 42//46 44//46 
f 109//46 38//46 40//46 
f 36//46 38//46 108//46 
f 109//46 115//46 110//46 
f 112//46 116//46 113//46 
f 112//46 117//46 118//46 
f 112//46 16//46 119//46 
f 40//46 42//46 109//46 
f 111//46 108//46 38//46 
f 118//46 116//46 112//46 
f 119//46 120//46 112//46 
f 16//46 121//46 122//46 
f 44//46 123//46 109//46 
f 109//46 124//46 115//46 
f 125//46 58//46 2//46 
f 112//46 126//46 117//46 
f 122//46 119//46 16//46 
f 16//46 105//46 127//46 
f 28//46 32//46 104//46 
f 128//46 14//46 16//46 
f 2//46 128//46 125//46 
f 129//46 130//46 131//46 
f 120//46 126//46 112//46 
f 44//46 46//46 123//46 
f 128//46 12//46 14//46 
f 128//46 8//46 10//46 
f 2//46 1//46 128//46 
f 125//46 52//46 54//46 
f 125//46 48//46 50//46 
f 131//46 132//46 129//46 
f 131//46 133//46 134//46 
f 131//46 135//46 136//46 
f 127//46 121//46 16//46 
f 10//46 12//46 128//46 
f 125//46 56//46 58//46 
f 50//46 52//46 125//46 
f 134//46 132//46 131//46 
f 136//46 137//46 131//46 
f 138//46 139//46 123//46 
f 16//46 112//46 128//46 
f 128//46 4//46 6//46 
f 54//46 56//46 125//46 
f 131//46 140//46 133//46 
f 131//46 114//46 135//46 
f 123//46 141//46 138//46 
f 6//46 8//46 128//46 
f 125//46 46//46 48//46 
f 137//46 140//46 131//46 
f 123//46 46//46 125//46 
f 1//46 4//46 128//46 
f 129//46 142//46 130//46 
f 114//46 131//46 112//46 
f 130//46 143//46 131//46 
f 130//46 124//46 109//46 
f 142//46 124//46 130//46 
f 123//46 125//46 141//46 
f 109//46 144//46 130//46 
o mesh3
f 100//47 141//47 125//47 
f 125//47 67//47 100//47 
o mesh4
f 67//48 125//48 128//48 
f 128//48 85//48 67//48 
o mesh5
f 85//47 128//47 112//47 
f 112//47 61//47 85//47 
o mesh6
f 61//49 112//49 131//49 
f 131//49 62//49 61//49 
o mesh7
f 62//50 131//50 143//50 
f 143//50 98//50 62//50 
o mesh8
f 96//51 130//51 144//51 
f 144//51 97//51 96//51 
o mesh9
f 95//51 109//51 123//51 
f 123//51 101//51 95//51 
o mesh10
f 102//51 139//51 138//51 
f 138//51 99//51 102//51 
o mesh11
f 107//52 104//53 74//53 
f 105//54 107//52 81//55 
f 127//56 105//54 80//57 
f 121//58 127//56 92//59 
f 122//60 121//58 83//61 
f 119//62 122//60 82//63 
f 120//64 119//62 90//65 
f 126//66 120//64 93//67 
f 117//68 126//66 94//69 
f 118//70 117//68 91//71 
f 116//72 118//70 87//73 
f 113//74 116//72 86//75 
f 114//76 113//74 89//77 
f 135//78 114//76 88//79 
f 64//80 137//80 136//81 
f 135//78 65//82 63//81 
f 63//81 136//81 135//78 
f 140//83 137//80 64//80 
f 133//84 140//83 68//83 
f 134//85 133//84 69//84 
f 132//86 134//85 71//85 
f 129//87 132//86 70//86 
f 142//88 129//87 77//87 
f 124//89 142//88 84//88 
f 115//90 124//89 79//89 
f 110//91 115//90 78//90 
f 111//92 110//91 73//91 
f 108//93 111//92 72//92 
f 106//94 108//93 76//93 
f 103//95 106//94 66//94 
f 104//53 103//95 75//95 
f 75//95 74//53 104//53 
f 66//94 75//95 103//95 
f 76//93 66//94 106//94 
f 72//92 76//93 108//93 
f 73//91 72//92 111//92 
f 78//90 73//91 110//91 
f 79//89 78//90 115//90 
f 84//88 79//89 124//89 
f 77//87 84//88 142//88 
f 70//86 77//87 129//87 
f 71//85 70//86 132//86 
f 69//84 71//85 134//85 
f 68//83 69//84 133//84 
f 64//80 68//83 140//83 
f 136//81 63//81 64//80 
f 88//79 65//82 135//78 
f 89//77 88//79 114//76 
f 86//75 89//77 113//74 
f 87//73 86//75 116//72 
f 91//71 87//73 118//70 
f 94//69 91//71 117//68 
f 93//67 94//69 126//66 
f 90//65 93//67 120//64 
f 82//63 90//65 119//62 
f 83//61 82//63 122//60 
f 92//59 83//61 121//58 
f 80//57 92//59 127//56 
f 81//55 80//57 105//54 
f 74//53 81//55 107//52 
o mesh12
f 138//96 145//96 146//96 
f 141//96 147//96 148//96 
f 138//96 148//96 145//96 
f 141//96 149//96 147//96 
f 99//96 150//96 151//96 
f 138//96 152//96 153//96 
f 138//96 154//96 155//96 
f 138//96 156//96 157//96 
f 148//96 138//96 141//96 
f 151//96 100//96 99//96 
f 155//96 152//96 138//96 
f 146//96 156//96 138//96 
f 141//96 158//96 159//96 
f 141//96 160//96 161//96 
f 100//96 162//96 160//96 
f 99//96 163//96 150//96 
f 99//96 164//96 165//96 
f 153//96 99//96 138//96 
f 141//96 166//96 149//96 
f 161//96 158//96 141//96 
f 100//96 167//96 162//96 
f 100//96 168//96 169//96 
f 99//96 170//96 163//96 
f 99//96 171//96 172//96 
f 153//96 164//96 99//96 
f 159//96 166//96 141//96 
f 169//96 167//96 100//96 
f 100//96 173//96 174//96 
f 172//96 170//96 99//96 
f 157//96 154//96 138//96 
f 174//96 168//96 100//96 
f 165//96 171//96 99//96 
f 151//96 173//96 100//96 
f 160//96 141//96 100//96 
o mesh13
f 101//97 123//97 175//97 
f 123//97 139//97 176//97 
f 123//97 177//97 175//97 
f 176//97 178//97 123//97 
f 175//97 179//97 101//97 
f 139//97 180//97 176//97 
f 139//97 181//97 182//97 
f 102//97 101//97 183//97 
f 123//97 184//97 177//97 
f 123//97 185//97 186//97 
f 182//97 180//97 139//97 
f 101//97 187//97 183//97 
f 101//97 188//97 189//97 
f 186//97 184//97 123//97 
f 178//97 190//97 123//97 
f 139//97 191//97 192//97 
f 183//97 193//97 102//97 
f 179//97 188//97 101//97 
f 192//97 181//97 139//97 
f 139//97 194//97 195//97 
f 139//97 102//97 196//97 
f 102//97 197//97 198//97 
f 102//97 199//97 200//97 
f 193//97 201//97 102//97 
f 190//97 185//97 123//97 
f 196//97 194//97 139//97 
f 198//97 202//97 102//97 
f 201//97 199//97 102//97 
f 101//97 203//97 204//97 
f 195//97 191//97 139//97 
f 200//97 197//97 102//97 
f 189//97 203//97 101//97 
f 204//97 187//97 101//97 
f 202//97 196//97 102//97 
o mesh14
f 151//98 150//99 193//99 
f 173//100 151//98 183//101 
f 174//102 173//100 187//103 
f 168//104 174//102 204//105 
f 169//106 168//104 203//107 
f 167//108 169//106 189//109 
f 162//110 167//108 188//111 
f 177//112 161//112 160//113 
f 162//110 179//114 175//113 
f 175//113 160//113 162//110 
f 158//115 161//112 177//112 
f 159//116 158//115 184//115 
f 166//117 159//116 186//116 
f 149//118 166//117 185//117 
f 147//119 149//118 190//118 
f 148//120 147//119 178//119 
f 145//121 148//120 176//120 
f 146//122 145//121 180//121 
f 156//123 146//122 182//122 
f 157//124 156//123 181//123 
f 154//125 157//124 192//124 
f 155//126 154//125 191//125 
f 152//127 155//126 195//126 
f 153//128 152//127 194//127 
f 164//129 153//128 196//128 
f 165//130 164//129 202//129 
f 171//131 165//130 198//130 
f 172//132 171//131 197//131 
f 170//133 172//132 200//132 
f 163//134 170//133 199//133 
f 150//99 163//134 201//134 
f 201//134 193//99 150//99 
f 199//133 201//134 163//134 
f 200//132 199//133 170//133 
f 197//131 200//132 172//132 
f 198//130 197//131 171//131 
f 202//129 198//130 165//130 
f 196//128 202//129 164//129 
f 194//127 196//128 153//128 
f 195//126 194//127 152//127 
f 191//125 195//126 155//126 
f 192//124 191//125 154//125 
f 181//123 192//124 157//124 
f 182//122 181//123 156//123 
f 180//121 182//122 146//122 
f 176//120 180//121 145//121 
f 178//119 176//120 148//120 
f 190//118 178//119 147//119 
f 185//117 190//118 149//118 
f 186//116 185//117 166//117 
f 184//115 186//116 159//116 
f 177//112 184//115 158//115 
f 160//113 175//113 177//112 
f 188//111 179//114 162//110 
f 189//109 188//111 167//108 
f 203//107 189//109 169//106 
f 204//105 203//107 168//104 
f 187//103 204//105 174//102 
f 183//101 187//103 173//100 
f 193//99 183//101 151//98 
o mesh15
f 130//135 205//135 206//135 
f 96//135 98//135 207//135 
f 143//135 130//135 208//135 
f 130//135 209//135 205//135 
f 98//135 210//135 207//135 
f 143//135 211//135 212//135 
f 206//135 208//135 130//135 
f 96//135 213//135 214//135 
f 207//135 215//135 96//135 
f 208//135 211//135 143//135 
f 130//135 216//135 217//135 
f 130//135 218//135 219//135 
f 215//135 213//135 96//135 
f 98//135 220//135 221//135 
f 98//135 222//135 223//135 
f 130//135 224//135 209//135 
f 219//135 216//135 130//135 
f 96//135 225//135 226//135 
f 214//135 227//135 96//135 
f 223//135 220//135 98//135 
f 143//135 228//135 222//135 
f 143//135 229//135 230//135 
f 217//135 224//135 130//135 
f 227//135 225//135 96//135 
f 221//135 231//135 98//135 
f 143//135 232//135 228//135 
f 212//135 229//135 143//135 
f 231//135 210//135 98//135 
f 230//135 232//135 143//135 
f 130//135 96//135 233//135 
f 226//135 234//135 96//135 
f 233//135 218//135 130//135 
f 222//135 98//135 143//135 
f 234//135 233//135 96//135 
o mesh16
f 144//136 235//136 236//136 
f 109//136 237//136 238//136 
f 144//136 238//136 235//136 
f 109//136 239//136 237//136 
f 97//136 240//136 241//136 
f 144//136 242//136 243//136 
f 144//136 244//136 245//136 
f 144//136 246//136 247//136 
f 238//136 144//136 109//136 
f 109//136 95//136 248//136 
f 241//136 95//136 97//136 
f 245//136 242//136 144//136 
f 236//136 246//136 144//136 
f 109//136 249//136 250//136 
f 248//136 251//136 109//136 
f 97//136 252//136 240//136 
f 97//136 253//136 254//136 
f 243//136 97//136 144//136 
f 109//136 255//136 239//136 
f 251//136 249//136 109//136 
f 95//136 256//136 257//136 
f 97//136 258//136 252//136 
f 97//136 259//136 260//136 
f 243//136 253//136 97//136 
f 250//136 255//136 109//136 
f 257//136 261//136 95//136 
f 95//136 262//136 263//136 
f 260//136 258//136 97//136 
f 247//136 244//136 144//136 
f 263//136 256//136 95//136 
f 254//136 259//136 97//136 
f 241//136 262//136 95//136 
f 261//136 248//136 95//136 
o mesh17
f 241//137 240//138 215//138 
f 262//139 241//137 207//140 
f 263//141 262//139 210//142 
f 256//143 263//141 231//144 
f 257//145 256//143 221//146 
f 261//147 257//145 220//148 
f 248//149 261//147 223//150 
f 251//151 248//149 222//152 
f 249//153 251//151 228//154 
f 250//155 249//153 232//156 
f 255//157 250//155 230//158 
f 239//159 255//157 229//160 
f 237//161 239//159 212//162 
f 238//163 237//161 211//164 
f 235//165 238//163 206//166 
f 238//163 208//167 206//166 
f 236//168 235//165 205//169 
f 246//170 236//168 209//171 
f 247//172 246//170 224//173 
f 244//174 247//172 217//175 
f 245//176 244//174 216//177 
f 242//178 245//176 219//179 
f 243//180 242//178 218//181 
f 253//182 243//180 233//183 
f 254//184 253//182 234//185 
f 259//186 254//184 226//187 
f 260//188 259//186 225//189 
f 258//190 260//188 227//191 
f 252//192 258//190 214//193 
f 240//138 252//192 213//192 
f 213//192 215//138 240//138 
f 214//193 213//192 252//192 
f 227//191 214//193 258//190 
f 225//189 227//191 260//188 
f 226//187 225//189 259//186 
f 234//185 226//187 254//184 
f 233//183 234//185 253//182 
f 218//181 233//183 243//180 
f 219//179 218//181 242//178 
f 216//177 219//179 245//176 
f 217//175 216//177 244//174 
f 224//173 217//175 247//172 
f 209//171 224//173 246//170 
f 205//169 209//171 236//168 
f 206//166 205//169 235//165 
f 211//164 208//167 238//163 
f 212//162 211//164 237//161 
f 229//160 212//162 239//159 
f 230//158 229//160 255//157 
f 232//156 230//158 250//155 
f 228//154 232//156 249//153 
f 222//152 228//154 251//151 
f 223//150 222//152 248//149 
f 220//148 223//150 261//147 
f 221//146 220//148 257//145 
f 231//144 221//146 256//143 
f 210//142 231//144 263//141 
f 207//140 210//142 262//139 
f 215//138 207//140 241//137 
