# OBJ generated by ONSHAPE BY PTC INC, 1.203 Units = meters
mtllib charging port - charging wheel.mtl
g charging wheel
v 0.15193 0.0254 -0.0119572 
v 0.150524 0.0254 -0.0238406 
v 0.148189 0.0254 -0.0355771 
v 0.144941 0.0254 -0.0470942 
v 0.140799 0.0254 -0.058321 
v 0.135789 0.0254 -0.0691882 
v 0.129942 0.0254 -0.0796288 
v 0.123294 0.0254 -0.0895785 
v 0.115886 0.0254 -0.0989759 
v 0.107763 0.0254 -0.107763 
v 0.0989759 0.0254 -0.115886 
v 0.0895785 0.0254 -0.123294 
v 0.0796288 0.0254 -0.129942 
v 0.0691882 0.0254 -0.135789 
v 0.058321 0.0254 -0.140799 
v 0.0470942 0.0254 -0.144941 
v 0.0355771 0.0254 -0.148189 
v 0.0238406 0.0254 -0.150524 
v 0.0119572 0.0254 -0.15193 
v -9.33181e-18 0.0254 -0.1524 
v -0.0119572 0.0254 -0.15193 
v -0.0238406 0.0254 -0.150524 
v -0.0355771 0.0254 -0.148189 
v -0.0470942 0.0254 -0.144941 
v -0.058321 0.0254 -0.140799 
v -0.0691882 0.0254 -0.135789 
v -0.0796288 0.0254 -0.129942 
v -0.0895785 0.0254 -0.123294 
v -0.0989759 0.0254 -0.115886 
v -0.107763 0.0254 -0.107763 
v -0.115886 0.0254 -0.0989759 
v -0.123294 0.0254 -0.0895785 
v -0.129942 0.0254 -0.0796288 
v -0.135789 0.0254 -0.0691882 
v -0.140799 0.0254 -0.058321 
v -0.144941 0.0254 -0.0470942 
v -0.148189 0.0254 -0.0355771 
v -0.150524 0.0254 -0.0238406 
v -0.15193 0.0254 -0.0119572 
v -0.1524 0.0254 -9.33181e-18 
v -0.15193 0.0254 0.0119572 
v -0.150524 0.0254 0.0238406 
v -0.148189 0.0254 0.0355771 
v -0.144941 0.0254 0.0470942 
v -0.140799 0.0254 0.058321 
v -0.135789 0.0254 0.0691882 
v -0.129942 0.0254 0.0796288 
v -0.123294 0.0254 0.0895785 
v -0.115886 0.0254 0.0989759 
v -0.107763 0.0254 0.107763 
v -0.0989759 0.0254 0.115886 
v -0.0895785 0.0254 0.123294 
v -0.0796288 0.0254 0.129942 
v -0.0691882 0.0254 0.135789 
v -0.058321 0.0254 0.140799 
v -0.0470942 0.0254 0.144941 
v -0.0355771 0.0254 0.148189 
v -0.0238406 0.0254 0.150524 
v -0.0119572 0.0254 0.15193 
v 2.79954e-17 0.0254 0.1524 
v 0.0119572 0.0254 0.15193 
v 0.0238406 0.0254 0.150524 
v 0.0355771 0.0254 0.148189 
v 0.0470942 0.0254 0.144941 
v 0.058321 0.0254 0.140799 
v 0.0691882 0.0254 0.135789 
v 0.0796288 0.0254 0.129942 
v 0.0895785 0.0254 0.123294 
v 0.0989759 0.0254 0.115886 
v 0.107763 0.0254 0.107763 
v 0.115886 0.0254 0.0989759 
v 0.123294 0.0254 0.0895785 
v 0.129942 0.0254 0.0796288 
v 0.135789 0.0254 0.0691882 
v 0.140799 0.0254 0.058321 
v 0.144941 0.0254 0.0470942 
v 0.148189 0.0254 0.0355771 
v 0.150524 0.0254 0.0238406 
v 0.15193 0.0254 0.0119572 
v 0.1524 0.0254 -6.53227e-17 
v 0 0.0254 -9.33181e-18 
v -0.1524 0 -9.33181e-18 
v -0.15193 0 -0.0119572 
v -0.150524 0 -0.0238406 
v -0.148189 0 -0.0355771 
v -0.144941 0 -0.0470942 
v -0.140799 0 -0.058321 
v -0.135789 0 -0.0691882 
v -0.129942 0 -0.0796288 
v -0.123294 0 -0.0895785 
v -0.115886 0 -0.0989759 
v -0.107763 0 -0.107763 
v -0.0989759 0 -0.115886 
v -0.0895785 0 -0.123294 
v -0.0796288 0 -0.129942 
v -0.0691882 0 -0.135789 
v -0.058321 0 -0.140799 
v -0.0470942 0 -0.144941 
v -0.0355771 0 -0.148189 
v -0.0238406 0 -0.150524 
v -0.0119572 0 -0.15193 
v -9.33181e-18 0 -0.1524 
v 0.0119572 0 -0.15193 
v 0.0238406 0 -0.150524 
v 0.0355771 0 -0.148189 
v 0.0470942 0 -0.144941 
v 0.058321 0 -0.140799 
v 0.0691882 0 -0.135789 
v 0.0796288 0 -0.129942 
v 0.0895785 0 -0.123294 
v 0.0989759 0 -0.115886 
v 0.107763 0 -0.107763 
v 0.115886 0 -0.0989759 
v 0.123294 0 -0.0895785 
v 0.129942 0 -0.0796288 
v 0.135789 0 -0.0691882 
v 0.140799 0 -0.058321 
v 0.144941 0 -0.0470942 
v 0.148189 0 -0.0355771 
v 0.150524 0 -0.0238406 
v 0.15193 0 -0.0119572 
v 0.1524 0 -2.79954e-17 
v 0.15193 0 0.0119572 
v 0.150524 0 0.0238406 
v 0.148189 0 0.0355771 
v 0.144941 0 0.0470942 
v 0.140799 0 0.058321 
v 0.135789 0 0.0691882 
v 0.129942 0 0.0796288 
v 0.123294 0 0.0895785 
v 0.115886 0 0.0989759 
v 0.107763 0 0.107763 
v 0.0989759 0 0.115886 
v 0.0895785 0 0.123294 
v 0.0796288 0 0.129942 
v 0.0691882 0 0.135789 
v 0.058321 0 0.140799 
v 0.0470942 0 0.144941 
v 0.0355771 0 0.148189 
v 0.0238406 0 0.150524 
v 0.0119572 0 0.15193 
v 2.79954e-17 0 0.1524 
v -0.0119572 0 0.15193 
v -0.0238406 0 0.150524 
v -0.0355771 0 0.148189 
v -0.0470942 0 0.144941 
v -0.058321 0 0.140799 
v -0.0691882 0 0.135789 
v -0.0796288 0 0.129942 
v -0.0895785 0 0.123294 
v -0.0989759 0 0.115886 
v -0.107763 0 0.107763 
v -0.115886 0 0.0989759 
v -0.123294 0 0.0895785 
v -0.129942 0 0.0796288 
v -0.135789 0 0.0691882 
v -0.140799 0 0.058321 
v -0.144941 0 0.0470942 
v -0.148189 0 0.0355771 
v -0.150524 0 0.0238406 
v -0.15193 0 0.0119572 
v 0 0 -9.33181e-18 
vn 0 1 0 
vn -1 0 0 
vn -0.996917 0 -0.0784591 
vn -0.987688 0 -0.156434 
vn -0.97237 0 -0.233445 
vn -0.951057 0 -0.309017 
vn -0.92388 0 -0.382683 
vn -0.891007 0 -0.45399 
vn -0.85264 0 -0.522499 
vn -0.809017 0 -0.587785 
vn -0.760406 0 -0.649448 
vn -0.707107 0 -0.707107 
vn -0.649448 0 -0.760406 
vn -0.587785 0 -0.809017 
vn -0.522499 0 -0.85264 
vn -0.45399 0 -0.891007 
vn -0.382683 0 -0.92388 
vn -0.309017 0 -0.951057 
vn -0.233445 0 -0.97237 
vn -0.156434 0 -0.987688 
vn -0.0784591 0 -0.996917 
vn -6.12323e-17 0 -1 
vn 0.0784591 0 -0.996917 
vn 0.156434 0 -0.987688 
vn 0.233445 0 -0.97237 
vn 0.309017 0 -0.951057 
vn 0.382683 0 -0.92388 
vn 0.45399 0 -0.891007 
vn 0.522499 0 -0.85264 
vn 0.587785 0 -0.809017 
vn 0.649448 0 -0.760406 
vn 0.707107 0 -0.707107 
vn 0.760406 0 -0.649448 
vn 0.809017 0 -0.587785 
vn 0.85264 0 -0.522499 
vn 0.891007 0 -0.45399 
vn 0.92388 0 -0.382683 
vn 0.951057 0 -0.309017 
vn 0.97237 0 -0.233445 
vn 0.987688 0 -0.156434 
vn 0.996917 0 -0.0784591 
vn 1 0 -1.22465e-16 
vn 0.996917 0 0.0784591 
vn 0.987688 0 0.156434 
vn 0.97237 0 0.233445 
vn 0.951057 0 0.309017 
vn 0.92388 0 0.382683 
vn 0.891007 0 0.45399 
vn 0.85264 0 0.522499 
vn 0.809017 0 0.587785 
vn 0.760406 0 0.649448 
vn 0.707107 0 0.707107 
vn 0.649448 0 0.760406 
vn 0.587785 0 0.809017 
vn 0.522499 0 0.85264 
vn 0.45399 0 0.891007 
vn 0.382683 0 0.92388 
vn 0.309017 0 0.951057 
vn 0.233445 0 0.97237 
vn 0.156434 0 0.987688 
vn 0.0784591 0 0.996917 
vn 1.83697e-16 0 1 
vn -0.0784591 0 0.996917 
vn -0.156434 0 0.987688 
vn -0.233445 0 0.97237 
vn -0.309017 0 0.951057 
vn -0.382683 0 0.92388 
vn -0.45399 0 0.891007 
vn -0.522499 0 0.85264 
vn -0.587785 0 0.809017 
vn -0.649448 0 0.760406 
vn -0.707107 0 0.707107 
vn -0.760406 0 0.649448 
vn -0.809017 0 0.587785 
vn -0.85264 0 0.522499 
vn -0.891007 0 0.45399 
vn -0.92388 0 0.382683 
vn -0.951057 0 0.309017 
vn -0.97237 0 0.233445 
vn -0.987688 0 0.156434 
vn -0.996917 0 0.0784591 
vn 0 -1 0 
usemtl 0.647059_0.647059_0.647059_0.000000_0.000000
o mesh0
f 81//1 1//1 2//1 
f 2//1 3//1 81//1 
f 3//1 4//1 81//1 
f 4//1 5//1 81//1 
f 5//1 6//1 81//1 
f 6//1 7//1 81//1 
f 7//1 8//1 81//1 
f 8//1 9//1 81//1 
f 9//1 10//1 81//1 
f 10//1 11//1 81//1 
f 11//1 12//1 81//1 
f 12//1 13//1 81//1 
f 13//1 14//1 81//1 
f 14//1 15//1 81//1 
f 15//1 16//1 81//1 
f 16//1 17//1 81//1 
f 17//1 18//1 81//1 
f 18//1 19//1 81//1 
f 19//1 20//1 81//1 
f 20//1 21//1 81//1 
f 21//1 22//1 81//1 
f 22//1 23//1 81//1 
f 23//1 24//1 81//1 
f 24//1 25//1 81//1 
f 25//1 26//1 81//1 
f 26//1 27//1 81//1 
f 27//1 28//1 81//1 
f 28//1 29//1 81//1 
f 29//1 30//1 81//1 
f 30//1 31//1 81//1 
f 31//1 32//1 81//1 
f 32//1 33//1 81//1 
f 33//1 34//1 81//1 
f 34//1 35//1 81//1 
f 35//1 36//1 81//1 
f 36//1 37//1 81//1 
f 37//1 38//1 81//1 
f 38//1 39//1 81//1 
f 39//1 40//1 81//1 
f 40//1 41//1 81//1 
f 41//1 42//1 81//1 
f 42//1 43//1 81//1 
f 43//1 44//1 81//1 
f 44//1 45//1 81//1 
f 45//1 46//1 81//1 
f 46//1 47//1 81//1 
f 47//1 48//1 81//1 
f 48//1 49//1 81//1 
f 49//1 50//1 81//1 
f 50//1 51//1 81//1 
f 51//1 52//1 81//1 
f 52//1 53//1 81//1 
f 53//1 54//1 81//1 
f 54//1 55//1 81//1 
f 55//1 56//1 81//1 
f 56//1 57//1 81//1 
f 57//1 58//1 81//1 
f 58//1 59//1 81//1 
f 59//1 60//1 81//1 
f 60//1 61//1 81//1 
f 61//1 62//1 81//1 
f 62//1 63//1 81//1 
f 63//1 64//1 81//1 
f 64//1 65//1 81//1 
f 65//1 66//1 81//1 
f 66//1 67//1 81//1 
f 67//1 68//1 81//1 
f 68//1 69//1 81//1 
f 69//1 70//1 81//1 
f 70//1 71//1 81//1 
f 71//1 72//1 81//1 
f 72//1 73//1 81//1 
f 73//1 74//1 81//1 
f 74//1 75//1 81//1 
f 75//1 76//1 81//1 
f 76//1 77//1 81//1 
f 77//1 78//1 81//1 
f 78//1 79//1 81//1 
f 79//1 80//1 81//1 
f 80//1 1//1 81//1 
o mesh1
f 82//2 40//2 39//3 
f 83//3 39//3 38//4 
f 84//4 38//4 37//5 
f 85//5 37//5 36//6 
f 86//6 36//6 35//7 
f 87//7 35//7 34//8 
f 88//8 34//8 33//9 
f 89//9 33//9 32//10 
f 90//10 32//10 31//11 
f 91//11 31//11 30//12 
f 92//12 30//12 29//13 
f 93//13 29//13 28//14 
f 94//14 28//14 27//15 
f 95//15 27//15 26//16 
f 96//16 26//16 25//17 
f 97//17 25//17 24//18 
f 98//18 24//18 23//19 
f 99//19 23//19 22//20 
f 100//20 22//20 21//21 
f 101//21 21//21 20//22 
f 102//22 20//22 19//23 
f 103//23 19//23 18//24 
f 104//24 18//24 17//25 
f 105//25 17//25 16//26 
f 106//26 16//26 15//27 
f 107//27 15//27 14//28 
f 108//28 14//28 13//29 
f 109//29 13//29 12//30 
f 110//30 12//30 11//31 
f 111//31 11//31 10//32 
f 112//32 10//32 9//33 
f 113//33 9//33 8//34 
f 114//34 8//34 7//35 
f 115//35 7//35 6//36 
f 116//36 6//36 5//37 
f 117//37 5//37 4//38 
f 118//38 4//38 3//39 
f 119//39 3//39 2//40 
f 120//40 2//40 1//41 
f 121//41 1//41 80//42 
f 122//42 80//42 79//43 
f 123//43 79//43 78//44 
f 124//44 78//44 77//45 
f 125//45 77//45 76//46 
f 126//46 76//46 75//47 
f 127//47 75//47 74//48 
f 128//48 74//48 73//49 
f 129//49 73//49 72//50 
f 130//50 72//50 71//51 
f 131//51 71//51 70//52 
f 132//52 70//52 69//53 
f 133//53 69//53 68//54 
f 134//54 68//54 67//55 
f 135//55 67//55 66//56 
f 136//56 66//56 65//57 
f 137//57 65//57 64//58 
f 138//58 64//58 63//59 
f 139//59 63//59 62//60 
f 140//60 62//60 61//61 
f 141//61 61//61 60//62 
f 142//62 60//62 59//63 
f 143//63 59//63 58//64 
f 144//64 58//64 57//65 
f 145//65 57//65 56//66 
f 146//66 56//66 55//67 
f 147//67 55//67 54//68 
f 148//68 54//68 53//69 
f 149//69 53//69 52//70 
f 150//70 52//70 51//71 
f 151//71 51//71 50//72 
f 152//72 50//72 49//73 
f 153//73 49//73 48//74 
f 154//74 48//74 47//75 
f 155//75 47//75 46//76 
f 156//76 46//76 45//77 
f 157//77 45//77 44//78 
f 158//78 44//78 43//79 
f 159//79 43//79 42//80 
f 160//80 42//80 41//81 
f 161//81 41//81 40//2 
f 40//2 82//2 161//81 
f 41//81 161//81 160//80 
f 42//80 160//80 159//79 
f 43//79 159//79 158//78 
f 44//78 158//78 157//77 
f 45//77 157//77 156//76 
f 46//76 156//76 155//75 
f 47//75 155//75 154//74 
f 48//74 154//74 153//73 
f 49//73 153//73 152//72 
f 50//72 152//72 151//71 
f 51//71 151//71 150//70 
f 52//70 150//70 149//69 
f 53//69 149//69 148//68 
f 54//68 148//68 147//67 
f 55//67 147//67 146//66 
f 56//66 146//66 145//65 
f 57//65 145//65 144//64 
f 58//64 144//64 143//63 
f 59//63 143//63 142//62 
f 60//62 142//62 141//61 
f 61//61 141//61 140//60 
f 62//60 140//60 139//59 
f 63//59 139//59 138//58 
f 64//58 138//58 137//57 
f 65//57 137//57 136//56 
f 66//56 136//56 135//55 
f 67//55 135//55 134//54 
f 68//54 134//54 133//53 
f 69//53 133//53 132//52 
f 70//52 132//52 131//51 
f 71//51 131//51 130//50 
f 72//50 130//50 129//49 
f 73//49 129//49 128//48 
f 74//48 128//48 127//47 
f 75//47 127//47 126//46 
f 76//46 126//46 125//45 
f 77//45 125//45 124//44 
f 78//44 124//44 123//43 
f 79//43 123//43 122//42 
f 80//42 122//42 121//41 
f 1//41 121//41 120//40 
f 2//40 120//40 119//39 
f 3//39 119//39 118//38 
f 4//38 118//38 117//37 
f 5//37 117//37 116//36 
f 6//36 116//36 115//35 
f 7//35 115//35 114//34 
f 8//34 114//34 113//33 
f 9//33 113//33 112//32 
f 10//32 112//32 111//31 
f 11//31 111//31 110//30 
f 12//30 110//30 109//29 
f 13//29 109//29 108//28 
f 14//28 108//28 107//27 
f 15//27 107//27 106//26 
f 16//26 106//26 105//25 
f 17//25 105//25 104//24 
f 18//24 104//24 103//23 
f 19//23 103//23 102//22 
f 20//22 102//22 101//21 
f 21//21 101//21 100//20 
f 22//20 100//20 99//19 
f 23//19 99//19 98//18 
f 24//18 98//18 97//17 
f 25//17 97//17 96//16 
f 26//16 96//16 95//15 
f 27//15 95//15 94//14 
f 28//14 94//14 93//13 
f 29//13 93//13 92//12 
f 30//12 92//12 91//11 
f 31//11 91//11 90//10 
f 32//10 90//10 89//9 
f 33//9 89//9 88//8 
f 34//8 88//8 87//7 
f 35//7 87//7 86//6 
f 36//6 86//6 85//5 
f 37//5 85//5 84//4 
f 38//4 84//4 83//3 
f 39//3 83//3 82//2 
o mesh2
f 162//82 123//82 124//82 
f 124//82 125//82 162//82 
f 125//82 126//82 162//82 
f 126//82 127//82 162//82 
f 127//82 128//82 162//82 
f 128//82 129//82 162//82 
f 129//82 130//82 162//82 
f 130//82 131//82 162//82 
f 131//82 132//82 162//82 
f 132//82 133//82 162//82 
f 133//82 134//82 162//82 
f 134//82 135//82 162//82 
f 135//82 136//82 162//82 
f 136//82 137//82 162//82 
f 137//82 138//82 162//82 
f 138//82 139//82 162//82 
f 139//82 140//82 162//82 
f 140//82 141//82 162//82 
f 141//82 142//82 162//82 
f 142//82 143//82 162//82 
f 143//82 144//82 162//82 
f 144//82 145//82 162//82 
f 145//82 146//82 162//82 
f 146//82 147//82 162//82 
f 147//82 148//82 162//82 
f 148//82 149//82 162//82 
f 149//82 150//82 162//82 
f 150//82 151//82 162//82 
f 151//82 152//82 162//82 
f 152//82 153//82 162//82 
f 153//82 154//82 162//82 
f 154//82 155//82 162//82 
f 155//82 156//82 162//82 
f 156//82 157//82 162//82 
f 157//82 158//82 162//82 
f 158//82 159//82 162//82 
f 159//82 160//82 162//82 
f 160//82 161//82 162//82 
f 161//82 82//82 162//82 
f 82//82 83//82 162//82 
f 83//82 84//82 162//82 
f 84//82 85//82 162//82 
f 85//82 86//82 162//82 
f 86//82 87//82 162//82 
f 87//82 88//82 162//82 
f 88//82 89//82 162//82 
f 89//82 90//82 162//82 
f 90//82 91//82 162//82 
f 91//82 92//82 162//82 
f 92//82 93//82 162//82 
f 93//82 94//82 162//82 
f 94//82 95//82 162//82 
f 95//82 96//82 162//82 
f 96//82 97//82 162//82 
f 97//82 98//82 162//82 
f 98//82 99//82 162//82 
f 99//82 100//82 162//82 
f 100//82 101//82 162//82 
f 101//82 102//82 162//82 
f 102//82 103//82 162//82 
f 103//82 104//82 162//82 
f 104//82 105//82 162//82 
f 105//82 106//82 162//82 
f 106//82 107//82 162//82 
f 107//82 108//82 162//82 
f 108//82 109//82 162//82 
f 109//82 110//82 162//82 
f 110//82 111//82 162//82 
f 111//82 112//82 162//82 
f 112//82 113//82 162//82 
f 113//82 114//82 162//82 
f 114//82 115//82 162//82 
f 115//82 116//82 162//82 
f 116//82 117//82 162//82 
f 117//82 118//82 162//82 
f 118//82 119//82 162//82 
f 119//82 120//82 162//82 
f 120//82 121//82 162//82 
f 121//82 122//82 162//82 
f 122//82 123//82 162//82 
