# OBJ generated by ONSHAPE BY PTC INC, 1.203 Units = meters
mtllib field_perimeter_parts.mtl
g field perimeter
v -1.19634 0.3048 -1.2192 
v -1.19634 0 -1.2192 
v 1.19634 0 -1.2192 
v 1.19634 0.3048 -1.2192 
v 1.19634 0 -0.00254 
v 1.19634 0.3048 -0.00254 
v 1.22174 0 -0.00254 
v 1.22174 0.3048 -0.00254 
v 1.22174 0 -1.2192 
v 1.22174 0.3048 -1.2192 
v 2.4384 0 -1.2192 
v 2.4384 0.3048 -1.2192 
v 2.4384 0 1.2192 
v 2.4384 0.3048 1.2192 
v -2.4384 0 1.2192 
v -2.4384 0.3048 1.2192 
v -2.4384 0 -1.2192 
v -2.4384 0.3048 -1.2192 
v -1.22174 0 -1.2192 
v -1.22174 0.3048 -1.2192 
v -1.22174 0 -0.00254 
v -1.22174 0.3048 -0.00254 
v -1.19634 0 -0.00254 
v -1.19634 0.3048 -0.00254 
v 2.4638 0.3048 -1.2446 
v -2.4638 0.3048 -1.2446 
v 2.4638 0.3048 1.2446 
v -2.4638 0.3048 1.2446 
v -2.4638 0 -1.2446 
v 2.4638 0 -1.2446 
v 2.4638 0 1.2446 
v -2.4638 0 1.2446 
vn 0 0 1 
vn -1 0 -1.82503e-16 
vn 1 0 1.82503e-16 
vn 0 0 1 
vn -1 0 -1.82123e-16 
vn 0 0 -1 
vn 1 0 1.82123e-16 
vn 0 0 1 
vn -1 0 -1.82503e-16 
vn 1 0 1.82503e-16 
vn 0 1 0 
vn 0 -1 0 
vn -1 0 0 
vn 0 0 1 
vn 1 0 0 
vn 0 0 -1 
usemtl 0.615686_0.811765_0.929412_0.000000_0.000000
o mesh0
f 1//1 2//1 3//1 
f 3//1 4//1 1//1 
o mesh1
f 4//2 3//2 5//2 
f 5//2 6//2 4//2 
o mesh2
f 6//1 5//1 7//1 
f 7//1 8//1 6//1 
o mesh3
f 8//3 7//3 9//3 
f 9//3 10//3 8//3 
o mesh4
f 10//4 9//4 11//4 
f 11//4 12//4 10//4 
o mesh5
f 12//5 11//5 13//5 
f 13//5 14//5 12//5 
o mesh6
f 14//6 13//6 15//6 
f 15//6 16//6 14//6 
o mesh7
f 16//7 15//7 17//7 
f 17//7 18//7 16//7 
o mesh8
f 18//8 17//8 19//8 
f 19//8 20//8 18//8 
o mesh9
f 20//9 19//9 21//9 
f 21//9 22//9 20//9 
o mesh10
f 22//8 21//8 23//8 
f 23//8 24//8 22//8 
o mesh11
f 24//10 23//10 2//10 
f 2//10 1//10 24//10 
o mesh12
f 25//11 20//11 1//11 
f 1//11 20//11 22//11 
f 22//11 24//11 1//11 
f 26//11 18//11 20//11 
f 27//11 25//11 12//11 
f 25//11 4//11 10//11 
f 20//11 25//11 26//11 
f 26//11 28//11 16//11 
f 10//11 12//11 25//11 
f 10//11 4//11 6//11 
f 16//11 18//11 26//11 
f 28//11 27//11 14//11 
f 6//11 8//11 10//11 
f 14//11 16//11 28//11 
f 1//11 4//11 25//11 
f 12//11 14//11 27//11 
o mesh13
f 29//12 9//12 3//12 
f 9//12 7//12 5//12 
f 5//12 3//12 9//12 
f 30//12 11//12 9//12 
f 9//12 29//12 30//12 
f 30//12 31//12 13//12 
f 13//12 11//12 30//12 
f 31//12 32//12 15//12 
f 15//12 13//12 31//12 
f 29//12 2//12 19//12 
f 32//12 17//12 15//12 
f 19//12 17//12 29//12 
f 17//12 32//12 29//12 
f 2//12 23//12 21//12 
f 21//12 19//12 2//12 
f 3//12 2//12 29//12 
o mesh14
f 26//13 29//13 32//13 
f 32//13 28//13 26//13 
o mesh15
f 28//14 32//14 31//14 
f 31//14 27//14 28//14 
o mesh16
f 27//15 31//15 30//15 
f 30//15 25//15 27//15 
o mesh17
f 25//16 30//16 29//16 
f 29//16 26//16 25//16 
