# OBJ generated by ONSHAPE BY PTC INC, 1.203 Units = meters
mtllib power line - power line.mtl
g power line
v 0.0254 0.271961 0.0179605 
v 0.0254 0.254 -1.11022e-16 
v 0.8382 0.254 -1.11022e-16 
v 0.8382 0.271961 0.0179605 
v 0.0254 0.271961 -0.0179605 
v 0.8382 0.271961 -0.0179605 
v 0 -0.311702 -0.601623 
v 0 0.289921 3.1225e-17 
v 0.8636 0.289921 3.1225e-17 
v 0.8636 -0.311702 -0.601623 
v 0.8382 -0.311702 -0.601623 
v 0.0254 -0.311702 -0.601623 
v 0.0254 -0.307212 -0.606113 
v 0 -0.307212 -0.606113 
v 0.0254 -0.343133 -0.642034 
v 0 -0.343133 -0.642034 
v 0.0254 -0.345904 -0.644545 
v 0 -0.345904 -0.644545 
v 0.0254 -0.348907 -0.646773 
v 0 -0.348907 -0.646773 
v 0.0254 -0.352114 -0.648695 
v 0 -0.352114 -0.648695 
v 0.0254 -0.355494 -0.650293 
v 0 -0.355494 -0.650293 
v 0.0254 -0.359014 -0.651553 
v 0 -0.359014 -0.651553 
v 0.0254 -0.362641 -0.652462 
v 0 -0.362641 -0.652462 
v 0.0254 -0.366339 -0.65301 
v 0 -0.366339 -0.65301 
v 0.0254 -0.370074 -0.653194 
v 0 -0.370074 -0.653194 
v 0 -0.370074 -0.615094 
v 0.0254 -0.370074 -0.615094 
v 0.0254 -0.334153 -0.579173 
v 0 -0.334153 -0.579173 
v 0.0254 -0.329663 -0.583663 
v 0 -0.329663 -0.583663 
v 0 0.254 -1.11022e-16 
v 0.0254 -0.329663 0.583663 
v 0 -0.329663 0.583663 
v 0.0254 -0.334153 0.579173 
v 0 -0.334153 0.579173 
v 0.0254 -0.370074 0.615094 
v 0 -0.370074 0.615094 
v 0.0254 -0.370074 0.653194 
v 0 -0.370074 0.653194 
v 0.0254 -0.366339 0.65301 
v 0 -0.366339 0.65301 
v 0.0254 -0.362641 0.652462 
v 0 -0.362641 0.652462 
v 0.0254 -0.359014 0.651553 
v 0 -0.359014 0.651553 
v 0.0254 -0.355494 0.650293 
v 0 -0.355494 0.650293 
v 0.0254 -0.352114 0.648695 
v 0 -0.352114 0.648695 
v 0.0254 -0.348907 0.646773 
v 0 -0.348907 0.646773 
v 0.0254 -0.345904 0.644545 
v 0 -0.345904 0.644545 
v 0.0254 -0.343133 0.642034 
v 0 -0.343133 0.642034 
v 0 -0.311702 0.601623 
v 0 -0.307212 0.606113 
v 0.0254 -0.311702 0.601623 
v 0.0254 -0.307212 0.606113 
v 0.8636 -0.311702 0.601623 
v 0.8382 -0.311702 0.601623 
v 0.8636 -0.307212 -0.606113 
v 0.8382 -0.307212 -0.606113 
v 0.8636 -0.343133 -0.642034 
v 0.8382 -0.343133 -0.642034 
v 0.8636 -0.345904 -0.644545 
v 0.8382 -0.345904 -0.644545 
v 0.8636 -0.348907 -0.646773 
v 0.8382 -0.348907 -0.646773 
v 0.8636 -0.352114 -0.648695 
v 0.8382 -0.352114 -0.648695 
v 0.8636 -0.355494 -0.650293 
v 0.8382 -0.355494 -0.650293 
v 0.8636 -0.359014 -0.651553 
v 0.8382 -0.359014 -0.651553 
v 0.8636 -0.362641 -0.652462 
v 0.8382 -0.362641 -0.652462 
v 0.8636 -0.366339 -0.65301 
v 0.8382 -0.366339 -0.65301 
v 0.8636 -0.370074 -0.653194 
v 0.8382 -0.370074 -0.653194 
v 0.8382 -0.370074 -0.615094 
v 0.8636 -0.370074 -0.615094 
v 0.8636 -0.334153 -0.579173 
v 0.8382 -0.334153 -0.579173 
v 0.8382 -0.329663 -0.583663 
v 0.8636 -0.329663 -0.583663 
v 0.8636 0.254 -1.11022e-16 
v 0.8636 -0.329663 0.583663 
v 0.8382 -0.329663 0.583663 
v 0.8382 -0.307212 0.606113 
v 0.8636 -0.307212 0.606113 
v 0.8382 -0.343133 0.642034 
v 0.8636 -0.343133 0.642034 
v 0.8382 -0.370074 0.653194 
v 0.8636 -0.370074 0.653194 
v 0.8636 -0.366339 0.65301 
v 0.8382 -0.366339 0.65301 
v 0.8636 -0.362641 0.652462 
v 0.8382 -0.362641 0.652462 
v 0.8636 -0.359014 0.651553 
v 0.8382 -0.359014 0.651553 
v 0.8636 -0.355494 0.650293 
v 0.8382 -0.355494 0.650293 
v 0.8636 -0.352114 0.648695 
v 0.8382 -0.352114 0.648695 
v 0.8636 -0.348907 0.646773 
v 0.8382 -0.348907 0.646773 
v 0.8636 -0.345904 0.644545 
v 0.8382 -0.345904 0.644545 
v 0.8636 -0.370074 0.615094 
v 0.8636 -0.334153 0.579173 
v 0.8382 -0.370074 0.615094 
v 0.8382 -0.334153 0.579173 
vn 0 -0.707107 0.707107 
vn 0 -0.707107 -0.707107 
vn 0 0.707107 -0.707107 
vn 0 0.707107 0.707107 
vn 0 0.634393 -0.77301 
vn 0 0.55557 -0.83147 
vn 0 0.471397 -0.881921 
vn 0 0.382683 -0.92388 
vn 0 0.290285 -0.95694 
vn 0 0.19509 -0.980785 
vn 0 0.0980171 -0.995185 
vn 0 -1.30394e-14 -1 
vn 0 -1 0 
vn 0 -0.707107 0.707107 
vn 1 0 0 
vn 0 0.707107 0.707107 
vn 0 -0.707107 0.707107 
vn 0 -0.707107 -0.707107 
vn 0 0.707107 -0.707107 
vn 0 -1 0 
vn 0 -2.6829e-14 1 
vn 0 0.0980171 0.995185 
vn 0 0.19509 0.980785 
vn 0 0.290285 0.95694 
vn 0 0.382683 0.92388 
vn 0 0.471397 0.881921 
vn 0 0.55557 0.83147 
vn 0 0.634393 0.77301 
vn 0 0.707107 0.707107 
vn -1 0 0 
vn 1 0 0 
vn 0 0.707107 -0.707107 
vn 0 0.707107 0.707107 
vn 0 0.634393 -0.77301 
vn 0 0.55557 -0.83147 
vn 0 0.471397 -0.881921 
vn 0 0.382683 -0.92388 
vn 0 0.290285 -0.95694 
vn 0 0.19509 -0.980785 
vn 0 0.0980171 -0.995185 
vn 0 -1.30394e-14 -1 
vn 0 -1 0 
vn 0 -0.707107 0.707107 
vn -1 0 0 
vn 0 0.707107 0.707107 
vn 0 -0.707107 0.707107 
vn 0 -0.707107 -0.707107 
vn 0 0.707107 -0.707107 
vn 0 0.707107 0.707107 
vn 0 -2.6829e-14 1 
vn 0 0.0980171 0.995185 
vn 0 0.19509 0.980785 
vn 0 0.290285 0.95694 
vn 0 0.382683 0.92388 
vn 0 0.471397 0.881921 
vn 0 0.55557 0.83147 
vn 0 0.634393 0.77301 
vn 0 0.707107 0.707107 
vn 1 0 0 
vn -1 0 0 
vn 0 -1 0 
vn 0 -0.707107 -0.707107 
vn 0 0.707107 -0.707107 
usemtl 0.615686_0.811765_0.929412_0.000000_0.000000
o mesh0
f 1//1 2//1 3//1 
f 3//1 4//1 1//1 
o mesh1
f 5//2 6//2 3//2 
f 3//2 2//2 5//2 
o mesh2
f 7//3 8//3 5//3 
f 8//3 9//3 6//3 
f 6//3 5//3 8//3 
f 10//3 11//3 6//3 
f 6//3 9//3 10//3 
f 5//3 12//3 7//3 
o mesh3
f 13//4 14//4 7//4 
f 7//4 12//4 13//4 
o mesh4
f 15//3 16//3 14//3 
f 14//3 13//3 15//3 
o mesh5
f 16//3 15//3 17//5 
f 18//5 17//5 19//6 
f 20//6 19//6 21//7 
f 22//7 21//7 23//8 
f 24//8 23//8 25//9 
f 26//9 25//9 27//10 
f 28//10 27//10 29//11 
f 30//11 29//11 31//12 
f 31//12 32//12 30//11 
f 29//11 30//11 28//10 
f 27//10 28//10 26//9 
f 25//9 26//9 24//8 
f 23//8 24//8 22//7 
f 21//7 22//7 20//6 
f 19//6 20//6 18//5 
f 17//5 18//5 16//3 
o mesh6
f 33//13 32//13 31//13 
f 31//13 34//13 33//13 
o mesh7
f 35//14 36//14 33//14 
f 33//14 34//14 35//14 
o mesh8
f 34//15 15//15 37//15 
f 34//15 17//15 15//15 
f 34//15 19//15 17//15 
f 34//15 21//15 19//15 
f 34//15 25//15 23//15 
f 34//15 29//15 27//15 
f 23//15 21//15 34//15 
f 34//15 31//15 29//15 
f 2//15 37//15 12//15 
f 15//15 13//15 12//15 
f 27//15 25//15 34//15 
f 12//15 37//15 15//15 
f 12//15 5//15 2//15 
f 37//15 35//15 34//15 
o mesh9
f 37//16 38//16 36//16 
f 36//16 35//16 37//16 
o mesh10
f 2//17 39//17 38//17 
f 38//17 37//17 2//17 
o mesh11
f 40//18 41//18 39//18 
f 39//18 2//18 40//18 
o mesh12
f 42//19 43//19 41//19 
f 41//19 40//19 42//19 
o mesh13
f 44//18 45//18 43//18 
f 43//18 42//18 44//18 
o mesh14
f 46//20 47//20 45//20 
f 45//20 44//20 46//20 
o mesh15
f 47//21 46//21 48//22 
f 49//22 48//22 50//23 
f 51//23 50//23 52//24 
f 53//24 52//24 54//25 
f 55//25 54//25 56//26 
f 57//26 56//26 58//27 
f 59//27 58//27 60//28 
f 61//28 60//28 62//29 
f 62//29 63//29 61//28 
f 60//28 61//28 59//27 
f 58//27 59//27 57//26 
f 56//26 57//26 55//25 
f 54//25 55//25 53//24 
f 52//24 53//24 51//23 
f 50//23 51//23 49//22 
f 48//22 49//22 47//21 
o mesh16
f 45//30 57//30 59//30 
f 45//30 55//30 57//30 
f 45//30 51//30 53//30 
f 53//30 55//30 45//30 
f 45//30 47//30 49//30 
f 33//30 18//30 20//30 
f 45//30 64//30 41//30 
f 64//30 8//30 39//30 
f 49//30 51//30 45//30 
f 33//30 28//30 30//30 
f 33//30 22//30 24//30 
f 33//30 16//30 18//30 
f 39//30 41//30 64//30 
f 7//30 38//30 39//30 
f 63//30 65//30 64//30 
f 59//30 61//30 45//30 
f 33//30 26//30 28//30 
f 20//30 22//30 33//30 
f 39//30 8//30 7//30 
f 61//30 63//30 45//30 
f 24//30 26//30 33//30 
f 16//30 33//30 7//30 
f 64//30 45//30 63//30 
f 33//30 36//30 38//30 
f 7//30 14//30 16//30 
f 38//30 7//30 33//30 
f 41//30 43//30 45//30 
f 30//30 32//30 33//30 
o mesh17
f 44//31 60//31 58//31 
f 44//31 54//31 52//31 
f 58//31 56//31 44//31 
f 44//31 50//31 48//31 
f 56//31 54//31 44//31 
f 52//31 50//31 44//31 
f 44//31 62//31 60//31 
f 62//31 44//31 66//31 
f 66//31 40//31 2//31 
f 44//31 42//31 40//31 
f 66//31 67//31 62//31 
f 40//31 66//31 44//31 
f 2//31 1//31 66//31 
f 48//31 46//31 44//31 
o mesh18
f 66//32 64//32 65//32 
f 65//32 67//32 66//32 
o mesh19
f 67//33 65//33 63//33 
f 63//33 62//33 67//33 
o mesh20
f 68//33 9//33 4//33 
f 8//33 1//33 4//33 
f 4//33 9//33 8//33 
f 64//33 66//33 1//33 
f 1//33 8//33 64//33 
f 4//33 69//33 68//33 
o mesh21
f 70//33 71//33 11//33 
f 11//33 10//33 70//33 
o mesh22
f 72//32 73//32 71//32 
f 71//32 70//32 72//32 
o mesh23
f 73//32 72//32 74//34 
f 75//34 74//34 76//35 
f 77//35 76//35 78//36 
f 79//36 78//36 80//37 
f 81//37 80//37 82//38 
f 83//38 82//38 84//39 
f 85//39 84//39 86//40 
f 87//40 86//40 88//41 
f 88//41 89//41 87//40 
f 86//40 87//40 85//39 
f 84//39 85//39 83//38 
f 82//38 83//38 81//37 
f 80//37 81//37 79//36 
f 78//36 79//36 77//35 
f 76//35 77//35 75//34 
f 74//34 75//34 73//32 
o mesh24
f 90//42 89//42 88//42 
f 88//42 91//42 90//42 
o mesh25
f 92//43 93//43 90//43 
f 90//43 91//43 92//43 
o mesh26
f 90//44 75//44 77//44 
f 90//44 85//44 87//44 
f 90//44 79//44 81//44 
f 90//44 73//44 75//44 
f 90//44 83//44 85//44 
f 77//44 79//44 90//44 
f 81//44 83//44 90//44 
f 73//44 90//44 11//44 
f 3//44 6//44 11//44 
f 90//44 93//44 94//44 
f 11//44 71//44 73//44 
f 94//44 11//44 90//44 
f 11//44 94//44 3//44 
f 87//44 89//44 90//44 
o mesh27
f 95//45 94//45 93//45 
f 93//45 92//45 95//45 
o mesh28
f 94//46 95//46 96//46 
f 96//46 3//46 94//46 
o mesh29
f 97//47 98//47 3//47 
f 3//47 96//47 97//47 
o mesh30
f 68//48 69//48 99//48 
f 99//48 100//48 68//48 
o mesh31
f 100//49 99//49 101//49 
f 101//49 102//49 100//49 
o mesh32
f 103//50 104//50 105//51 
f 106//51 105//51 107//52 
f 108//52 107//52 109//53 
f 110//53 109//53 111//54 
f 112//54 111//54 113//55 
f 114//55 113//55 115//56 
f 116//56 115//56 117//57 
f 118//57 117//57 102//58 
f 102//58 101//58 118//57 
f 117//57 118//57 116//56 
f 115//56 116//56 114//55 
f 113//55 114//55 112//54 
f 111//54 112//54 110//53 
f 109//53 110//53 108//52 
f 107//52 108//52 106//51 
f 105//51 106//51 103//50 
o mesh33
f 91//59 72//59 95//59 
f 119//59 117//59 115//59 
f 91//59 74//59 72//59 
f 119//59 111//59 109//59 
f 115//59 113//59 119//59 
f 91//59 76//59 74//59 
f 68//59 97//59 96//59 
f 119//59 120//59 97//59 
f 119//59 107//59 105//59 
f 113//59 111//59 119//59 
f 91//59 78//59 76//59 
f 91//59 82//59 80//59 
f 91//59 86//59 84//59 
f 10//59 9//59 96//59 
f 97//59 68//59 119//59 
f 109//59 107//59 119//59 
f 80//59 78//59 91//59 
f 91//59 88//59 86//59 
f 96//59 9//59 68//59 
f 72//59 70//59 10//59 
f 119//59 102//59 117//59 
f 102//59 119//59 68//59 
f 84//59 82//59 91//59 
f 10//59 95//59 72//59 
f 68//59 100//59 102//59 
f 96//59 95//59 10//59 
f 95//59 92//59 91//59 
f 105//59 104//59 119//59 
o mesh34
f 121//60 114//60 116//60 
f 121//60 112//60 114//60 
f 121//60 108//60 110//60 
f 110//60 112//60 121//60 
f 121//60 103//60 106//60 
f 106//60 108//60 121//60 
f 121//60 69//60 98//60 
f 69//60 4//60 3//60 
f 101//60 99//60 69//60 
f 116//60 118//60 121//60 
f 3//60 98//60 69//60 
f 118//60 101//60 121//60 
f 69//60 121//60 101//60 
f 98//60 122//60 121//60 
o mesh35
f 104//61 103//61 121//61 
f 121//61 119//61 104//61 
o mesh36
f 119//62 121//62 122//62 
f 122//62 120//62 119//62 
o mesh37
f 120//63 122//63 98//63 
f 98//63 97//63 120//63 
